SplineFontDB: 3.0
FontName: Besley-it-BookItalic
FullName: Besley* Book Italic
FamilyName: Besley*
Weight: Book
Copyright: Copyright (c) 2017, Owen Earl,,, (EwonRael@yahoo.com)
UComments: "2016-4-15: Created with FontForge (http://fontforge.org)"
Version: 001.1
ItalicAngle: -13
UnderlinePosition: -100
UnderlineWidth: 50
Ascent: 800
Descent: 200
InvalidEm: 0
LayerCount: 2
Layer: 0 0 "Back" 1
Layer: 1 0 "Fore" 0
XUID: [1021 31 -699969567 16487490]
FSType: 0
OS2Version: 0
OS2_WeightWidthSlopeOnly: 0
OS2_UseTypoMetrics: 1
CreationTime: 1460762150
ModificationTime: 1500758449
PfmFamily: 17
TTFWeight: 400
TTFWidth: 5
LineGap: 100
VLineGap: 0
OS2TypoAscent: 800
OS2TypoAOffset: 0
OS2TypoDescent: -200
OS2TypoDOffset: 0
OS2TypoLinegap: 100
OS2WinAscent: 900
OS2WinAOffset: 0
OS2WinDescent: 300
OS2WinDOffset: 0
HheadAscent: 900
HheadAOffset: 0
HheadDescent: -200
HheadDOffset: 0
OS2CapHeight: 700
OS2XHeight: 460
OS2FamilyClass: 1024
OS2Vendor: 'PfEd'
OS2UnicodeRanges: 00000001.00000000.00000000.00000000
Lookup: 5 0 0 "'calt' Contextual Alternates lookup 1" { "'calt' Contextual Alternates lookup 1-1"  } ['calt' ('DFLT' <'dflt' > 'grek' <'dflt' > 'latn' <'dflt' > ) ]
Lookup: 1 0 0 "'ss01' Style Set 1 lookup 2" { "'ss01' Style Set 1 lookup 2-1"  } ['ss01' ('DFLT' <'dflt' > 'grek' <'dflt' > 'latn' <'dflt' > ) ]
Lookup: 4 0 1 "'liga' Standard Ligatures lookup 0" { "Not your mama's contextual ligatures"  } ['liga' ('DFLT' <'dflt' > 'grek' <'dflt' > 'latn' <'dflt' > ) ]
Lookup: 258 0 0 "Kern like there's no tomorrow" { "Get it right" [150,0,5] } ['kern' ('DFLT' <'dflt' > 'grek' <'dflt' > 'latn' <'dflt' > ) ]
MarkAttachClasses: 1
DEI: 91125
KernClass2: 17 15 "Get it right"
 13 backslash A L
 3 B S
 5 D O Q
 1 E
 3 F P
 5 G g r
 7 H I M N
 3 J U
 5 K X Z
 3 T Y
 9 a h m n u
 15 b c e o p v w y
 5 d i l
 1 f
 7 k x z t
 9 slash W V
 3 A J
 23 B D E F H I K L M N P R
 7 C G O Q
 3 T Y
 1 U
 3 V W
 3 X Z
 13 a c d e o q s
 5 b l t
 19 f m n p r u y w i j
 3 h k
 1 v
 3 x z
 12 period comma

StartChar: ampersand
Encoding: 38 38 0
Width: 870
Flags: HMW
LayerCount: 2
Fore
SplineSet
552 660 m 0
 552 697 532 720 489 720 c 0
 402 720 354 673 354 620 c 0
 354 592 362 557 379 508 c 0
 384 494 389 489 396 489 c 0
 404 489 414 497 428 504 c 0
 500 541 552 586 552 660 c 0
111 180 m 0
 111 108 151 55 255 55 c 0
 296 55 337 62 376 73 c 0
 405 81 417 83 417 96 c 0
 417 102 414 111 409 124 c 2
 314 370 l 2
 307 387 301 394 294 394 c 0
 286 394 276 386 260 378 c 0
 176 335 111 277 111 180 c 0
678 80 m 0
 691 80 707 71 707 62 c 0
 707 55 700 46 692 34 c 0
 669 0 627 -30 561 -30 c 0
 521 -30 491 -14 468 11 c 0
 453 27 447 34 438 34 c 0
 431 34 422 30 405 24 c 0
 345 2 282 -10 220 -10 c 0
 77 -10 1 57 1 160 c 0
 1 311 124 378 254 431 c 0
 273 438 281 440 281 449 c 0
 281 454 279 460 275 470 c 0
 258 512 249 548 249 583 c 0
 249 673 344 760 490 760 c 0
 577 760 646 735 646 655 c 0
 646 552 554 501 446 456 c 0
 424 447 410 446 410 433 c 0
 410 428 412 422 415 414 c 2
 509 168 l 2
 516 150 518 141 525 141 c 0
 529 141 535 144 544 150 c 0
 655 221 731 314 731 359 c 0
 731 375 729 380 721 380 c 0
 709 380 712 364 678 364 c 0
 643 364 624 388 624 426 c 0
 624 456 650 489 699 489 c 0
 767 489 790 446 790 385 c 0
 790 306 696 191 565 105 c 0
 550 96 543 90 543 81 c 0
 543 75 547 67 554 56 c 0
 564 40 579 32 603 32 c 0
 624 32 640 40 654 57 c 0
 665 69 666 80 678 80 c 0
EndSplineSet
EndChar

StartChar: period
Encoding: 46 46 1
Width: 200
Flags: HMW
LayerCount: 2
Fore
SplineSet
-30 50 m 0
 -30 83 -3 110 30 110 c 0
 63 110 90 83 90 50 c 0
 90 17 63 -10 30 -10 c 0
 -3 -10 -30 17 -30 50 c 0
EndSplineSet
EndChar

StartChar: zero
Encoding: 48 48 2
Width: 530
Flags: HMW
LayerCount: 2
Fore
SplineSet
130 190 m 0
 130 98 151 40 205 40 c 0
 309 40 400 198 400 370 c 0
 400 472 379 520 325 520 c 0
 211 520 130 362 130 190 c 0
25 190 m 0
 25 393 162 570 335 570 c 0
 428 570 505 523 505 370 c 0
 505 157 348 -10 195 -10 c 0
 112 -10 25 47 25 190 c 0
EndSplineSet
EndChar

StartChar: one
Encoding: 49 49 3
Width: 530
VWidth: 1155
Flags: HMW
LayerCount: 2
Fore
SplineSet
387 0 m 2
 30 -0 l 2
 8 0 5 2 5 30 c 0
 5 54 6 55 24 55 c 2
 135 55 l 2
 184 55 181 63 190 102 c 2
 256 374 l 2
 259 385 262 393 262 399 c 0
 262 407 256 410 235 410 c 2
 131 410 l 2
 116 410 112 413 112 436 c 0
 112 439 112 442 112 445 c 0
 112 463 113 465 137 465 c 2
 152 465 l 2
 215 465 270 468 344 574 c 0
 351 585 352 590 371 590 c 0
 392 590 397 589 397 582 c 0
 397 578 395 571 393 562 c 2
 288 116 l 2
 283 98 276 83 276 72 c 0
 276 61 283 55 309 55 c 2
 407 55 l 2
 428 55 431 50 431 38 c 0
 431 33 430 26 430 18 c 0
 430 2 422 -1 411 -1 c 0
 404 -1 396 0 387 0 c 2
EndSplineSet
EndChar

StartChar: two
Encoding: 50 50 4
Width: 530
VWidth: 1155
Flags: HMW
LayerCount: 2
Fore
SplineSet
463 142 m 0
 432 18 375 -30 280 -30 c 0
 173 -30 148 30 85 30 c 0
 56 30 35 20 22 4 c 0
 13 -6 15 -20 -4 -20 c 2
 -33 -20 l 2
 -43 -20 -47 -15 -47 -9 c 0
 -47 0 -40 13 -37 22 c 0
 7 152 125 223 232 269 c 0
 335 313 402 376 402 440 c 0
 402 504 363 523 304 523 c 0
 230 523 167 494 167 467 c 0
 167 444 194 444 194 408 c 0
 194 371 164 350 137 350 c 0
 108 350 73 368 73 416 c 0
 73 498 200 570 312 570 c 0
 423 570 513 530 513 430 c 0
 513 320 411 254 247 205 c 0
 182 185 105 143 56 90 c 0
 44 77 39 69 39 66 c 0
 39 65 40 65 41 65 c 0
 46 65 58 70 74 79 c 0
 98 92 119 98 149 98 c 0
 229 98 240 63 306 63 c 0
 356 63 388 90 404 127 c 0
 413 147 406 157 436 157 c 2
 458 157 l 2
 471 157 465 151 463 142 c 0
EndSplineSet
EndChar

StartChar: three
Encoding: 51 51 5
Width: 530
VWidth: 1155
Flags: HMW
LayerCount: 2
Fore
SplineSet
-50 -21 m 0
 -50 27 -12 65 27 65 c 0
 61 65 81 47 81 17 c 0
 81 -44 34 -32 34 -62 c 0
 34 -89 62 -114 136 -114 c 0
 265 -114 334 -14 334 90 c 0
 334 163 294 200 212 209 c 0
 179 212 172 206 172 244 c 0
 172 260 181 262 193 262 c 2
 212 262 l 1
 349 275 394 354 394 431 c 0
 394 495 365 524 296 524 c 0
 232 524 159 493 159 466 c 0
 159 443 191 440 191 404 c 0
 191 367 161 346 134 346 c 0
 105 346 70 364 70 412 c 0
 70 494 174 570 316 570 c 0
 407 570 495 531 495 431 c 0
 495 346 457 281 347 249 c 0
 324 243 308 240 308 236 c 0
 308 233 316 230 335 224 c 0
 405 201 435 160 435 90 c 0
 435 -50 317 -160 136 -160 c 0
 4 -160 -50 -93 -50 -21 c 0
EndSplineSet
EndChar

StartChar: four
Encoding: 52 52 6
Width: 530
VWidth: 1155
Flags: HMW
LayerCount: 2
Fore
SplineSet
405 -132 m 0
 405 -148 400 -151 390 -151 c 0
 385 -151 378 -150 371 -150 c 2
 170 -150 l 2
 163 -150 158 -151 153 -151 c 0
 145 -151 140 -148 140 -135 c 0
 140 -126 139 -119 139 -113 c 0
 139 -101 142 -95 162 -95 c 2
 214 -95 l 2
 231 -95 237 -93 242 -72 c 2
 266 36 l 2
 268 45 271 52 271 57 c 0
 271 63 267 65 252 65 c 2
 25 65 l 2
 17 65 10 64 5 64 c 0
 -5 64 -10 67 -10 84 c 0
 -10 102 -8 111 -2 122 c 0
 70 260 337 410 363 540 c 0
 366 559 368 560 383 560 c 2
 428 560 l 2
 438 560 443 559 443 549 c 0
 443 547 442 544 442 541 c 0
 422 388 162 261 72 146 c 0
 64 136 59 130 59 126 c 0
 59 121 68 120 92 120 c 2
 257 120 l 2
 285 120 285 121 290 144 c 2
 310 238 l 2
 314 257 317 260 331 269 c 0
 356 285 383 304 401 340 c 0
 406 350 407 369 424 369 c 0
 434 369 437 366 437 362 c 0
 437 358 434 353 433 346 c 2
 386 142 l 2
 384 135 383 129 383 126 c 0
 383 121 387 120 401 120 c 2
 443 120 l 2
 465 120 465 120 465 98 c 2
 465 85 l 2
 465 67 463 65 437 65 c 2
 390 65 l 2
 369 65 369 65 365 48 c 2
 339 -65 l 2
 337 -75 334 -81 334 -86 c 0
 334 -92 338 -95 354 -95 c 2
 389 -95 l 2
 403 -95 406 -101 406 -111 c 0
 406 -117 405 -124 405 -132 c 0
EndSplineSet
EndChar

StartChar: five
Encoding: 53 53 7
Width: 530
VWidth: 1155
Flags: HMW
LayerCount: 2
Fore
SplineSet
-10 -21 m 0
 -10 35 25 55 54 55 c 0
 81 55 111 34 111 -3 c 0
 111 -39 79 -44 79 -67 c 0
 79 -94 102 -118 156 -118 c 0
 275 -118 374 -24 374 110 c 0
 374 204 355 261 286 261 c 0
 237 261 195 253 153 226 c 0
 134 214 126 197 91 197 c 0
 71 197 65 199 65 205 c 0
 65 210 69 217 72 227 c 2
 175 538 l 2
 183 564 188 565 220 565 c 0
 256 565 291 565 327 565 c 0
 381 565 414 561 437 561 c 0
 456 561 468 564 480 574 c 0
 489 581 493 597 514 597 c 2
 535 597 l 2
 543 597 546 596 546 591 c 0
 546 588 545 585 543 580 c 2
 537 565 l 2
 506 489 502 475 265 475 c 2
 235 475 l 2
 202 475 203 471 195 447 c 2
 148 305 l 2
 142 288 139 279 139 275 c 0
 139 273 140 272 141 272 c 0
 145 272 154 277 170 285 c 0
 208 302 250 310 298 310 c 0
 419 310 475 230 475 130 c 0
 475 -50 337 -160 156 -160 c 0
 54 -160 -10 -113 -10 -21 c 0
EndSplineSet
EndChar

StartChar: six
Encoding: 54 54 8
Width: 530
VWidth: 1155
Flags: HMW
LayerCount: 2
Fore
SplineSet
100 220 m 0
 100 129 121 40 189 40 c 0
 308 40 380 186 380 290 c 0
 380 364 363 411 314 411 c 0
 211 411 100 300 100 220 c 0
140 376 m 0
 186 425 251 460 326 460 c 0
 407 460 480 420 480 290 c 0
 480 150 350 -10 189 -10 c 0
 68 -10 10 70 10 220 c 0
 10 470 183 720 364 720 c 0
 446 720 510 693 510 611 c 0
 510 563 475 535 446 535 c 0
 419 535 389 556 389 593 c 0
 389 629 413 638 413 651 c 0
 413 664 408 678 369 678 c 0
 271 678 172 546 122 385 c 0
 118 371 116 363 116 359 c 0
 116 357 117 356 118 356 c 0
 122 356 130 365 140 376 c 0
EndSplineSet
EndChar

StartChar: seven
Encoding: 55 55 9
Width: 540
VWidth: 1155
Flags: HMW
LayerCount: 2
Fore
SplineSet
48 427 m 0
 80 537 136 580 226 580 c 0
 333 580 358 520 421 520 c 0
 453 520 475 532 488 551 c 0
 495 561 492 570 510 570 c 2
 531 570 l 2
 544 570 550 569 550 562 c 0
 550 559 549 555 547 550 c 0
 524 476 393 338 294 218 c 0
 224 133 193 76 193 32 c 0
 193 -41 216 -46 216 -92 c 0
 216 -129 196 -160 152 -160 c 0
 113 -160 81 -133 81 -64 c 0
 81 25 154 139 235 231 c 0
 295 299 368 380 422 447 c 0
 430 457 435 462 435 464 c 0
 435 465 435 465 434 465 c 0
 431 465 424 462 411 459 c 0
 394 455 376 452 357 452 c 0
 277 452 266 487 200 487 c 0
 154 487 123 464 106 431 c 0
 92 403 101 393 58 393 c 0
 45 393 41 396 41 402 c 0
 41 408 45 418 48 427 c 0
EndSplineSet
EndChar

StartChar: eight
Encoding: 56 56 10
Width: 530
VWidth: 1155
Flags: HMW
LayerCount: 2
Fore
SplineSet
205 490 m 0
 205 416 236 385 285 385 c 0
 374 385 425 496 425 570 c 0
 425 644 394 675 345 675 c 0
 256 675 205 564 205 490 c 0
105 490 m 0
 105 600 204 720 345 720 c 0
 446 720 525 680 525 570 c 0
 525 503 488 438 428 397 c 0
 401 379 378 378 378 372 c 0
 378 369 386 363 406 353 c 0
 446 333 470 296 470 240 c 0
 470 100 356 -10 195 -10 c 0
 74 -10 10 40 10 140 c 0
 10 235 58 303 142 341 c 0
 168 353 179 357 179 362 c 0
 179 366 170 371 153 384 c 0
 124 406 105 437 105 490 c 0
110 140 m 0
 110 86 126 35 195 35 c 0
 304 35 370 126 370 240 c 0
 370 294 344 345 285 345 c 0
 166 345 110 254 110 140 c 0
EndSplineSet
EndChar

StartChar: nine
Encoding: 57 57 11
Width: 530
VWidth: 1155
Flags: HMW
LayerCount: 2
Fore
SplineSet
405 340 m 0
 405 431 384 520 316 520 c 0
 197 520 125 374 125 270 c 0
 125 196 142 149 191 149 c 0
 294 149 405 260 405 340 c 0
365 184 m 0
 319 135 254 100 179 100 c 0
 98 100 25 140 25 270 c 0
 25 410 155 570 316 570 c 0
 437 570 495 490 495 340 c 0
 495 90 322 -160 141 -160 c 0
 59 -160 -5 -133 -5 -51 c 0
 -5 -3 30 25 59 25 c 0
 86 25 116 4 116 -33 c 0
 116 -69 92 -78 92 -91 c 0
 92 -104 97 -118 136 -118 c 0
 234 -118 338 14 383 175 c 0
 387 188 389 197 389 201 c 0
 389 204 388 204 387 204 c 0
 384 204 375 195 365 184 c 0
EndSplineSet
EndChar

StartChar: A
Encoding: 65 65 12
Width: 900
Flags: HMW
LayerCount: 2
Fore
SplineSet
587 704 m 2
 703 92 l 2
 709 61 705 55 744 55 c 2
 778 55 l 2
 785 55 791 56 796 56 c 0
 805 56 810 53 810 40 c 2
 810 30 l 2
 810 2 808 0 774 0 c 2
 544 0 l 2
 532 0 522 -2 513 -2 c 0
 499 -2 490 3 490 24 c 0
 490 27 490 30 490 33 c 0
 490 53 492 55 518 55 c 2
 566 55 l 2
 592 55 600 56 600 69 c 0
 600 74 599 81 597 90 c 2
 581 188 l 2
 575 219 572 220 540 220 c 2
 288 220 l 2
 245 220 236 220 220 194 c 2
 162 100 l 2
 154 88 139 73 139 64 c 0
 139 59 144 55 160 55 c 2
 212 55 l 2
 228 55 230 53 230 30 c 2
 230 18 l 2
 230 3 228 0 206 0 c 2
 -23 -0 l 2
 -49 0 -50 1 -50 30 c 2
 -50 43 l 2
 -50 52 -48 55 -32 55 c 2
 20 55 l 2
 72 55 71 74 90 104 c 2
 477 720 l 2
 501 759 499 765 527 765 c 2
 549 765 l 2
 582 765 578 749 587 704 c 2
484 618 m 2
 286 300 l 2
 280 290 276 285 276 281 c 0
 276 276 284 275 300 275 c 0
 380 275 460 275 540 275 c 0
 560 275 565 282 565 292 c 0
 565 303 560 317 557 332 c 2
 510 616 l 2
 507 636 505 644 502 644 c 0
 498 644 493 633 484 618 c 2
EndSplineSet
EndChar

StartChar: B
Encoding: 66 66 13
Width: 742
Flags: HMW
LayerCount: 2
Fore
SplineSet
317 415 m 2
 432 415 l 2
 508 415 622 466 622 575 c 0
 622 644 588 695 512 695 c 2
 358 695 l 2
 322 695 320 695 314 666 c 2
 272 470 l 2
 269 454 266 442 266 434 c 0
 266 416 278 415 317 415 c 2
362 55 m 0
 528 55 572 161 572 230 c 0
 572 309 528 360 442 360 c 2
 300 360 l 2
 256 360 248 357 238 310 c 2
 193 98 l 2
 191 86 189 77 189 71 c 0
 189 56 197 55 220 55 c 0
 267 55 315 55 362 55 c 0
372 0 m 2
 -14 0 l 2
 -38 0 -40 3 -40 20 c 2
 -40 32 l 2
 -40 53 -37 55 -22 55 c 0
 1 55 23 55 46 55 c 0
 99 55 90 85 99 126 c 2
 211 650 l 2
 214 663 219 674 219 682 c 0
 219 690 214 695 196 695 c 2
 114 695 l 2
 100 695 97 701 97 711 c 0
 97 717 98 724 98 732 c 0
 98 748 102 750 111 750 c 0
 245 750 378 750 512 750 c 0
 663 750 722 655 722 575 c 0
 722 489 673 444 601 411 c 0
 572 398 558 392 558 386 c 0
 558 381 570 376 595 365 c 0
 652 341 682 297 682 230 c 0
 682 110 613 0 372 0 c 2
EndSplineSet
EndChar

StartChar: C
Encoding: 67 67 14
Width: 797
Flags: HMW
LayerCount: 2
Fore
SplineSet
705 224 m 0
 650 106 531 -10 345 -10 c 0
 172 -10 45 95 45 305 c 0
 45 516 227 760 485 760 c 0
 567 760 627 741 670 711 c 0
 699 691 708 673 718 673 c 0
 726 673 734 683 749 710 c 0
 758 725 762 750 786 750 c 2
 806 750 l 2
 822 750 826 745 826 738 c 0
 826 731 821 721 819 710 c 2
 781 534 l 2
 775 507 781 495 746 495 c 0
 724 495 720 496 720 506 c 0
 720 510 721 516 721 524 c 0
 721 627 624 699 493 699 c 0
 282 699 160 480 160 305 c 0
 160 143 229 53 363 53 c 0
 482 53 572 127 627 214 c 0
 646 244 652 275 682 275 c 2
 703 275 l 2
 718 275 723 270 723 263 c 0
 723 252 711 237 705 224 c 0
EndSplineSet
EndChar

StartChar: D
Encoding: 68 68 15
Width: 818
Flags: HMW
LayerCount: 2
Fore
SplineSet
246 55 m 2
 323 55 l 2
 507 55 658 243 658 485 c 0
 658 597 637 695 473 695 c 2
 381 695 l 2
 366 695 354 696 343 696 c 0
 323 696 311 692 306 668 c 2
 190 125 l 2
 185 102 181 86 181 76 c 0
 181 57 195 55 246 55 c 2
323 0 m 2
 3 0 l 2
 -6 0 -14 -1 -20 -1 c 0
 -35 -1 -40 3 -40 29 c 0
 -40 54 -41 55 -15 55 c 2
 39 55 l 2
 86 55 78 74 86 110 c 2
 205 665 l 2
 207 674 208 681 208 685 c 0
 208 694 202 695 177 695 c 2
 117 695 l 2
 99 695 97 699 97 709 c 2
 97 725 l 2
 97 747 106 751 120 751 c 0
 128 751 138 750 150 750 c 2
 473 750 l 2
 706 750 773 598 773 465 c 0
 773 192 546 0 323 0 c 2
EndSplineSet
EndChar

StartChar: E
Encoding: 69 69 16
Width: 729
Flags: HMW
LayerCount: 2
Fore
SplineSet
243 329 m 2
 190 95 l 2
 187 82 184 73 184 67 c 0
 184 56 194 55 225 55 c 2
 398 55 l 2
 524 55 579 91 618 219 c 0
 625 240 620 255 651 255 c 0
 670 255 676 250 676 242 c 0
 676 233 669 221 666 206 c 2
 631 56 l 2
 619 3 618 0 552 0 c 2
 42 0 l 2
 29 0 11 -3 -4 -3 c 0
 -24 -3 -40 2 -40 20 c 2
 -40 25 l 2
 -40 54 -39 55 -6 55 c 2
 51 55 l 2
 91 55 85 74 92 104 c 2
 219 668 l 2
 221 676 222 682 222 686 c 0
 222 694 217 695 204 695 c 2
 127 695 l 2
 105 695 104 696 104 722 c 0
 104 747 109 750 124 750 c 2
 712 750 l 2
 751 750 762 750 762 732 c 0
 762 724 760 712 756 695 c 2
 732 590 l 2
 717 526 721 515 684 515 c 0
 673 515 669 521 669 531 c 0
 669 544 675 562 676 578 c 0
 676 585 677 592 677 598 c 0
 677 670 644 695 555 695 c 2
 360 695 l 2
 317 695 322 683 315 650 c 2
 274 467 l 2
 270 448 263 434 263 424 c 0
 263 413 271 408 300 408 c 2
 333 408 l 2
 389 408 429 429 456 461 c 0
 473 481 475 523 510 523 c 0
 526 523 531 517 531 508 c 0
 531 497 523 481 520 467 c 2
 477 287 l 2
 472 267 477 248 450 248 c 0
 430 248 425 252 425 260 c 0
 425 267 428 276 428 288 c 0
 428 336 402 368 333 368 c 2
 291 368 l 2
 248 368 251 363 243 329 c 2
EndSplineSet
EndChar

StartChar: F
Encoding: 70 70 17
Width: 719
Flags: HMW
LayerCount: 2
Fore
SplineSet
240 316 m 2
 190 98 l 2
 187 84 183 75 183 68 c 0
 183 58 191 55 218 55 c 2
 258 55 l 2
 267 55 275 56 281 56 c 0
 291 56 297 53 297 36 c 2
 297 31 l 2
 297 1 296 0 262 0 c 2
 -6 0 l 2
 -14 0 -20 -1 -25 -1 c 0
 -36 -1 -40 2 -40 20 c 2
 -40 35 l 2
 -40 52 -38 55 -12 55 c 2
 56 55 l 2
 93 55 88 86 94 114 c 2
 217 658 l 2
 220 670 223 679 223 685 c 0
 223 692 218 695 198 695 c 2
 130 695 l 2
 106 695 104 697 104 715 c 0
 104 718 104 721 104 724 c 0
 104 748 107 750 123 750 c 2
 749 750 l 2
 761 750 765 749 765 740 c 0
 765 736 765 731 763 724 c 2
 730 580 l 2
 724 554 728 515 694 515 c 0
 675 515 670 524 670 537 c 0
 670 546 672 557 674 568 c 0
 676 581 676 592 676 603 c 0
 676 671 642 695 555 695 c 2
 356 695 l 2
 324 695 325 692 319 666 c 2
 268 442 l 2
 265 427 261 418 261 411 c 0
 261 401 268 398 296 398 c 2
 333 398 l 2
 404 398 449 430 474 478 c 0
 483 496 479 513 508 513 c 0
 526 513 531 508 531 500 c 0
 531 491 525 479 522 466 c 2
 479 276 l 2
 473 250 479 228 444 228 c 0
 428 228 424 232 424 239 c 0
 424 246 428 255 428 266 c 0
 428 314 403 348 333 348 c 2
 282 348 l 2
 245 348 247 345 240 316 c 2
EndSplineSet
EndChar

StartChar: G
Encoding: 71 71 18
Width: 867
Flags: HMW
LayerCount: 2
Fore
SplineSet
538 370 m 2
 831 370 l 2
 844 370 847 368 847 347 c 0
 847 338 848 331 848 325 c 0
 848 311 844 305 820 305 c 2
 753 305 l 2
 739 305 734 303 729 287 c 2
 711 223 l 2
 699 181 690 159 664 128 c 0
 607 62 501 -10 354 -10 c 0
 176 -10 45 92 45 305 c 0
 45 516 227 760 485 760 c 0
 584 760 650 732 694 691 c 0
 708 677 715 670 720 670 c 0
 726 670 731 680 743 701 c 0
 757 726 759 750 800 750 c 0
 819 750 824 749 824 742 c 0
 824 738 823 732 821 723 c 2
 780 531 l 2
 774 504 779 495 744 495 c 0
 722 495 720 495 720 506 c 2
 720 524 l 2
 720 626 624 699 493 699 c 0
 282 699 160 480 160 305 c 0
 160 153 226 47 355 47 c 0
 440 47 498 71 550 114 c 0
 573 133 584 145 594 179 c 2
 621 275 l 2
 624 286 627 292 627 297 c 0
 627 304 621 305 600 305 c 2
 560 305 l 2
 551 305 543 304 536 304 c 0
 524 304 517 307 517 327 c 0
 517 336 516 344 516 351 c 0
 516 363 519 370 538 370 c 2
EndSplineSet
EndChar

StartChar: H
Encoding: 72 72 19
Width: 897
Flags: HMW
LayerCount: 2
Fore
SplineSet
283 -0 m 2
 -24 0 l 2
 -41 0 -40 1 -40 18 c 2
 -40 36 l 2
 -40 53 -37 55 -25 55 c 0
 0 55 25 55 50 55 c 0
 90 55 84 65 91 96 c 2
 212 662 l 2
 214 672 215 679 215 684 c 0
 215 695 208 695 184 695 c 2
 119 695 l 2
 100 695 97 697 97 724 c 0
 97 750 98 750 124 750 c 2
 402 750 l 2
 410 750 416 751 421 751 c 0
 433 751 437 748 437 728 c 2
 437 715 l 2
 437 697 435 695 410 695 c 2
 346 695 l 2
 317 695 319 691 314 668 c 2
 268 456 l 2
 265 443 262 433 262 427 c 0
 262 418 268 415 292 415 c 2
 618 415 l 2
 654 415 655 416 661 446 c 2
 708 666 l 2
 710 676 712 682 712 686 c 0
 712 694 706 695 684 695 c 2
 632 695 l 2
 624 695 618 694 613 694 c 0
 601 694 597 697 597 718 c 0
 597 725 596 731 596 736 c 0
 596 746 599 750 616 750 c 2
 917 750 l 2
 935 750 937 748 937 722 c 0
 937 697 935 695 917 695 c 2
 836 695 l 2
 823 695 814 693 811 680 c 2
 686 94 l 2
 684 83 679 73 679 66 c 0
 679 59 684 55 700 55 c 2
 775 55 l 2
 796 55 800 52 800 20 c 0
 800 2 797 0 785 -0 c 0
 683 0 582 0 480 0 c 0
 461 0 460 3 460 16 c 2
 460 24 l 2
 460 55 461 55 492 55 c 2
 544 55 l 2
 583 55 579 63 586 94 c 2
 636 328 l 2
 638 336 639 342 639 347 c 0
 639 358 633 360 617 360 c 2
 268 360 l 2
 253 360 248 358 244 340 c 2
 188 78 l 2
 187 73 186 68 186 65 c 0
 186 56 191 54 201 54 c 0
 207 54 215 55 224 55 c 2
 274 55 l 2
 298 55 300 52 300 35 c 2
 300 22 l 2
 300 1 298 0 283 -0 c 2
EndSplineSet
EndChar

StartChar: I
Encoding: 73 73 20
Width: 398
Flags: HMW
LayerCount: 2
Fore
SplineSet
268 0 m 2
 -10 0 l 2
 -39 0 -40 1 -40 27 c 2
 -40 32 l 2
 -40 54 -39 55 -23 55 c 2
 48 55 l 2
 83 55 84 56 90 84 c 2
 218 666 l 2
 220 676 222 683 222 687 c 0
 222 694 217 695 196 695 c 2
 125 695 l 2
 112 695 108 697 108 718 c 0
 108 750 108 750 140 750 c 2
 412 750 l 2
 438 750 438 750 438 724 c 2
 438 719 l 2
 438 696 437 695 410 695 c 2
 358 695 l 2
 324 695 325 693 319 666 c 2
 198 116 l 2
 195 101 186 83 186 71 c 0
 186 61 192 55 210 55 c 2
 276 55 l 2
 297 55 300 51 300 38 c 2
 300 18 l 2
 300 2 295 -1 286 -1 c 0
 281 -1 275 0 268 0 c 2
EndSplineSet
EndChar

StartChar: J
Encoding: 74 74 21
Width: 596
Flags: HMW
LayerCount: 2
Fore
SplineSet
402 695 m 2
 322 695 l 2
 303 695 301 696 301 709 c 2
 301 730 l 2
 301 748 302 750 326 750 c 2
 634 750 l 2
 654 750 656 747 656 734 c 2
 656 719 l 2
 656 696 654 695 637 695 c 2
 564 695 l 2
 526 695 527 691 520 661 c 2
 437 315 l 2
 430 287 423 259 415 233 c 0
 370 92 276 -10 146 -10 c 0
 9 -10 -30 75 -30 145 c 0
 -30 207 9 240 49 240 c 0
 84 240 113 217 113 181 c 0
 113 122 69 138 69 96 c 0
 69 79 84 45 146 45 c 0
 209 45 276 94 313 197 c 0
 323 227 331 262 338 295 c 2
 422 665 l 2
 424 675 426 681 426 686 c 0
 426 693 421 695 402 695 c 2
EndSplineSet
EndChar

StartChar: K
Encoding: 75 75 22
Width: 864
Flags: HMW
LayerCount: 2
Fore
SplineSet
763 -0 m 2
 661 0 l 2
 439 0 531 220 417 341 c 0
 404 354 393 368 379 368 c 0
 373 368 367 366 360 360 c 2
 258 271 l 2
 230 246 213 236 203 191 c 2
 180 87 l 2
 178 78 177 71 177 66 c 0
 177 55 184 55 208 55 c 2
 252 55 l 2
 268 55 271 50 271 41 c 0
 271 36 270 30 270 23 c 0
 270 2 266 0 253 -0 c 0
 165 0 76 0 -12 0 c 0
 -38 0 -40 2 -40 20 c 2
 -40 33 l 2
 -40 53 -38 55 -25 55 c 0
 1 55 28 55 54 55 c 0
 83 55 78 77 83 99 c 2
 210 675 l 2
 211 680 212 684 212 687 c 0
 212 694 207 695 198 695 c 2
 135 695 l 2
 117 695 115 697 115 723 c 2
 115 728 l 2
 115 749 116 750 140 750 c 2
 400 750 l 2
 416 750 425 748 425 731 c 2
 425 718 l 2
 425 697 423 695 394 695 c 2
 332 695 l 2
 310 695 313 690 309 673 c 2
 246 387 l 2
 241 363 237 347 237 340 c 0
 237 337 237 336 239 336 c 0
 243 336 253 344 270 359 c 2
 622 670 l 2
 634 680 643 686 643 690 c 0
 643 694 633 695 608 695 c 2
 576 695 l 2
 553 695 552 697 552 714 c 0
 552 717 552 720 552 723 c 0
 552 748 555 750 571 750 c 2
 832 750 l 2
 850 750 854 748 854 721 c 0
 854 718 854 715 854 712 c 0
 854 697 853 695 832 695 c 0
 803 695 773 695 744 695 c 1
 650 613 556 531 462 449 c 0
 443 432 432 425 432 418 c 0
 432 412 441 406 461 393 c 0
 630 283 570 55 687 55 c 2
 744 55 l 2
 754 55 762 56 768 56 c 0
 780 56 786 52 786 31 c 0
 786 2 784 0 763 -0 c 2
EndSplineSet
EndChar

StartChar: L
Encoding: 76 76 23
Width: 716
Flags: HMW
LayerCount: 2
Fore
SplineSet
566 -0 m 2
 -21 -0 l 2
 -35 0 -40 3 -40 25 c 0
 -40 55 -40 55 -10 55 c 2
 26 55 l 2
 88 55 86 61 97 111 c 2
 217 673 l 2
 218 679 219 684 219 687 c 0
 219 694 215 695 204 695 c 0
 182 695 160 695 138 695 c 0
 105 695 104 696 104 726 c 2
 104 731 l 2
 104 748 113 750 127 750 c 0
 219 750 312 750 404 750 c 0
 412 750 418 751 423 751 c 0
 435 751 440 748 440 727 c 0
 440 696 439 695 411 695 c 2
 321 695 l 1
 281 503 240 312 199 121 c 0
 194 100 188 85 188 74 c 0
 188 61 198 55 232 55 c 2
 386 55 l 2
 506 55 561 88 600 201 c 0
 607 223 608 255 638 255 c 0
 658 255 664 250 664 241 c 0
 664 232 658 218 654 203 c 2
 614 35 l 2
 606 2 601 0 566 -0 c 2
EndSplineSet
EndChar

StartChar: M
Encoding: 77 77 24
Width: 1023
Flags: HMW
LayerCount: 2
Fore
SplineSet
793 621 m 2
 471 33 l 2
 455 3 457 -10 408 -10 c 0
 369 -10 376 9 372 41 c 2
 298 617 l 2
 294 653 292 669 289 669 c 0
 286 669 282 652 274 619 c 2
 146 103 l 2
 142 87 138 75 138 68 c 0
 138 58 146 55 176 55 c 2
 209 55 l 2
 242 55 250 52 250 23 c 0
 250 2 245 -1 233 -1 c 0
 228 -1 222 0 214 0 c 2
 -22 0 l 2
 -48 0 -50 2 -50 20 c 2
 -50 33 l 2
 -50 54 -49 55 -31 55 c 0
 -11 55 10 55 30 55 c 0
 74 55 69 65 78 99 c 2
 222 669 l 2
 223 674 224 679 224 682 c 0
 224 694 216 697 203 697 c 0
 192 697 178 695 162 695 c 0
 152 695 144 694 137 694 c 0
 124 694 117 698 117 719 c 0
 117 748 120 750 141 750 c 0
 203 750 266 750 328 750 c 0
 381 750 374 738 379 693 c 2
 437 189 l 2
 442 146 446 129 451 129 c 0
 457 129 466 152 483 183 c 2
 749 675 l 2
 772 717 770 750 838 750 c 2
 995 750 l 2
 1018 750 1033 749 1033 727 c 0
 1033 699 1024 694 1006 694 c 0
 997 694 986 695 972 695 c 0
 906 695 912 684 902 629 c 2
 809 93 l 2
 807 81 805 74 805 68 c 0
 805 57 812 55 840 55 c 2
 902 55 l 2
 930 55 931 53 931 28 c 2
 931 23 l 2
 931 2 926 -1 914 -1 c 0
 909 -1 902 0 894 0 c 2
 646 0 l 2
 634 0 623 -1 615 -1 c 0
 599 -1 591 3 591 29 c 0
 591 52 606 55 638 55 c 2
 674 55 l 2
 718 55 714 63 721 99 c 2
 814 617 l 2
 819 644 821 659 821 665 c 0
 821 667 821 668 820 668 c 0
 817 668 808 648 793 621 c 2
EndSplineSet
EndChar

StartChar: N
Encoding: 78 78 25
Width: 898
Flags: HMW
LayerCount: 2
Fore
SplineSet
643 711 m 2
 643 725 l 2
 643 749 644 750 671 750 c 2
 922 750 l 2
 936 750 938 748 938 728 c 2
 938 713 l 2
 938 698 936 695 912 695 c 2
 853 695 l 2
 818 695 818 693 812 664 c 2
 674 8 l 2
 671 -7 673 -10 654 -10 c 0
 637 -10 638 -6 632 4 c 2
 310 573 l 2
 290 608 280 633 272 633 c 0
 265 633 260 615 250 570 c 2
 154 124 l 2
 150 105 142 88 142 75 c 0
 142 63 149 55 175 55 c 2
 238 55 l 2
 256 55 260 53 260 25 c 0
 260 3 257 0 243 -0 c 0
 156 0 70 0 -17 0 c 0
 -40 0 -40 0 -40 23 c 2
 -40 46 l 2
 -40 59 -30 55 -18 55 c 2
 37 55 l 2
 76 55 77 56 84 88 c 2
 200 633 l 2
 203 649 207 663 207 674 c 0
 207 687 202 695 181 695 c 2
 140 695 l 2
 122 695 120 696 120 720 c 0
 120 747 126 751 142 751 c 0
 149 751 157 750 167 750 c 2
 299 750 l 2
 340 750 338 739 352 714 c 2
 611 234 l 2
 627 204 635 189 641 189 c 0
 647 189 651 208 660 250 c 2
 749 674 l 2
 750 680 751 685 751 688 c 0
 751 695 747 695 735 695 c 0
 712 695 688 695 665 695 c 0
 644 695 643 696 643 711 c 2
EndSplineSet
EndChar

StartChar: O
Encoding: 79 79 26
Width: 830
Flags: HMW
LayerCount: 2
Fore
SplineSet
345 -10 m 0
 152 -10 45 107 45 300 c 0
 45 533 242 760 485 760 c 0
 678 760 785 643 785 450 c 0
 785 217 588 -10 345 -10 c 0
485 710 m 0
 291 710 160 477 160 305 c 0
 160 153 201 40 345 40 c 0
 539 40 670 273 670 445 c 0
 670 597 629 710 485 710 c 0
EndSplineSet
EndChar

StartChar: P
Encoding: 80 80 27
Width: 687
Flags: HMW
LayerCount: 2
Fore
SplineSet
219 267 m 2
 186 111 l 2
 182 94 176 80 176 71 c 0
 176 61 183 55 209 55 c 0
 236 55 255 58 268 58 c 0
 284 58 290 53 290 33 c 0
 290 0 290 0 257 0 c 2
 -23 -0 l 2
 -36 0 -40 3 -40 24 c 0
 -40 52 -37 55 -17 55 c 0
 0 55 17 55 34 55 c 0
 82 55 81 89 89 126 c 2
 198 639 l 2
 202 657 205 669 205 677 c 0
 205 695 192 695 146 695 c 2
 141 695 l 2
 111 695 110 696 110 729 c 0
 110 748 118 752 131 752 c 0
 139 752 150 750 161 750 c 2
 467 750 l 2
 648 750 687 670 687 580 c 0
 687 410 558 330 377 330 c 2
 275 330 l 2
 220 330 228 310 219 267 c 2
293 385 m 2
 377 385 l 2
 473 385 577 451 577 580 c 0
 577 629 563 695 467 695 c 2
 386 695 l 2
 371 695 358 696 348 696 c 0
 321 696 309 691 302 657 c 2
 255 435 l 2
 252 419 248 407 248 400 c 0
 248 387 258 385 293 385 c 2
EndSplineSet
EndChar

StartChar: Q
Encoding: 81 81 28
Width: 830
Flags: HMW
LayerCount: 2
Fore
SplineSet
485 760 m 0
 678 760 785 643 785 450 c 0
 785 217 588 -10 345 -10 c 0
 152 -10 45 107 45 300 c 0
 45 533 242 760 485 760 c 0
345 40 m 0
 539 40 670 273 670 445 c 0
 670 597 629 710 485 710 c 0
 291 710 160 477 160 305 c 0
 160 153 201 40 345 40 c 0
634 -108 m 0
 634 -203 559 -250 480 -250 c 0
 330 -250 300 -73 213 -73 c 0
 182 -73 171 -89 171 -106 c 0
 171 -131 201 -136 201 -172 c 0
 201 -209 171 -230 144 -230 c 0
 107 -230 80 -202 80 -164 c 0
 80 -79 160 -27 239 -27 c 0
 379 -27 434 -204 501 -204 c 0
 533 -204 543 -186 543 -169 c 0
 543 -141 513 -141 513 -105 c 0
 513 -68 546 -47 573 -47 c 0
 610 -47 634 -74 634 -108 c 0
EndSplineSet
EndChar

StartChar: R
Encoding: 82 82 29
Width: 774
Flags: HMW
LayerCount: 2
Fore
SplineSet
309 405 m 2
 419 405 l 2
 495 405 609 471 609 580 c 0
 609 649 575 695 489 695 c 2
 354 695 l 2
 305 695 308 687 300 648 c 2
 261 465 l 2
 257 446 253 433 253 424 c 0
 253 408 265 405 309 405 c 2
697 97 m 0
 706 97 722 85 722 78 c 0
 722 73 718 67 714 58 c 0
 694 17 654 -10 599 -10 c 0
 515 -10 494 32 494 87 c 0
 494 137 512 198 512 248 c 0
 512 303 492 345 409 345 c 2
 281 345 l 2
 239 345 236 344 227 306 c 2
 185 108 l 2
 182 92 176 79 176 70 c 0
 176 60 183 55 207 55 c 2
 273 55 l 2
 288 55 290 54 290 33 c 2
 290 16 l 2
 290 4 288 0 267 0 c 2
 -13 -0 l 2
 -36 0 -40 3 -40 36 c 0
 -40 53 -37 55 -26 55 c 0
 -4 55 17 55 39 55 c 0
 82 55 77 68 84 102 c 2
 203 663 l 2
 205 674 208 681 208 686 c 0
 208 694 202 695 180 695 c 2
 132 695 l 2
 114 695 110 698 110 726 c 0
 110 747 115 751 128 751 c 0
 134 751 141 750 150 750 c 2
 489 750 l 2
 660 750 709 670 709 580 c 0
 709 500 665 414 573 393 c 0
 546 387 534 385 534 380 c 0
 534 375 549 365 574 345 c 0
 601 323 615 291 615 256 c 0
 615 200 594 136 594 99 c 0
 594 77 608 59 631 59 c 0
 646 59 665 63 680 79 c 0
 689 89 690 97 697 97 c 0
EndSplineSet
Substitution2: "'ss01' Style Set 1 lookup 2-1" uniFFFD
EndChar

StartChar: S
Encoding: 83 83 30
Width: 649
Flags: HMW
LayerCount: 2
Fore
SplineSet
87 246 m 0
 87 230 83 211 83 196 c 0
 83 75 191 39 292 39 c 0
 467 39 492 141 492 200 c 0
 492 401 115 328 115 548 c 0
 115 698 278 765 392 765 c 0
 455 765 505 748 544 718 c 0
 563 703 569 691 577 691 c 0
 583 691 589 697 600 714 c 0
 613 734 614 750 649 750 c 0
 670 750 677 750 677 742 c 0
 677 738 675 732 673 723 c 2
 636 546 l 2
 630 518 635 505 598 505 c 0
 574 505 569 509 569 519 c 0
 569 526 572 537 572 551 c 0
 572 643 504 709 388 709 c 0
 289 709 212 652 212 570 c 0
 212 409 592 475 592 225 c 0
 592 75 473 -15 292 -15 c 0
 207 -15 149 4 112 34 c 0
 94 48 89 66 81 66 c 0
 77 66 72 61 64 49 c 2
 45 19 l 2
 35 2 35 -5 6 -5 c 2
 -11 -5 l 2
 -22 -5 -27 -4 -27 3 c 0
 -27 6 -26 11 -24 18 c 2
 30 237 l 2
 34 255 36 255 58 255 c 2
 74 255 l 2
 83 255 87 254 87 246 c 0
EndSplineSet
EndChar

StartChar: T
Encoding: 84 84 31
Width: 739
Flags: HMW
LayerCount: 2
Fore
SplineSet
475 669 m 2
 360 129 l 2
 356 107 347 89 347 76 c 0
 347 63 356 55 387 55 c 2
 441 55 l 2
 464 55 466 53 466 24 c 0
 466 0 465 0 441 0 c 2
 136 -0 l 2
 124 0 121 2 121 21 c 0
 121 52 124 55 146 55 c 0
 168 55 191 55 213 55 c 0
 254 55 247 73 254 105 c 2
 367 633 l 2
 370 649 375 665 375 677 c 0
 375 691 369 700 351 700 c 2
 322 700 l 2
 198 700 150 661 112 537 c 0
 105 516 110 495 78 495 c 0
 58 495 52 500 52 508 c 0
 52 516 57 526 60 540 c 2
 101 723 l 2
 107 748 112 750 134 750 c 0
 335 750 537 750 738 750 c 0
 749 750 760 751 768 751 c 0
 779 751 786 749 786 739 c 0
 786 737 786 735 785 732 c 2
 738 531 l 2
 731 501 734 495 696 495 c 0
 685 495 682 501 682 509 c 0
 682 520 688 536 690 546 c 0
 693 568 695 587 695 604 c 0
 695 676 660 700 562 700 c 2
 514 700 l 2
 486 700 481 698 475 669 c 2
EndSplineSet
EndChar

StartChar: U
Encoding: 85 85 32
Width: 832
Flags: HMW
LayerCount: 2
Fore
SplineSet
295 666 m 2
 206 310 l 2
 195 267 188 226 188 190 c 0
 188 105 226 45 341 45 c 0
 495 45 574 128 616 300 c 2
 706 670 l 2
 708 677 709 682 709 686 c 0
 709 694 704 695 690 695 c 2
 618 695 l 2
 598 695 597 696 597 720 c 0
 597 749 598 750 624 750 c 0
 702 750 781 750 859 750 c 0
 880 750 883 745 883 733 c 0
 883 728 882 722 882 714 c 0
 882 697 877 694 867 694 c 0
 862 694 856 695 849 695 c 2
 797 695 l 2
 769 695 771 690 766 668 c 2
 676 300 l 2
 626 97 524 -15 326 -15 c 0
 149 -15 90 67 90 182 c 0
 90 219 96 258 106 300 c 2
 192 652 l 2
 195 665 201 675 201 683 c 0
 201 690 195 695 177 695 c 2
 118 695 l 2
 101 695 97 697 97 724 c 0
 97 749 98 750 120 750 c 2
 393 750 l 2
 412 750 417 747 417 716 c 0
 417 697 413 694 402 694 c 0
 397 694 391 695 383 695 c 2
 333 695 l 2
 306 695 302 693 295 666 c 2
EndSplineSet
EndChar

StartChar: V
Encoding: 86 86 33
Width: 845
Flags: HMW
LayerCount: 2
Fore
SplineSet
412 156 m 2
 727 660 l 2
 733 670 745 681 745 688 c 0
 745 692 740 695 727 695 c 2
 672 695 l 2
 641 695 640 696 640 730 c 0
 640 748 647 751 658 751 c 0
 664 751 672 750 681 750 c 2
 891 750 l 2
 918 750 920 748 920 729 c 2
 920 716 l 2
 920 697 918 695 905 695 c 0
 886 695 866 695 847 695 c 0
 809 695 807 675 793 652 c 2
 404 36 l 2
 378 -6 383 -15 349 -15 c 2
 317 -15 l 2
 297 -15 303 -1 296 34 c 2
 176 666 l 2
 171 694 170 695 137 695 c 2
 95 695 l 2
 73 695 70 699 70 713 c 2
 70 730 l 2
 70 748 75 751 86 751 c 0
 92 751 98 750 107 750 c 2
 359 750 l 2
 387 750 390 746 390 726 c 2
 390 710 l 2
 390 697 386 694 377 694 c 0
 373 694 367 695 361 695 c 2
 317 695 l 2
 288 695 280 694 280 682 c 0
 280 676 282 668 284 656 c 2
 367 150 l 2
 372 121 376 109 381 109 c 0
 388 109 397 132 412 156 c 2
EndSplineSet
EndChar

StartChar: W
Encoding: 87 87 34
Width: 1169
Flags: HMW
LayerCount: 2
Fore
SplineSet
372 168 m 2
 606 558 l 2
 617 577 624 587 624 610 c 0
 624 614 623 619 623 624 c 2
 618 675 l 2
 616 694 614 695 596 695 c 2
 536 695 l 2
 524 695 521 697 521 715 c 0
 521 749 522 750 553 750 c 2
 784 750 l 2
 797 750 801 747 801 725 c 0
 801 698 794 694 778 694 c 0
 771 694 761 695 750 695 c 0
 722 695 716 691 716 678 c 0
 716 672 717 663 718 651 c 2
 760 189 l 2
 763 158 766 147 770 147 c 0
 776 147 783 172 796 195 c 2
 1048 663 l 2
 1055 675 1059 683 1059 688 c 0
 1059 695 1049 695 1024 695 c 2
 993 695 l 2
 976 695 970 698 970 727 c 0
 970 748 974 750 987 750 c 0
 1065 750 1142 750 1220 750 c 0
 1244 750 1244 749 1244 725 c 2
 1244 711 l 2
 1244 699 1242 695 1222 695 c 2
 1152 695 l 2
 1119 695 1121 679 1110 659 c 2
 769 20 l 2
 758 -1 759 -10 724 -10 c 2
 710 -10 l 2
 684 -10 685 -7 683 16 c 2
 640 450 l 2
 637 479 636 494 632 494 c 0
 629 494 624 485 614 468 c 2
 345 18 l 2
 333 -3 333 -10 298 -10 c 0
 257 -10 264 2 259 36 c 2
 173 655 l 2
 168 691 160 695 132 695 c 2
 106 695 l 2
 98 695 92 694 87 694 c 0
 75 694 70 697 70 717 c 0
 70 750 71 750 104 750 c 2
 332 750 l 2
 342 750 351 751 359 751 c 0
 372 751 380 748 380 729 c 2
 380 724 l 2
 380 696 379 695 348 695 c 2
 292 695 l 2
 273 695 268 691 268 683 c 0
 268 677 271 668 272 657 c 2
 333 178 l 2
 337 143 340 129 345 129 c 0
 350 129 358 145 372 168 c 2
EndSplineSet
EndChar

StartChar: X
Encoding: 88 88 35
Width: 870
Flags: HMW
LayerCount: 2
Fore
SplineSet
148 750 m 2
 446 750 l 2
 461 750 465 753 465 737 c 2
 465 717 l 2
 465 696 461 695 443 695 c 0
 418 695 393 695 368 695 c 0
 352 695 347 694 347 690 c 0
 347 687 350 682 355 674 c 2
 463 473 l 2
 469 461 472 456 476 456 c 0
 480 456 484 462 493 470 c 2
 710 683 l 2
 714 687 716 689 716 691 c 0
 716 694 711 695 702 695 c 2
 630 695 l 2
 617 695 615 696 615 714 c 2
 615 738 l 2
 615 748 616 750 630 750 c 2
 904 750 l 2
 918 750 915 746 915 733 c 2
 915 717 l 2
 915 696 914 695 890 695 c 2
 816 695 l 2
 794 695 792 689 781 679 c 2
 537 441 l 2
 521 425 506 417 506 402 c 0
 506 397 508 391 512 383 c 2
 664 100 l 2
 678 75 677 55 718 55 c 2
 771 55 l 2
 788 55 791 49 791 38 c 0
 791 32 790 25 790 17 c 0
 790 2 783 -1 772 -1 c 0
 765 -1 758 0 749 0 c 2
 485 0 l 2
 461 0 460 1 460 19 c 0
 460 22 460 25 460 28 c 0
 460 55 460 55 487 55 c 2
 540 55 l 2
 561 55 569 56 569 61 c 0
 569 65 564 72 558 83 c 2
 445 296 l 2
 434 317 430 328 422 328 c 0
 417 328 410 322 397 310 c 2
 175 90 l 2
 166 81 145 68 145 61 c 0
 145 57 150 55 164 55 c 2
 219 55 l 2
 240 55 240 55 240 34 c 0
 240 27 241 20 241 15 c 0
 241 5 238 0 222 0 c 2
 -47 -0 l 2
 -58 0 -60 2 -60 19 c 2
 -60 35 l 2
 -60 54 -61 55 -42 55 c 2
 24 55 l 2
 73 55 78 72 101 95 c 2
 373 365 l 2
 385 377 390 383 390 391 c 0
 390 397 387 405 380 418 c 2
 240 680 l 2
 233 693 233 695 212 695 c 2
 158 695 l 2
 136 695 135 697 135 713 c 0
 135 716 135 719 135 722 c 0
 135 728 134 734 134 738 c 0
 134 746 136 750 148 750 c 2
EndSplineSet
EndChar

StartChar: Y
Encoding: 89 89 36
Width: 780
Flags: HMW
LayerCount: 2
Fore
SplineSet
92 750 m 2
 330 750 l 2
 341 750 351 751 358 751 c 0
 374 751 380 747 380 720 c 0
 380 698 375 694 362 694 c 0
 356 694 349 695 340 695 c 2
 306 695 l 2
 288 695 280 695 280 688 c 0
 280 686 281 682 283 678 c 2
 400 420 l 2
 408 402 414 394 419 394 c 0
 426 394 434 409 449 426 c 2
 662 678 l 2
 666 682 668 686 668 688 c 0
 668 694 657 695 643 695 c 0
 625 695 608 695 590 695 c 0
 582 695 576 694 571 694 c 0
 560 694 555 697 555 716 c 0
 555 723 554 730 554 735 c 0
 554 745 557 750 574 750 c 2
 840 750 l 2
 853 750 855 748 855 728 c 0
 855 721 856 715 856 710 c 0
 856 700 853 695 838 695 c 2
 784 695 l 2
 756 695 751 692 739 678 c 2
 465 358 l 2
 448 338 439 325 432 292 c 2
 388 102 l 2
 385 88 379 76 379 68 c 0
 379 60 385 55 406 55 c 2
 470 55 l 2
 499 55 499 55 499 26 c 2
 499 12 l 2
 499 3 497 0 482 0 c 2
 168 -0 l 2
 157 0 154 2 154 20 c 0
 154 28 153 34 153 39 c 0
 153 51 156 55 176 55 c 2
 248 55 l 2
 281 55 279 60 285 86 c 2
 329 282 l 2
 332 294 333 303 333 311 c 0
 333 328 327 340 318 360 c 2
 174 668 l 2
 162 693 160 695 122 695 c 2
 92 695 l 2
 72 695 70 697 70 710 c 2
 70 734 l 2
 70 748 72 750 92 750 c 2
EndSplineSet
EndChar

StartChar: Z
Encoding: 90 90 37
Width: 735
Flags: HMW
LayerCount: 2
Fore
SplineSet
197 750 m 2
 714 750 l 2
 730 750 735 748 735 733 c 2
 735 721 l 2
 735 677 721 682 679 640 c 2
 129 98 l 2
 113 82 93 70 93 63 c 0
 93 58 104 55 135 55 c 2
 395 55 l 2
 523 55 578 92 617 225 c 0
 622 241 618 255 641 255 c 0
 643 255 645 255 647 255 c 0
 666 255 672 255 672 246 c 0
 672 242 671 237 669 229 c 2
 622 31 l 2
 615 3 617 0 581 0 c 2
 -12 -0 l 2
 -44 0 -45 1 -45 37 c 0
 -45 62 -35 65 -23 77 c 2
 557 648 l 2
 572 663 590 676 590 684 c 0
 590 691 579 695 545 695 c 2
 355 695 l 2
 240 695 188 664 153 573 c 0
 142 544 149 515 103 515 c 0
 94 515 91 522 91 532 c 0
 91 545 96 561 99 573 c 2
 134 723 l 2
 140 747 149 751 168 751 c 0
 176 751 185 750 197 750 c 2
EndSplineSet
EndChar

StartChar: a
Encoding: 97 97 38
Width: 636
VWidth: 1155
Flags: HMW
LayerCount: 2
Fore
SplineSet
589 124 m 0
 549 45 489 -10 428 -10 c 0
 381 -10 357 13 357 63 c 0
 357 67 357 72 358 77 c 1
 358 82 l 2
 358 85 358 86 357 86 c 0
 353 86 341 68 329 54 c 0
 292 13 243 -10 192 -10 c 0
 103 -10 20 40 20 180 c 0
 20 380 193 529 302 529 c 0
 355 529 390 509 411 475 c 0
 422 458 426 423 432 423 c 0
 434 423 438 429 441 444 c 2
 453 496 l 2
 458 520 459 520 489 520 c 2
 519 520 l 2
 541 520 547 519 547 511 c 0
 547 507 545 500 543 490 c 2
 447 89 l 2
 446 83 445 76 445 71 c 0
 445 60 450 52 463 52 c 0
 492 52 532 95 557 150 c 0
 564 166 566 172 574 172 c 0
 578 172 584 170 593 167 c 0
 600 165 603 160 603 155 c 0
 603 146 594 134 589 124 c 0
408 320 m 0
 408 404 391 478 310 478 c 0
 226 478 120 324 120 180 c 0
 120 96 156 42 220 42 c 0
 311 42 408 206 408 320 c 0
EndSplineSet
EndChar

StartChar: b
Encoding: 98 98 39
Width: 574
VWidth: 1155
Flags: HMW
LayerCount: 2
Fore
SplineSet
115 129 m 0
 115 76 152 42 204 42 c 0
 328 42 424 196 424 330 c 0
 424 414 408 478 354 478 c 0
 278 478 198 405 159 314 c 0
 150 292 144 270 138 245 c 2
 124 183 l 2
 120 165 115 147 115 129 c 0
31 167 m 2
 153 702 l 2
 154 708 155 713 155 716 c 0
 155 724 150 725 139 725 c 2
 121 725 l 2
 112 725 105 724 99 724 c 0
 86 724 81 728 81 750 c 2
 81 766 l 2
 81 776 83 780 101 780 c 2
 248 780 l 2
 255 780 259 779 259 773 c 0
 259 771 258 768 257 764 c 2
 188 461 l 2
 184 443 182 433 182 429 c 0
 182 428 182 427 183 427 c 0
 185 427 193 439 207 454 c 0
 253 503 310 529 367 529 c 0
 456 529 524 470 524 330 c 0
 524 140 371 -10 202 -10 c 0
 104 -10 60 36 31 96 c 0
 26 107 24 117 24 126 c 0
 24 138 27 150 31 167 c 2
EndSplineSet
EndChar

StartChar: c
Encoding: 99 99 40
Width: 540
VWidth: 1155
Flags: HMW
LayerCount: 2
Fore
SplineSet
490 392 m 0
 490 334 451 315 417 315 c 0
 389 315 362 331 362 368 c 0
 362 404 394 414 394 437 c 0
 394 464 381 483 337 483 c 0
 218 483 122 334 122 170 c 0
 122 96 138 39 207 39 c 0
 274 39 334 88 373 138 c 0
 385 153 393 173 418 173 c 2
 434 173 l 2
 442 173 444 170 444 165 c 0
 444 157 437 146 433 140 c 0
 386 63 301 -10 195 -10 c 0
 84 -10 20 40 20 170 c 0
 20 370 176 530 337 530 c 0
 449 530 490 474 490 392 c 0
EndSplineSet
EndChar

StartChar: d
Encoding: 100 100 41
Width: 648
VWidth: 1155
Flags: HMW
LayerCount: 2
Fore
SplineSet
367 63 m 0
 367 72 372 98 372 103 c 2
 372 105 l 1
 370 105 366 97 358 88 c 0
 310 30 247 -10 182 -10 c 0
 93 -10 20 40 20 180 c 0
 20 380 203 529 312 529 c 0
 372 529 407 508 427 471 c 0
 440 447 444 432 447 432 c 0
 450 432 451 445 458 477 c 2
 504 683 l 2
 506 694 512 706 512 714 c 0
 512 721 508 725 495 725 c 2
 443 725 l 2
 432 725 428 727 428 745 c 0
 428 776 435 781 454 781 c 0
 461 781 470 780 481 780 c 2
 585 780 l 2
 609 780 615 777 615 769 c 0
 615 763 612 755 609 743 c 2
 457 89 l 2
 456 83 455 76 455 71 c 0
 455 60 460 52 473 52 c 0
 502 52 541 94 566 147 c 0
 574 163 574 173 584 173 c 0
 587 173 591 172 597 170 c 0
 609 166 613 162 613 157 c 0
 613 151 608 143 603 132 c 0
 563 48 502 -10 438 -10 c 0
 391 -10 367 13 367 63 c 0
418 320 m 0
 418 404 411 478 320 478 c 0
 236 478 120 324 120 180 c 0
 120 96 146 42 210 42 c 0
 301 42 418 206 418 320 c 0
EndSplineSet
EndChar

StartChar: e
Encoding: 101 101 42
Width: 530
VWidth: 1155
Flags: HMW
LayerCount: 2
Fore
SplineSet
404 412 m 0
 404 469 381 483 337 483 c 0
 255 483 175 398 140 286 c 0
 137 276 135 270 135 266 c 0
 135 260 138 258 146 258 c 0
 151 258 158 259 168 260 c 0
 269 270 404 306 404 412 c 0
122 170 m 0
 122 96 148 39 217 39 c 0
 289 39 346 95 382 149 c 0
 393 165 391 173 418 173 c 0
 440 173 447 171 447 166 c 0
 447 161 441 153 434 141 c 0
 389 64 311 -10 205 -10 c 0
 94 -10 20 40 20 170 c 0
 20 370 186 530 337 530 c 0
 449 530 500 494 500 412 c 0
 500 255 282 220 152 213 c 0
 130 212 124 216 123 194 c 0
 123 186 122 178 122 170 c 0
EndSplineSet
EndChar

StartChar: f
Encoding: 102 102 43
Width: 375
VWidth: 1155
Flags: HMW
LayerCount: 2
Fore
SplineSet
459 718 m 0
 459 730 441 745 389 745 c 0
 309 745 270 677 240 550 c 0
 238 540 236 534 236 529 c 0
 236 522 242 520 262 520 c 2
 328 520 l 2
 337 520 345 521 352 521 c 0
 363 521 370 518 370 500 c 2
 370 485 l 2
 370 469 368 465 344 465 c 2
 264 465 l 2
 224 465 223 465 216 432 c 2
 103 -112 l 2
 98 -137 103 -150 70 -150 c 2
 27 -150 l 2
 12 -150 6 -149 6 -141 c 0
 6 -134 11 -121 15 -98 c 2
 123 436 l 2
 124 443 125 448 125 452 c 0
 125 464 119 466 106 466 c 0
 99 466 91 465 80 465 c 0
 77 465 74 465 71 465 c 0
 52 465 50 467 50 492 c 0
 50 517 63 520 77 520 c 0
 82 520 87 520 92 520 c 0
 146 520 138 530 150 572 c 0
 191 712 257 790 387 790 c 0
 488 790 555 736 555 679 c 0
 555 636 531 613 496 613 c 0
 461 613 438 633 438 661 c 0
 438 691 459 698 459 718 c 0
EndSplineSet
EndChar

StartChar: g
Encoding: 103 103 44
Width: 539
VWidth: 1155
Flags: HMW
LayerCount: 2
Fore
SplineSet
73 -31 m 0
 43 -69 30 -116 30 -142 c 0
 30 -188 85 -205 131 -205 c 0
 245 -205 369 -152 369 -67 c 0
 369 -23 345 -9 280 -9 c 2
 176 -9 l 2
 160 -9 144 -8 129 -8 c 0
 126 -8 123 -8 120 -8 c 0
 93 -8 88 -13 73 -31 c 0
155 285 m 0
 155 241 165 200 234 200 c 0
 323 200 383 301 383 405 c 0
 383 439 383 490 314 490 c 0
 225 490 155 389 155 285 c 0
234 160 m 0
 214 160 192 164 175 164 c 0
 163 164 154 161 141 153 c 0
 115 138 95 118 95 96 c 0
 95 69 137 69 192 69 c 0
 217 69 255 70 283 70 c 0
 378 70 440 44 440 -62 c 0
 440 -173 290 -260 120 -260 c 0
 17 -260 -65 -240 -65 -155 c 0
 -65 -106 -33 -62 3 -31 c 0
 26 -11 46 -9 46 -0 c 0
 46 4 42 9 34 17 c 0
 23 28 17 43 17 64 c 0
 17 103 41 137 81 161 c 0
 104 175 115 178 115 182 c 0
 115 186 106 191 91 207 c 0
 71 229 60 258 60 295 c 0
 60 415 183 530 314 530 c 0
 335 530 358 526 375 526 c 0
 386 526 388 531 396 550 c 0
 420 602 450 642 500 642 c 0
 541 642 574 613 574 571 c 0
 574 537 551 516 521 516 c 0
 493 516 473 535 473 560 c 0
 473 578 477 588 470 588 c 0
 456 588 441 569 427 539 c 0
 422 528 419 522 419 517 c 0
 419 511 424 507 434 499 c 0
 463 477 478 442 478 395 c 0
 478 275 365 160 234 160 c 0
EndSplineSet
EndChar

StartChar: h
Encoding: 104 104 45
Width: 618
VWidth: 1155
Flags: HMW
LayerCount: 2
Fore
SplineSet
557 171 m 0
 569 171 585 164 585 155 c 0
 585 147 577 137 572 126 c 0
 532 45 472 -10 410 -10 c 0
 363 -10 339 13 339 63 c 0
 339 68 341 84 343 92 c 2
 407 330 l 1
 418 367 426 400 426 425 c 0
 426 456 414 476 378 476 c 0
 295 476 167 333 140 215 c 2
 97 29 l 2
 91 2 85 0 60 -0 c 0
 48 0 36 0 24 0 c 0
 7 0 2 3 2 10 c 0
 2 16 6 24 8 35 c 2
 157 680 l 2
 160 694 165 705 165 712 c 0
 165 721 158 725 134 725 c 2
 102 725 l 2
 85 725 85 725 85 742 c 2
 85 758 l 2
 85 777 88 780 116 780 c 2
 234 780 l 2
 260 780 267 776 267 767 c 0
 267 760 263 750 260 736 c 2
 192 443 l 2
 186 418 179 396 179 390 c 0
 179 389 179 388 180 388 c 0
 182 388 188 395 200 412 c 0
 255 487 323 529 391 529 c 0
 461 529 508 500 508 419 c 0
 508 397 505 371 497 341 c 2
 431 96 l 2
 428 87 427 76 427 71 c 0
 427 60 432 52 445 52 c 0
 472 52 509 90 534 139 c 0
 543 158 543 171 557 171 c 0
EndSplineSet
EndChar

StartChar: i
Encoding: 105 105 46
Width: 309
VWidth: 1155
Flags: HMW
LayerCount: 2
Fore
SplineSet
267 135 m 0
 227 50 165 -10 101 -10 c 0
 54 -10 30 13 30 63 c 0
 30 68 31 79 32 85 c 2
 113 441 l 2
 115 448 116 453 116 457 c 0
 116 465 110 465 93 465 c 2
 59 465 l 2
 35 465 33 468 33 485 c 2
 33 497 l 2
 33 518 37 520 50 520 c 0
 98 520 147 520 195 520 c 0
 215 520 221 518 221 511 c 0
 221 506 218 498 215 487 c 2
 120 89 l 2
 119 83 118 76 118 71 c 0
 118 60 123 52 136 52 c 0
 165 52 205 95 230 149 c 0
 237 164 237 173 246 173 c 0
 249 173 253 172 259 170 c 0
 272 166 276 162 276 157 c 0
 276 152 272 145 267 135 c 0
146 700 m 0
 146 733 173 760 206 760 c 0
 239 760 266 733 266 700 c 0
 266 667 239 640 206 640 c 0
 173 640 146 667 146 700 c 0
EndSplineSet
EndChar

StartChar: j
Encoding: 106 106 47
Width: 300
VWidth: 1155
Flags: HMW
LayerCount: 2
Fore
SplineSet
131 465 m 2
 103 465 l 2
 74 465 73 466 73 492 c 2
 73 497 l 2
 73 519 74 520 90 520 c 2
 211 520 l 2
 238 520 249 520 249 505 c 0
 249 501 248 497 247 491 c 2
 149 40 l 2
 145 20 140 1 135 -18 c 0
 97 -154 53 -260 -79 -260 c 0
 -168 -260 -200 -205 -200 -143 c 0
 -200 -105 -171 -69 -131 -69 c 0
 -97 -69 -73 -92 -73 -125 c 0
 -73 -160 -102 -167 -102 -187 c 0
 -102 -200 -96 -216 -69 -216 c 0
 12 -216 37 -52 63 64 c 0
 69 90 74 112 80 138 c 2
 143 429 l 2
 145 439 148 447 148 453 c 0
 148 460 144 465 131 465 c 2
180 700 m 0
 180 733 207 760 240 760 c 0
 273 760 300 733 300 700 c 0
 300 667 273 640 240 640 c 0
 207 640 180 667 180 700 c 0
EndSplineSet
EndChar

StartChar: k
Encoding: 107 107 48
Width: 592
VWidth: 1155
Flags: HMW
LayerCount: 2
Fore
SplineSet
520 171 m 0
 533 171 546 163 546 154 c 0
 546 145 538 135 532 123 c 0
 487 31 420 -10 365 -10 c 0
 318 -10 301 13 301 63 c 0
 301 68 302 79 303 85 c 2
 312 160 l 2
 313 168 313 177 313 186 c 0
 313 216 307 248 287 270 c 0
 280 277 279 276 270 272 c 0
 248 264 227 262 212 262 c 0
 197 262 185 264 174 266 c 0
 169 267 165 268 162 268 c 0
 153 268 152 262 147 247 c 1
 97 31 l 2
 92 10 96 0 69 0 c 2
 19 0 l 2
 5 0 1 3 1 9 c 0
 1 15 6 23 8 33 c 2
 160 695 l 2
 162 705 165 712 165 717 c 0
 165 723 160 725 142 725 c 2
 118 725 l 2
 93 725 90 730 90 745 c 2
 90 765 l 2
 90 778 96 781 105 781 c 0
 111 781 118 780 126 780 c 2
 250 780 l 2
 264 780 269 777 269 772 c 0
 269 767 265 760 263 751 c 2
 172 357 l 2
 168 339 165 329 165 325 c 0
 165 323 165 322 167 322 c 0
 170 322 178 327 192 332 c 0
 211 339 227 339 236 339 c 0
 248 339 262 337 276 333 c 0
 288 329 288 330 295 340 c 0
 304 353 312 370 318 392 c 0
 343 480 398 530 458 530 c 0
 519 530 552 491 552 439 c 0
 552 405 529 384 499 384 c 0
 471 384 451 403 451 428 c 0
 451 460 470 462 470 478 c 0
 470 488 463 490 451 490 c 0
 416 490 378 455 355 370 c 0
 350 352 343 337 335 324 c 0
 325 309 323 311 337 300 c 0
 372 271 400 225 400 162 c 0
 400 155 400 148 399 141 c 2
 392 77 l 2
 391 75 391 71 391 69 c 0
 391 58 398 52 411 52 c 0
 425 52 463 77 492 132 c 0
 502 151 502 171 520 171 c 0
EndSplineSet
EndChar

StartChar: l
Encoding: 108 108 49
Width: 299
VWidth: 1155
Flags: HMW
LayerCount: 2
Fore
SplineSet
241 172 m 0
 255 172 265 160 265 153 c 0
 265 144 257 133 250 120 c 0
 210 43 151 -10 91 -10 c 0
 44 -10 20 13 20 63 c 0
 20 68 21 79 22 85 c 2
 153 696 l 2
 155 706 157 712 157 716 c 0
 157 723 152 725 132 725 c 2
 92 725 l 2
 75 725 73 728 73 738 c 2
 73 752 l 2
 73 778 77 780 94 780 c 2
 235 780 l 2
 253 780 259 779 259 770 c 0
 259 766 258 759 256 750 c 2
 110 89 l 2
 109 83 108 76 108 71 c 0
 108 60 113 52 126 52 c 0
 151 52 183 85 209 128 c 0
 224 153 228 172 241 172 c 0
EndSplineSet
EndChar

StartChar: m
Encoding: 109 109 50
Width: 880
VWidth: 1155
Flags: HMW
LayerCount: 2
Fore
SplineSet
818 172 m 0
 832 172 846 163 846 154 c 0
 846 144 836 130 829 116 c 0
 789 41 731 -10 672 -10 c 0
 625 -10 601 13 601 63 c 0
 601 68 603 84 605 92 c 2
 661 300 l 2
 667 322 673 346 679 368 c 0
 688 400 697 428 697 447 c 0
 697 467 687 478 660 478 c 0
 576 478 493 323 453 186 c 0
 447 162 440 138 434 114 c 2
 414 30 l 2
 408 5 410 0 378 0 c 2
 344 0 l 2
 324 0 319 4 319 12 c 0
 319 19 324 29 327 42 c 2
 390 294 l 2
 400 333 416 395 416 434 c 0
 416 461 407 478 378 478 c 0
 301 478 217 349 171 222 c 0
 159 188 151 156 143 120 c 2
 127 51 l 2
 121 24 126 0 90 0 c 2
 63 0 l 2
 36 0 28 4 28 14 c 0
 28 22 33 34 37 51 c 2
 125 432 l 2
 127 443 129 450 129 455 c 0
 129 464 122 465 96 465 c 2
 72 465 l 2
 52 465 50 467 50 480 c 2
 50 495 l 2
 50 518 53 520 69 520 c 0
 112 520 155 520 198 520 c 0
 224 520 232 520 232 510 c 0
 232 505 230 499 228 489 c 2
 212 420 l 2
 206 394 203 380 203 376 c 2
 203 374 l 1
 205 374 213 388 228 411 c 0
 275 481 332 529 391 529 c 0
 462 529 495 499 495 432 c 0
 495 427 494 422 494 417 c 0
 493 398 492 386 492 381 c 0
 492 379 493 378 493 378 c 2
 495 378 500 391 512 411 c 0
 556 482 608 529 669 529 c 0
 745 529 776 505 776 444 c 0
 776 397 760 343 748 302 c 2
 693 96 l 2
 690 87 689 76 689 71 c 0
 689 60 694 52 707 52 c 0
 735 52 774 92 799 144 c 0
 807 160 806 172 818 172 c 0
EndSplineSet
EndChar

StartChar: n
Encoding: 110 110 51
Width: 633
VWidth: 1155
Flags: HMW
LayerCount: 2
Fore
SplineSet
592 136 m 0
 553 50 489 -10 425 -10 c 0
 378 -10 354 13 354 63 c 0
 354 68 356 84 358 92 c 2
 416 306 l 2
 425 342 441 386 441 425 c 0
 441 457 428 476 393 476 c 0
 315 476 216 338 169 214 c 0
 159 188 153 164 146 136 c 2
 122 30 l 2
 116 6 119 0 88 0 c 2
 44 0 l 2
 32 0 29 6 29 14 c 0
 29 21 32 31 34 40 c 2
 125 434 l 2
 127 443 129 450 129 455 c 0
 129 462 125 465 110 465 c 2
 78 465 l 2
 52 465 50 467 50 485 c 2
 50 498 l 2
 50 518 52 520 65 520 c 0
 113 520 161 520 209 520 c 0
 227 520 232 516 232 508 c 0
 232 503 230 496 228 488 c 2
 210 410 l 2
 204 385 202 372 202 368 c 2
 202 366 l 1
 205 366 215 387 231 410 c 0
 282 484 342 529 406 529 c 0
 476 529 523 500 523 419 c 0
 523 383 513 345 505 314 c 2
 446 96 l 2
 443 87 442 76 442 71 c 0
 442 60 447 52 460 52 c 0
 487 52 524 89 549 138 c 0
 557 152 561 173 573 173 c 0
 575 173 576 173 578 172 c 0
 593 165 599 162 599 156 c 0
 599 152 596 146 592 136 c 0
EndSplineSet
EndChar

StartChar: o
Encoding: 111 111 52
Width: 568
VWidth: 1155
Flags: HMW
LayerCount: 2
Fore
SplineSet
125 180 m 0
 125 106 150 35 219 35 c 0
 328 35 413 186 413 340 c 0
 413 414 388 485 319 485 c 0
 210 485 125 334 125 180 c 0
20 180 m 0
 20 370 158 530 319 530 c 0
 440 530 518 450 518 340 c 0
 518 150 380 -10 219 -10 c 0
 98 -10 20 70 20 180 c 0
EndSplineSet
EndChar

StartChar: p
Encoding: 112 112 53
Width: 600
VWidth: 1155
Flags: HMW
LayerCount: 2
Fore
SplineSet
220 436 m 0
 265 492 325 530 388 530 c 0
 477 530 550 480 550 340 c 0
 550 140 386 -9 268 -9 c 0
 204 -9 168 20 148 67 c 0
 138 91 134 101 131 101 c 0
 127 101 127 81 119 48 c 2
 59 -220 l 2
 54 -244 57 -250 26 -250 c 2
 -17 -250 l 2
 -33 -250 -38 -247 -38 -240 c 0
 -38 -235 -35 -229 -33 -220 c 2
 119 437 l 2
 121 446 124 452 124 457 c 0
 124 462 120 465 106 465 c 2
 73 465 l 2
 51 465 48 467 48 495 c 0
 48 518 50 520 66 520 c 0
 105 520 143 520 182 520 c 0
 191 520 201 521 209 521 c 0
 218 521 224 520 224 512 c 0
 224 511 223 509 223 507 c 2
 211 465 l 2
 207 449 205 436 205 429 c 0
 205 426 205 424 207 424 c 0
 209 424 213 428 220 436 c 0
162 200 m 1
 162 189 l 2
 162 110 183 42 260 42 c 0
 344 42 450 196 450 340 c 0
 450 423 425 478 362 478 c 2
 360 478 l 1
 270 477 164 312 162 200 c 1
EndSplineSet
EndChar

StartChar: q
Encoding: 113 113 54
Width: 574
VWidth: 1155
Flags: HMW
LayerCount: 2
Fore
SplineSet
477 520 m 2
 518 520 l 2
 537 520 542 515 542 507 c 0
 542 499 537 489 534 476 c 2
 392 -153 l 2
 389 -167 386 -177 386 -183 c 0
 386 -193 394 -195 424 -195 c 2
 437 -195 l 2
 452 -195 460 -197 460 -215 c 0
 460 -218 460 -221 460 -224 c 0
 460 -248 458 -250 428 -250 c 2
 318 -250 l 2
 291 -250 283 -244 283 -231 c 0
 283 -223 286 -212 290 -197 c 2
 342 28 l 2
 346 45 348 56 348 61 c 0
 348 64 348 66 346 66 c 0
 342 66 333 58 317 43 c 0
 281 11 238 -10 192 -10 c 0
 103 -10 20 40 20 180 c 0
 20 380 193 529 302 529 c 0
 358 529 393 507 414 470 c 0
 425 449 428 429 432 429 c 0
 434 429 437 438 442 461 c 2
 450 494 l 2
 455 514 452 520 477 520 c 2
408 320 m 0
 408 404 391 478 310 478 c 0
 226 478 120 324 120 180 c 0
 120 96 156 42 220 42 c 0
 311 42 408 206 408 320 c 0
EndSplineSet
EndChar

StartChar: r
Encoding: 114 114 55
Width: 473
VWidth: 1155
Flags: HMW
LayerCount: 2
Fore
SplineSet
116 465 m 2
 80 465 l 2
 55 465 55 465 55 490 c 2
 55 506 l 2
 55 516 57 520 75 520 c 2
 212 520 l 2
 229 520 234 518 234 512 c 0
 234 508 231 502 229 493 c 2
 210 421 l 2
 209 415 208 411 208 408 c 0
 208 405 209 404 210 404 c 0
 213 404 218 409 225 421 c 0
 264 483 313 530 374 530 c 0
 433 530 473 494 473 436 c 0
 473 394 446 360 411 360 c 0
 377 360 350 380 350 411 c 0
 350 455 376 459 376 471 c 0
 376 478 370 483 359 483 c 0
 295 483 214 351 176 247 c 0
 168 224 163 205 157 181 c 2
 124 40 l 2
 119 18 124 0 95 0 c 2
 54 0 l 2
 35 0 29 3 29 12 c 0
 29 17 31 24 33 34 c 2
 128 448 l 2
 131 463 135 465 116 465 c 2
EndSplineSet
EndChar

StartChar: s
Encoding: 115 115 56
Width: 481
VWidth: 1155
Flags: HMW
LayerCount: 2
Fore
SplineSet
341 133 m 0
 341 250 83 234 83 380 c 0
 83 489 213 532 296 532 c 0
 394 532 461 487 461 411 c 0
 461 371 439 347 407 347 c 0
 375 347 354 365 354 390 c 0
 354 429 384 426 384 446 c 0
 384 477 338 487 296 487 c 0
 233 487 169 462 169 406 c 0
 169 306 424 325 424 152 c 0
 424 48 314 -12 187 -12 c 0
 78 -12 0 46 0 126 c 0
 0 169 29 203 64 203 c 0
 94 203 116 184 116 152 c 0
 116 109 72 115 72 95 c 0
 72 57 130 34 187 34 c 0
 287 34 341 82 341 133 c 0
EndSplineSet
EndChar

StartChar: t
Encoding: 116 116 57
Width: 365
VWidth: 1155
Flags: HMW
LayerCount: 2
Fore
SplineSet
249 117 m 0
 260 117 277 108 277 102 c 0
 277 97 272 90 266 80 c 0
 235 28 183 -12 114 -12 c 0
 54 -12 30 20 30 60 c 0
 30 68 31 77 33 86 c 2
 117 440 l 2
 119 447 120 452 120 456 c 0
 120 464 115 465 102 465 c 0
 86 465 71 465 55 465 c 0
 37 465 34 470 34 480 c 0
 34 485 35 490 35 498 c 0
 35 518 37 520 51 520 c 0
 70 520 90 520 109 520 c 0
 138 520 137 523 142 546 c 2
 150 582 l 2
 155 601 152 609 173 613 c 0
 193 617 212 626 224 632 c 0
 237 639 232 638 245 638 c 0
 257 638 252 632 250 624 c 2
 232 546 l 2
 230 538 229 532 229 528 c 0
 229 520 235 520 257 520 c 2
 322 520 l 2
 332 520 340 524 340 512 c 2
 340 485 l 2
 340 467 336 464 325 464 c 0
 320 464 314 465 306 465 c 2
 243 465 l 2
 210 465 213 460 207 434 c 2
 133 107 l 2
 129 91 126 78 126 69 c 0
 126 57 132 50 147 50 c 0
 169 50 194 63 216 87 c 0
 229 101 233 117 249 117 c 0
EndSplineSet
Substitution2: "'ss01' Style Set 1 lookup 2-1" uniFFF0
EndChar

StartChar: u
Encoding: 117 117 58
Width: 685
VWidth: 1155
Flags: HMW
LayerCount: 2
Fore
SplineSet
52 348 m 0
 45 348 22 356 22 361 c 0
 22 364 24 367 27 374 c 0
 66 465 131 530 198 530 c 0
 245 530 269 507 269 457 c 0
 269 452 267 436 265 428 c 2
 214 238 l 2
 207 213 200 188 194 164 c 0
 187 137 182 113 182 94 c 0
 182 63 195 44 230 44 c 0
 308 44 407 182 454 306 c 0
 464 332 470 357 477 386 c 2
 500 488 l 2
 506 516 504 520 540 520 c 2
 586 520 l 2
 595 520 596 515 596 509 c 4
 596 500 591 487 589 478 c 2
 496 89 l 2
 495 83 494 76 494 71 c 0
 494 60 499 52 512 52 c 0
 537 52 569 82 593 124 c 0
 604 143 613 171 630 171 c 0
 631 171 633 170 634 170 c 0
 647 166 652 162 652 155 c 0
 652 145 641 129 630 109 c 0
 591 37 534 -10 477 -10 c 0
 430 -10 406 13 406 63 c 0
 406 68 407 79 408 85 c 2
 417 124 l 2
 420 136 421 143 421 147 c 0
 421 148 421 150 420 150 c 0
 418 150 414 142 404 127 c 0
 351 43 285 -9 217 -9 c 0
 147 -9 100 21 100 101 c 0
 100 143 113 188 123 224 c 2
 177 424 l 2
 180 433 181 444 181 449 c 0
 181 460 176 468 163 468 c 0
 134 468 94 426 69 372 c 0
 61 356 61 348 52 348 c 0
EndSplineSet
EndChar

StartChar: v
Encoding: 118 118 59
Width: 511
VWidth: 1155
Flags: HMW
LayerCount: 2
Fore
SplineSet
179 137 m 0
 179 126 176 104 176 91 c 0
 176 82 178 79 181 79 c 0
 186 79 194 87 206 95 c 0
 341 188 439 293 439 383 c 0
 439 435 431 443 421 443 c 0
 405 443 397 423 365 423 c 0
 340 423 321 445 321 473 c 0
 321 503 350 529 384 529 c 0
 444 529 491 475 491 384 c 0
 491 241 313 88 136 -0 c 0
 125 -5 118 -8 112 -8 c 0
 105 -8 98 -5 87 1 c 0
 74 8 70 11 70 20 c 0
 70 25 71 31 73 41 c 0
 79 66 87 96 87 110 c 0
 87 207 20 289 20 383 c 0
 20 449 78 493 126 520 c 0
 136 526 143 532 150 532 c 0
 159 532 171 507 171 504 c 0
 171 499 166 496 155 487 c 0
 137 472 120 448 120 413 c 0
 120 320 179 281 179 137 c 0
EndSplineSet
EndChar

StartChar: w
Encoding: 119 119 60
Width: 882
VWidth: 1155
Flags: HMW
LayerCount: 2
Fore
SplineSet
61 348 m 0
 54 348 32 355 32 361 c 0
 32 364 35 369 38 376 c 0
 77 466 142 530 208 530 c 0
 255 530 279 507 279 457 c 0
 279 452 277 436 275 428 c 2
 217 214 l 2
 209 185 198 148 198 115 c 0
 198 71 217 42 260 42 c 0
 350 42 412 168 441 277 c 1
 492 498 l 2
 497 518 501 520 518 520 c 0
 531 520 545 520 558 520 c 0
 579 520 585 517 585 510 c 0
 585 505 582 497 579 486 c 2
 511 189 l 2
 505 165 502 143 502 124 c 0
 502 75 522 43 568 43 c 0
 710 43 797 295 797 383 c 0
 797 405 796 419 786 419 c 0
 779 419 787 413 753 413 c 0
 726 413 704 435 704 470 c 0
 704 506 730 529 771 529 c 0
 819 529 854 494 854 393 c 0
 854 283 764 -10 559 -10 c 0
 490 -10 442 19 425 97 c 0
 422 109 420 113 418 113 c 0
 414 113 411 101 404 90 c 0
 362 28 308 -9 247 -9 c 0
 174 -9 112 24 112 113 c 0
 112 134 116 160 121 179 c 0
 143 260 165 342 187 424 c 0
 190 433 191 444 191 449 c 0
 191 460 186 468 173 468 c 0
 145 468 108 429 83 379 c 0
 74 360 74 348 61 348 c 0
EndSplineSet
EndChar

StartChar: x
Encoding: 120 120 61
Width: 574
VWidth: 1155
Flags: HMW
LayerCount: 2
Fore
SplineSet
79 400 m 0
 70 400 55 409 55 416 c 0
 55 422 60 429 64 437 c 0
 95 506 131 532 186 532 c 0
 266 532 282 465 297 396 c 0
 300 380 303 374 306 374 c 0
 310 374 314 386 322 399 c 0
 365 469 411 530 475 530 c 0
 546 530 574 491 574 439 c 0
 574 405 551 384 521 384 c 0
 493 384 473 403 473 428 c 0
 473 460 492 462 492 478 c 0
 492 488 485 490 473 490 c 0
 425 490 380 413 332 332 c 0
 325 320 320 313 320 303 c 0
 320 299 321 294 323 287 c 0
 342 209 363 127 383 73 c 0
 387 62 400 49 413 49 c 0
 424 49 447 64 466 99 c 0
 473 112 475 123 484 123 c 0
 486 123 489 122 493 120 c 0
 506 113 510 109 510 103 c 0
 510 98 507 90 502 80 c 0
 470 13 430 -10 384 -10 c 0
 327 -10 296 25 283 73 c 0
 276 99 266 139 255 182 c 0
 251 198 249 205 246 205 c 0
 243 205 239 196 231 182 c 0
 177 90 109 -10 29 -10 c 0
 -32 -10 -60 29 -60 81 c 0
 -60 115 -37 136 -7 136 c 0
 21 136 41 117 41 92 c 0
 41 60 22 58 22 42 c 0
 22 32 29 30 41 30 c 0
 89 30 160 149 216 243 c 0
 224 257 229 265 229 277 c 0
 229 282 228 289 226 297 c 0
 210 360 194 418 183 449 c 0
 179 460 174 473 156 473 c 0
 140 473 119 460 102 428 c 0
 93 411 90 400 79 400 c 0
EndSplineSet
EndChar

StartChar: y
Encoding: 121 121 62
Width: 675
VWidth: 1155
Flags: HMW
LayerCount: 2
Fore
SplineSet
61 399 m 0
 50 399 34 408 34 414 c 0
 34 418 37 424 41 433 c 0
 72 505 110 532 166 532 c 0
 223 532 250 506 264 458 c 0
 285 388 298 188 333 56 c 0
 341 25 348 13 355 13 c 0
 364 13 375 32 393 56 c 0
 503 197 586 354 586 409 c 0
 586 425 584 430 576 430 c 0
 564 430 567 414 533 414 c 0
 498 414 479 433 479 471 c 0
 479 501 500 539 554 539 c 0
 622 539 645 496 645 435 c 0
 645 265 295 -260 50 -260 c 0
 -37 -260 -80 -208 -80 -141 c 0
 -80 -95 -51 -58 -12 -58 c 0
 18 -58 38 -76 38 -107 c 0
 38 -145 -4 -140 -4 -166 c 0
 -4 -189 7 -205 50 -205 c 0
 109 -205 176 -166 242 -108 c 0
 262 -90 269 -80 269 -67 c 0
 269 -55 264 -41 257 -16 c 0
 217 133 182 392 160 449 c 0
 156 460 152 472 135 472 c 0
 124 472 103 459 85 428 c 0
 76 411 73 399 61 399 c 0
EndSplineSet
EndChar

StartChar: z
Encoding: 122 122 63
Width: 520
VWidth: 1155
Flags: HMW
LayerCount: 2
Fore
SplineSet
76 379 m 0
 68 379 44 391 44 399 c 0
 44 404 49 410 56 420 c 0
 93 473 153 530 222 530 c 0
 316 530 322 471 378 471 c 0
 411 471 452 488 486 506 c 0
 502 515 512 526 522 526 c 0
 530 526 547 506 547 501 c 0
 547 498 544 495 538 489 c 2
 136 112 l 2
 122 99 116 91 116 88 c 0
 116 87 118 86 120 86 c 0
 127 86 142 91 161 96 c 0
 186 102 206 110 222 110 c 0
 276 110 312 77 348 77 c 0
 378 77 407 96 430 121 c 0
 441 134 445 148 455 148 c 0
 468 148 485 126 485 122 c 0
 485 117 481 110 473 99 c 0
 434 46 367 -10 298 -10 c 0
 224 -10 178 39 132 39 c 0
 102 39 59 29 24 15 c 0
 1 6 -10 -4 -21 -4 c 0
 -27 -4 -34 -1 -42 10 c 0
 -45 14 -47 17 -47 20 c 0
 -47 27 -39 31 -30 39 c 2
 353 398 l 1
 353 398 370 414 370 418 c 0
 370 419 370 419 369 419 c 0
 367 419 362 418 355 414 c 0
 340 406 324 405 308 405 c 0
 244 405 229 448 173 448 c 0
 146 448 120 429 100 404 c 0
 88 389 85 379 76 379 c 0
EndSplineSet
EndChar

StartChar: comma
Encoding: 44 44 65
Width: 215
Flags: HMW
LayerCount: 2
Fore
SplineSet
-11 49 m 0
 -11 82 18 108 56 108 c 0
 95 108 125 77 125 24 c 0
 125 -51 57 -126 -18 -149 c 0
 -26 -151 -40 -156 -50 -156 c 0
 -57 -156 -63 -154 -63 -146 c 2
 -63 -128 l 2
 -63 -112 -58 -117 -45 -114 c 0
 1 -104 58 -61 73 -16 c 0
 75 -9 76 -5 76 -3 c 0
 76 -1 75 -1 74 -1 c 0
 71 -1 66 -6 60 -8 c 0
 55 -10 49 -10 42 -10 c 0
 9 -10 -11 16 -11 49 c 0
EndSplineSet
EndChar

StartChar: quotedbl
Encoding: 34 34 66
Width: 350
Flags: HMW
LayerCount: 2
Fore
SplineSet
362 689 m 0
 343 621 301 565 286 509 c 0
 284 501 286 488 276 488 c 2
 254 488 l 2
 242 488 246 498 247 507 c 0
 255 562 254 609 259 679 c 0
 262 728 288 758 324 758 c 0
 350 758 366 741 366 714 c 0
 366 706 365 698 362 689 c 0
212 689 m 0
 193 621 151 565 136 509 c 0
 134 501 136 488 126 488 c 2
 104 488 l 2
 92 488 96 498 97 507 c 0
 105 562 104 609 109 679 c 0
 112 728 138 758 174 758 c 0
 200 758 216 741 216 714 c 0
 216 706 215 698 212 689 c 0
EndSplineSet
EndChar

StartChar: exclam
Encoding: 33 33 67
Width: 319
Flags: HMW
LayerCount: 2
Fore
SplineSet
275 647 m 0
 225 487 174 363 138 226 c 0
 135 213 138 205 120 205 c 2
 107 205 l 2
 97 205 94 208 94 213 c 0
 94 217 96 222 97 227 c 0
 128 365 126 503 160 675 c 0
 168 715 181 759 223 759 c 0
 265 759 285 734 285 702 c 0
 285 684 280 663 275 647 c 0
10 50 m 0
 10 83 37 110 70 110 c 0
 103 110 130 83 130 50 c 0
 130 17 103 -10 70 -10 c 0
 37 -10 10 17 10 50 c 0
EndSplineSet
EndChar

StartChar: semicolon
Encoding: 59 59 68
Width: 215
Flags: HMW
LayerCount: 2
Fore
SplineSet
60 470 m 0
 60 503 87 530 120 530 c 0
 153 530 180 503 180 470 c 0
 180 437 153 410 120 410 c 0
 87 410 60 437 60 470 c 0
-11 49 m 0
 -11 82 18 108 56 108 c 0
 95 108 125 77 125 24 c 0
 125 -51 57 -126 -18 -149 c 0
 -26 -151 -40 -156 -50 -156 c 0
 -57 -156 -63 -154 -63 -146 c 2
 -63 -128 l 2
 -63 -112 -58 -117 -45 -114 c 0
 1 -104 58 -61 73 -16 c 0
 75 -9 76 -5 76 -3 c 0
 76 -1 75 -1 74 -1 c 0
 71 -1 66 -6 60 -8 c 0
 55 -10 49 -10 42 -10 c 0
 9 -10 -11 16 -11 49 c 0
EndSplineSet
EndChar

StartChar: colon
Encoding: 58 58 69
Width: 198
Flags: HMW
LayerCount: 2
Fore
SplineSet
60 470 m 0
 60 503 87 530 120 530 c 0
 153 530 180 503 180 470 c 0
 180 437 153 410 120 410 c 0
 87 410 60 437 60 470 c 0
-30 50 m 0
 -30 83 -3 110 30 110 c 0
 63 110 90 83 90 50 c 0
 90 17 63 -10 30 -10 c 0
 -3 -10 -30 17 -30 50 c 0
EndSplineSet
EndChar

StartChar: quotesingle
Encoding: 39 39 70
Width: 199
Flags: HMW
LayerCount: 2
Fore
SplineSet
212 689 m 0
 193 621 151 565 136 509 c 0
 134 501 136 488 126 488 c 2
 104 488 l 2
 92 488 96 498 97 507 c 0
 105 562 104 609 109 679 c 0
 112 728 138 758 174 758 c 0
 200 758 216 741 216 714 c 0
 216 706 215 698 212 689 c 0
EndSplineSet
EndChar

StartChar: quoteleft
Encoding: 8216 8216 71
Width: 258
Flags: HMW
LayerCount: 2
Fore
SplineSet
221 595 m 0
 221 562 192 536 154 536 c 0
 115 536 85 567 85 620 c 0
 85 695 153 770 228 793 c 0
 236 795 250 800 260 800 c 0
 267 800 273 798 273 790 c 2
 273 772 l 2
 273 756 268 761 255 758 c 0
 209 748 152 705 137 660 c 0
 135 653 134 649 134 647 c 0
 134 645 135 645 136 645 c 0
 139 645 144 650 150 652 c 0
 155 654 161 654 168 654 c 0
 201 654 221 628 221 595 c 0
EndSplineSet
EndChar

StartChar: quotedblleft
Encoding: 8220 8220 72
Width: 433
Flags: HMW
LayerCount: 2
Fore
SplineSet
396 595 m 0
 396 562 367 536 329 536 c 0
 290 536 260 567 260 620 c 0
 260 695 328 770 403 793 c 0
 411 795 425 800 435 800 c 0
 442 800 448 798 448 790 c 2
 448 772 l 2
 448 756 443 761 430 758 c 0
 384 748 327 705 312 660 c 0
 310 653 309 649 309 647 c 0
 309 645 310 645 311 645 c 0
 314 645 319 650 325 652 c 0
 330 654 336 654 343 654 c 0
 376 654 396 628 396 595 c 0
221 595 m 0
 221 562 192 536 154 536 c 0
 115 536 85 567 85 620 c 0
 85 695 153 770 228 793 c 0
 236 795 250 800 260 800 c 0
 267 800 273 798 273 790 c 2
 273 772 l 2
 273 756 268 761 255 758 c 0
 209 748 152 705 137 660 c 0
 135 653 134 649 134 647 c 0
 134 645 135 645 136 645 c 0
 139 645 144 650 150 652 c 0
 155 654 161 654 168 654 c 0
 201 654 221 628 221 595 c 0
EndSplineSet
EndChar

StartChar: quotedblright
Encoding: 8221 8221 73
Width: 433
Flags: HMW
LayerCount: 2
Fore
SplineSet
127 741 m 0
 127 774 156 800 194 800 c 0
 233 800 263 769 263 716 c 0
 263 641 195 566 120 543 c 0
 112 541 98 536 88 536 c 0
 81 536 75 538 75 546 c 2
 75 564 l 2
 75 580 80 575 93 578 c 0
 139 588 196 631 211 676 c 0
 213 683 214 687 214 689 c 0
 214 691 213 691 212 691 c 0
 209 691 204 686 198 684 c 0
 193 682 187 682 180 682 c 0
 147 682 127 708 127 741 c 0
302 741 m 0
 302 774 331 800 369 800 c 0
 408 800 438 769 438 716 c 0
 438 641 370 566 295 543 c 0
 287 541 273 536 263 536 c 0
 256 536 250 538 250 546 c 2
 250 564 l 2
 250 580 255 575 268 578 c 0
 314 588 371 631 386 676 c 0
 388 683 389 687 389 689 c 0
 389 691 388 691 387 691 c 0
 384 691 379 686 373 684 c 0
 368 682 362 682 355 682 c 0
 322 682 302 708 302 741 c 0
EndSplineSet
EndChar

StartChar: quoteright
Encoding: 8217 8217 74
Width: 258
Flags: HMW
LayerCount: 2
Fore
SplineSet
122 741 m 0
 122 774 151 800 189 800 c 0
 228 800 258 769 258 716 c 0
 258 641 190 566 115 543 c 0
 107 541 93 536 83 536 c 0
 76 536 70 538 70 546 c 2
 70 564 l 2
 70 580 75 575 88 578 c 0
 134 588 191 631 206 676 c 0
 208 683 209 687 209 689 c 0
 209 691 208 691 207 691 c 0
 204 691 199 686 193 684 c 0
 188 682 182 682 175 682 c 0
 142 682 122 708 122 741 c 0
EndSplineSet
EndChar

StartChar: question
Encoding: 63 63 75
Width: 550
Flags: HMW
LayerCount: 2
Fore
SplineSet
270 277 m 0
 279 277 282 247 282 238 c 0
 282 224 276 216 258 208 c 0
 236 198 215 196 201 196 c 0
 141 196 105 233 105 285 c 0
 105 413 429 433 429 600 c 0
 429 674 380 713 301 713 c 0
 237 713 179 684 179 662 c 0
 179 632 210 631 210 580 c 0
 210 538 177 520 142 520 c 0
 107 520 75 543 75 591 c 0
 75 683 169 760 321 760 c 0
 452 760 520 700 520 590 c 0
 520 363 175 365 175 284 c 0
 175 268 186 253 210 253 c 0
 217 253 229 254 242 259 c 0
 254 264 263 277 270 277 c 0
119 50 m 0
 119 83 146 110 179 110 c 0
 212 110 239 83 239 50 c 0
 239 17 212 -10 179 -10 c 0
 146 -10 119 17 119 50 c 0
EndSplineSet
EndChar

StartChar: parenleft
Encoding: 40 40 76
Width: 445
Flags: HMW
LayerCount: 2
Fore
SplineSet
477 797 m 0
 486 797 492 775 492 760 c 0
 492 748 485 748 467 740 c 0
 271 662 170 466 170 235 c 0
 170 92 197 -25 312 -105 c 0
 325 -114 333 -116 333 -129 c 0
 333 -132 332 -136 331 -142 c 0
 327 -160 323 -167 316 -167 c 0
 310 -167 301 -162 288 -156 c 0
 130 -86 55 65 55 235 c 0
 55 497 209 713 455 791 c 0
 466 794 472 797 477 797 c 0
EndSplineSet
EndChar

StartChar: parenright
Encoding: 41 41 77
Width: 445
Flags: HMW
LayerCount: 2
Fore
SplineSet
-27 -165 m 0
 -36 -165 -42 -143 -42 -128 c 0
 -42 -116 -35 -116 -17 -108 c 0
 179 -30 280 166 280 397 c 0
 280 540 253 657 138 737 c 0
 125 746 117 748 117 761 c 0
 117 764 118 768 119 774 c 0
 123 792 127 799 134 799 c 0
 140 799 149 794 162 788 c 0
 320 718 395 567 395 397 c 0
 395 135 241 -81 -5 -159 c 0
 -16 -162 -22 -165 -27 -165 c 0
EndSplineSet
EndChar

StartChar: asterisk
Encoding: 42 42 78
Width: 635
VWidth: 1155
Flags: HMW
LayerCount: 2
Fore
SplineSet
535 619 m 0
 563 619 594 600 594 568 c 0
 594 545 572 528 548 523 c 0
 496 510 444 511 398 506 c 0
 373 504 360 502 360 497 c 0
 360 494 366 489 379 480 c 0
 408 460 439 442 477 416 c 0
 506 397 521 373 521 349 c 0
 521 323 502 298 479 298 c 0
 462 298 445 311 435 322 c 0
 392 366 365 420 332 460 c 0
 325 469 321 473 318 473 c 0
 310 473 309 354 307 329 c 0
 304 280 278 250 242 250 c 0
 216 250 200 267 200 294 c 0
 200 302 201 310 204 319 c 0
 219 373 248 419 267 463 c 0
 273 477 276 486 276 491 c 0
 276 494 275 495 272 495 c 0
 266 495 254 488 238 480 c 0
 211 466 183 451 147 433 c 0
 130 425 114 421 99 421 c 0
 71 421 40 440 40 472 c 0
 40 495 62 512 86 517 c 0
 139 531 194 529 241 535 c 0
 265 538 274 540 274 544 c 0
 274 548 264 554 249 564 c 0
 222 582 193 600 157 624 c 0
 128 643 113 667 113 691 c 0
 113 717 132 742 155 742 c 0
 172 742 189 729 199 718 c 0
 234 682 259 640 284 604 c 0
 296 586 306 569 312 569 c 0
 326 569 325 682 327 711 c 0
 330 760 356 790 392 790 c 0
 418 790 434 773 434 746 c 0
 434 738 433 730 430 721 c 0
 416 672 391 629 372 588 c 0
 363 569 358 557 358 551 c 0
 358 548 360 547 363 547 c 0
 368 547 379 551 396 560 c 0
 423 574 451 589 487 607 c 0
 504 615 520 619 535 619 c 0
EndSplineSet
EndChar

StartChar: at
Encoding: 64 64 79
Width: 1060
VWidth: 1155
Flags: HMW
LayerCount: 2
Fore
SplineSet
818 -83 m 0
 735 -169 621 -214 469 -214 c 0
 326 -214 65 -112 65 221 c 0
 65 554 312 790 585 790 c 0
 868 790 1005 604 1005 421 c 0
 1005 261 912 70 741 70 c 0
 687 70 659 88 646 124 c 0
 639 145 637 157 633 157 c 0
 630 157 626 152 618 142 c 0
 579 96 531 70 484 70 c 0
 405 70 334 126 334 230 c 0
 334 380 449 529 568 529 c 0
 618 529 654 503 674 459 c 0
 683 439 686 430 689 430 c 0
 692 430 694 442 699 465 c 2
 709 509 l 2
 711 519 716 520 725 520 c 0
 740 520 755 520 770 520 c 0
 793 520 799 520 799 511 c 0
 799 507 798 501 796 493 c 2
 730 210 l 2
 729 205 727 193 727 180 c 0
 727 158 733 132 763 132 c 0
 864 132 942 271 942 425 c 0
 942 602 786 737 602 737 c 0
 358 737 170 503 170 231 c 0
 170 -71 351 -159 495 -159 c 0
 594 -159 696 -127 783 -39 c 0
 790 -32 794 -29 797 -29 c 0
 801 -29 804 -33 811 -40 c 0
 823 -52 830 -57 830 -64 c 0
 830 -69 826 -74 818 -83 c 0
664 346 m 0
 664 388 650 478 584 478 c 0
 510 478 435 364 435 240 c 0
 435 173 450 122 514 122 c 0
 575 122 664 218 664 346 c 0
EndSplineSet
EndChar

StartChar: dollar
Encoding: 36 36 80
Width: 660
Flags: HMW
LayerCount: 2
Fore
SplineSet
480 190 m 0
 480 261 437 299 381 329 c 0
 371 334 365 337 361 337 c 0
 352 337 351 326 345 305 c 2
 280 76 l 2
 277 65 275 57 275 52 c 0
 275 45 278 42 289 42 c 0
 294 42 301 43 310 44 c 0
 420 58 480 128 480 190 c 0
230 575 m 0
 230 526 258 495 299 470 c 0
 309 464 315 457 321 457 c 0
 325 457 329 461 332 472 c 2
 396 696 l 2
 400 709 399 709 384 707 c 0
 296 698 230 654 230 575 c 0
445 835 m 2
 485 835 l 2
 497 835 494 834 492 825 c 2
 477 771 l 2
 472 755 472 755 489 751 c 0
 575 730 634 672 634 579 c 0
 634 531 599 513 570 513 c 0
 543 513 513 534 513 571 c 0
 513 607 545 612 545 635 c 0
 545 657 527 688 478 702 c 0
 465 706 459 709 455 695 c 2
 389 459 l 2
 386 448 383 441 383 436 c 0
 383 430 387 426 398 421 c 0
 484 381 570 331 570 205 c 0
 570 65 451 -10 270 -10 c 0
 256 -10 256 -11 253 -22 c 2
 239 -70 l 2
 235 -84 235 -85 217 -85 c 2
 192 -85 l 2
 173 -85 176 -83 180 -69 c 2
 191 -27 l 2
 193 -20 194 -14 194 -11 c 0
 194 -3 188 -4 170 0 c 0
 50 27 6 103 6 176 c 0
 6 224 41 252 70 252 c 0
 97 252 127 231 127 194 c 0
 127 158 95 153 95 130 c 0
 95 108 113 67 187 50 c 0
 193 49 197 48 201 48 c 0
 214 48 215 56 220 75 c 2
 295 338 l 2
 298 347 299 353 299 358 c 0
 299 369 291 371 273 380 c 0
 202 416 140 463 140 565 c 0
 140 685 264 760 405 760 c 0
 416 760 415 764 417 772 c 2
 432 824 l 2
 434 833 433 835 445 835 c 2
EndSplineSet
EndChar

StartChar: numbersign
Encoding: 35 35 81
Width: 660
Flags: HMW
LayerCount: 2
Fore
SplineSet
426 485 m 2
 294 485 l 2
 268 485 268 484 262 464 c 2
 216 299 l 2
 212 286 205 280 224 280 c 2
 360 280 l 2
 381 280 381 281 386 297 c 2
 434 469 l 2
 435 474 436 478 436 480 c 0
 436 484 434 485 426 485 c 2
313 805 m 2
 344 805 l 2
 362 805 354 797 351 785 c 2
 291 568 l 2
 289 559 285 553 285 548 c 0
 285 543 289 540 304 540 c 2
 437 540 l 2
 459 540 456 548 461 564 c 2
 523 786 l 2
 527 801 525 805 545 805 c 2
 568 805 l 2
 579 805 582 801 582 796 c 0
 582 791 580 786 578 779 c 2
 518 564 l 2
 516 556 513 550 513 546 c 0
 513 542 517 540 530 540 c 2
 675 540 l 2
 689 540 690 541 690 526 c 2
 690 498 l 2
 690 485 689 485 676 485 c 2
 512 485 l 2
 492 485 494 479 490 464 c 2
 445 303 l 2
 443 295 441 290 441 286 c 0
 441 281 445 280 460 280 c 2
 597 280 l 2
 610 280 620 285 620 270 c 2
 620 240 l 2
 620 227 622 225 608 225 c 2
 441 225 l 2
 423 225 423 224 419 210 c 2
 348 -45 l 2
 345 -55 345 -55 332 -55 c 2
 306 -55 l 2
 294 -55 290 -53 290 -48 c 0
 290 -43 294 -36 296 -28 c 2
 362 211 l 2
 363 215 364 218 364 220 c 0
 364 225 361 225 355 225 c 0
 307 225 260 225 212 225 c 0
 192 225 194 221 190 206 c 2
 126 -23 l 2
 122 -37 124 -55 105 -55 c 2
 79 -55 l 2
 65 -55 62 -52 62 -47 c 0
 62 -42 66 -35 68 -26 c 2
 135 214 l 2
 138 225 138 225 124 225 c 2
 -18 225 l 2
 -29 225 -30 224 -30 236 c 2
 -30 271 l 2
 -30 283 -24 280 -13 280 c 2
 129 280 l 2
 153 280 154 281 159 299 c 2
 204 462 l 2
 206 470 209 475 209 479 c 0
 209 483 205 485 191 485 c 2
 57 485 l 2
 42 485 40 489 40 498 c 2
 40 527 l 2
 40 537 42 540 58 540 c 2
 207 540 l 2
 230 540 227 545 232 562 c 2
 294 784 l 2
 298 797 295 805 313 805 c 2
EndSplineSet
EndChar

StartChar: slash
Encoding: 47 47 82
Width: 520
Flags: HMW
LayerCount: 2
Fore
SplineSet
507 780 m 2
 528 780 l 2
 542 780 547 778 547 775 c 0
 547 772 542 767 538 759 c 2
 42 -118 l 2
 27 -145 25 -150 -19 -150 c 0
 -39 -150 -46 -148 -46 -143 c 0
 -46 -138 -39 -130 -32 -118 c 2
 474 767 l 2
 482 780 486 780 507 780 c 2
EndSplineSet
EndChar

StartChar: percent
Encoding: 37 37 83
Width: 1000
Flags: HMW
LayerCount: 2
Fore
SplineSet
65 490 m 0
 65 653 192 760 325 760 c 0
 408 760 485 713 485 590 c 0
 485 427 338 320 225 320 c 0
 142 320 65 367 65 490 c 0
170 470 m 0
 170 408 184 370 228 370 c 0
 322 370 380 488 380 610 c 0
 380 672 366 710 322 710 c 0
 228 710 170 592 170 470 c 0
797 750 m 2
 831 750 l 2
 839 750 842 748 842 746 c 0
 842 741 831 733 826 727 c 2
 241 21 l 2
 233 11 230 0 211 0 c 2
 176 0 l 2
 163 0 159 2 159 5 c 0
 159 9 168 16 175 24 c 2
 768 734 l 2
 777 744 777 750 797 750 c 2
515 160 m 0
 515 323 642 430 775 430 c 0
 858 430 935 383 935 260 c 0
 935 97 788 -10 675 -10 c 0
 592 -10 515 37 515 160 c 0
620 140 m 0
 620 78 634 40 678 40 c 0
 772 40 830 158 830 280 c 0
 830 342 816 380 772 380 c 0
 678 380 620 262 620 140 c 0
EndSplineSet
EndChar

StartChar: macron
Encoding: 175 175 84
Width: 480
Flags: HMW
LayerCount: 2
Fore
SplineSet
189 615 m 2
 514 615 l 2
 546 615 545 615 545 588 c 2
 545 580 l 2
 545 561 543 560 515 560 c 2
 176 560 l 2
 147 560 145 563 145 581 c 2
 145 592 l 2
 145 613 151 616 166 616 c 0
 172 616 180 615 189 615 c 2
EndSplineSet
EndChar

StartChar: hyphen
Encoding: 45 45 85
Width: 460
Flags: HMW
LayerCount: 2
Fore
SplineSet
107 415 m 2
 383 415 l 2
 410 415 410 415 410 388 c 2
 410 383 l 2
 410 361 409 360 384 360 c 2
 96 360 l 2
 72 360 70 363 70 380 c 2
 70 392 l 2
 70 414 70 415 107 415 c 2
EndSplineSet
EndChar

StartChar: underscore
Encoding: 95 95 86
Width: 560
Flags: HMW
LayerCount: 2
Fore
SplineSet
469 -65 m 2
 -49 -65 l 2
 -73 -65 -75 -62 -75 -45 c 2
 -75 -33 l 2
 -75 -12 -70 -9 -58 -9 c 0
 -53 -9 -46 -10 -38 -10 c 2
 165 -10 l 1
 171 -9 180 -10 192 -10 c 0
 284 -10 376 -10 468 -10 c 0
 495 -10 495 -10 495 -37 c 2
 495 -42 l 2
 495 -64 494 -65 469 -65 c 2
EndSplineSet
EndChar

StartChar: plus
Encoding: 43 43 87
Width: 530
Flags: HMW
LayerCount: 2
Fore
SplineSet
324 343 m 2
 443 343 l 2
 449 343 454 344 458 344 c 0
 466 344 470 341 470 327 c 2
 470 311 l 2
 470 291 467 288 438 288 c 2
 309 288 l 2
 284 288 286 282 281 263 c 2
 248 128 l 2
 243 111 242 110 225 110 c 0
 223 110 221 110 219 110 c 0
 195 110 188 114 188 123 c 0
 188 131 193 142 197 157 c 2
 224 267 l 2
 226 274 227 279 227 282 c 0
 227 288 222 288 204 288 c 2
 83 288 l 2
 62 288 60 291 60 305 c 2
 60 317 l 2
 60 342 61 343 83 343 c 0
 129 343 176 343 222 343 c 0
 249 343 245 352 250 372 c 2
 281 501 l 2
 284 512 282 520 297 520 c 2
 314 520 l 2
 332 520 341 520 341 510 c 0
 341 508 341 506 340 503 c 2
 309 377 l 2
 307 366 303 358 303 352 c 0
 303 346 307 343 324 343 c 2
EndSplineSet
EndChar

StartChar: equal
Encoding: 61 61 88
Width: 560
Flags: HMW
LayerCount: 2
Fore
SplineSet
514 435 m 2
 126 435 l 2
 102 435 100 438 100 455 c 2
 100 467 l 2
 100 488 105 491 117 491 c 0
 122 491 129 490 137 490 c 2
 210 490 l 1
 216 491 225 490 237 490 c 0
 329 490 421 490 513 490 c 0
 540 490 540 490 540 463 c 2
 540 458 l 2
 540 436 539 435 514 435 c 2
479 285 m 2
 91 285 l 2
 67 285 65 288 65 305 c 2
 65 317 l 2
 65 338 70 341 82 341 c 0
 87 341 94 340 102 340 c 2
 175 340 l 1
 181 341 190 340 202 340 c 0
 294 340 386 340 478 340 c 0
 505 340 505 340 505 313 c 2
 505 308 l 2
 505 286 504 285 479 285 c 2
EndSplineSet
EndChar

StartChar: less
Encoding: 60 60 89
Width: 560
Flags: HMW
LayerCount: 2
Fore
SplineSet
166 373 m 2
 416 266 l 2
 438 257 450 253 450 226 c 2
 450 198 l 2
 450 183 446 178 440 178 c 0
 431 178 419 189 407 194 c 2
 84 335 l 2
 67 342 60 340 60 366 c 2
 60 397 l 2
 60 430 64 426 114 444 c 2
 521 590 l 2
 531 593 538 596 542 596 c 0
 550 596 550 587 550 562 c 0
 550 529 544 531 520 523 c 2
 178 404 l 2
 155 396 140 393 140 388 c 0
 140 385 148 381 166 373 c 2
EndSplineSet
EndChar

StartChar: greater
Encoding: 62 62 90
Width: 560
Flags: HMW
LayerCount: 2
Fore
SplineSet
394 402 m 2
 144 509 l 2
 122 518 110 515 110 549 c 2
 110 577 l 2
 110 592 114 597 120 597 c 0
 129 597 141 586 153 581 c 2
 476 440 l 2
 493 433 500 435 500 409 c 2
 500 378 l 2
 500 345 469 339 446 331 c 2
 39 185 l 2
 29 182 22 179 18 179 c 0
 10 179 10 188 10 213 c 0
 10 246 16 244 40 252 c 2
 382 371 l 2
 405 379 420 382 420 387 c 0
 420 390 412 394 394 402 c 2
EndSplineSet
EndChar

StartChar: backslash
Encoding: 92 92 91
Width: 520
Flags: HMW
LayerCount: 2
Fore
SplineSet
189 760 m 2
 408 -104 l 2
 411 -117 418 -129 418 -138 c 0
 418 -145 413 -150 397 -150 c 2
 375 -150 l 2
 343 -150 347 -135 341 -111 c 2
 127 756 l 2
 125 762 123 768 123 773 c 0
 123 777 125 780 133 780 c 2
 172 780 l 2
 188 780 186 772 189 760 c 2
EndSplineSet
EndChar

StartChar: bracketleft
Encoding: 91 91 92
Width: 325
Flags: HMW
LayerCount: 2
Fore
SplineSet
385 751 m 0
 385 726 384 725 362 725 c 0
 327 725 291 725 256 725 c 0
 218 725 221 717 215 687 c 2
 58 -44 l 2
 54 -61 50 -72 50 -80 c 0
 50 -91 58 -95 89 -95 c 2
 178 -95 l 2
 192 -95 195 -97 195 -117 c 2
 195 -130 l 2
 195 -148 193 -150 167 -150 c 2
 -14 -150 l 2
 -42 -150 -49 -144 -49 -130 c 0
 -49 -122 -47 -111 -44 -97 c 2
 137 745 l 2
 144 777 153 780 179 780 c 2
 361 780 l 2
 382 780 385 778 385 751 c 0
EndSplineSet
EndChar

StartChar: braceleft
Encoding: 123 123 93
Width: 272
VWidth: 1155
Flags: HMW
LayerCount: 2
Fore
SplineSet
94 -147 m 0
 -5 -136 -35 -94 -35 -10 c 0
 -35 107 85 172 85 235 c 0
 85 261 81 272 71 279 c 0
 58 288 45 283 45 311 c 0
 45 343 48 340 72 349 c 0
 100 359 131 376 131 406 c 0
 131 469 105 494 105 601 c 0
 105 684 150 767 288 779 c 0
 295 779 300 780 305 780 c 0
 319 780 322 775 322 752 c 0
 322 728 316 734 296 731 c 0
 244 723 198 693 198 647 c 0
 198 581 222 571 222 471 c 0
 222 406 201 362 161 333 c 0
 139 317 129 317 129 310 c 0
 129 306 132 299 139 286 c 0
 147 270 152 249 152 220 c 0
 152 120 58 50 58 -16 c 0
 58 -63 76 -88 111 -98 c 0
 134 -104 152 -103 152 -126 c 0
 152 -146 142 -151 129 -151 c 0
 119 -151 106 -148 94 -147 c 0
EndSplineSet
EndChar

StartChar: bracketright
Encoding: 93 93 94
Width: 325
Flags: HMW
LayerCount: 2
Fore
SplineSet
-60 -121 m 0
 -60 -96 -59 -95 -37 -95 c 0
 -2 -95 34 -95 69 -95 c 0
 107 -95 104 -87 110 -57 c 2
 267 674 l 2
 271 691 275 702 275 710 c 0
 275 721 267 725 236 725 c 2
 147 725 l 2
 133 725 130 727 130 747 c 2
 130 760 l 2
 130 778 132 780 158 780 c 2
 339 780 l 2
 369 780 377 776 377 765 c 0
 377 757 372 744 369 727 c 2
 188 -115 l 2
 181 -147 172 -150 146 -150 c 2
 -36 -150 l 2
 -57 -150 -60 -148 -60 -121 c 0
EndSplineSet
EndChar

StartChar: braceright
Encoding: 125 125 95
Width: 272
VWidth: 1155
Flags: HMW
LayerCount: 2
Fore
SplineSet
168 777 m 0
 267 766 297 724 297 640 c 0
 297 523 177 458 177 395 c 0
 177 369 181 358 191 351 c 0
 204 342 217 347 217 319 c 0
 217 287 214 290 190 281 c 0
 162 271 131 254 131 224 c 0
 131 161 157 136 157 29 c 0
 157 -54 112 -137 -26 -149 c 0
 -33 -149 -38 -150 -43 -150 c 0
 -57 -150 -60 -145 -60 -122 c 0
 -60 -98 -54 -104 -34 -101 c 0
 18 -93 64 -63 64 -17 c 0
 64 49 40 59 40 159 c 0
 40 224 61 268 101 297 c 0
 123 313 133 313 133 320 c 0
 133 324 130 331 123 344 c 0
 115 360 110 381 110 410 c 0
 110 510 204 580 204 646 c 0
 204 693 186 718 151 728 c 0
 128 734 110 723 110 756 c 0
 110 776 120 781 133 781 c 0
 143 781 156 778 168 777 c 0
EndSplineSet
EndChar

StartChar: bar
Encoding: 124 124 96
Width: 300
VWidth: 1155
Flags: HMW
LayerCount: 2
Fore
SplineSet
214 780 m 2
 253 780 l 2
 273 780 278 779 278 772 c 0
 278 768 276 762 274 753 c 2
 48 -215 l 2
 42 -242 46 -250 11 -250 c 2
 -20 -250 l 2
 -42 -250 -48 -248 -48 -240 c 0
 -48 -235 -45 -228 -43 -218 c 2
 182 744 l 2
 188 768 183 780 214 780 c 2
EndSplineSet
EndChar

StartChar: exclamdown
Encoding: 161 161 97
Width: 319
Flags: HMW
LayerCount: 2
Fore
SplineSet
4 -127 m 0
 54 33 105 157 141 294 c 0
 144 307 141 315 159 315 c 2
 172 315 l 2
 182 315 185 312 185 307 c 0
 185 303 183 298 182 293 c 0
 151 155 153 17 119 -155 c 0
 111 -195 98 -239 56 -239 c 0
 14 -239 -6 -214 -6 -182 c 0
 -6 -164 -1 -143 4 -127 c 0
269 470 m 0
 269 437 242 410 209 410 c 0
 176 410 149 437 149 470 c 0
 149 503 176 530 209 530 c 0
 242 530 269 503 269 470 c 0
EndSplineSet
EndChar

StartChar: cent
Encoding: 162 162 98
Width: 540
VWidth: 1155
Flags: HMW
LayerCount: 2
Fore
SplineSet
196 75 m 2
 295 458 l 2
 297 465 298 469 298 472 c 0
 298 475 296 476 294 476 c 0
 291 476 287 474 279 471 c 0
 188 432 122 306 122 170 c 0
 122 119 129 76 157 54 c 0
 166 47 173 43 178 43 c 0
 187 43 191 55 196 75 c 2
348 615 m 2
 368 615 l 2
 385 615 389 613 389 609 c 0
 389 607 388 605 387 601 c 2
 373 546 l 2
 371 540 370 536 370 533 c 0
 370 527 375 528 388 525 c 0
 462 510 490 460 490 392 c 0
 490 334 451 315 417 315 c 0
 389 315 362 331 362 368 c 0
 362 404 394 414 394 437 c 0
 394 455 388 469 371 477 c 0
 367 479 363 480 361 480 c 0
 354 480 354 473 351 462 c 2
 253 82 l 2
 250 69 245 59 245 53 c 0
 245 49 247 47 251 47 c 0
 255 47 260 49 268 52 c 0
 310 70 346 104 373 138 c 0
 385 153 393 173 418 173 c 2
 434 173 l 2
 442 173 444 170 444 165 c 0
 444 157 437 146 433 140 c 0
 395 79 333 19 255 -2 c 0
 234 -8 231 -6 225 -28 c 2
 216 -64 l 2
 213 -77 215 -85 197 -85 c 2
 169 -85 l 2
 151 -85 157 -80 160 -67 c 2
 169 -30 l 2
 170 -24 171 -20 171 -17 c 0
 171 -7 163 -10 144 -6 c 0
 65 8 20 61 20 170 c 0
 20 350 146 497 289 525 c 0
 313 530 313 530 319 552 c 2
 331 600 l 2
 334 611 333 615 348 615 c 2
EndSplineSet
EndChar

StartChar: sterling
Encoding: 163 163 99
Width: 530
VWidth: 1155
Flags: HMW
LayerCount: 2
Fore
SplineSet
494 128 m 0
 456 6 372 -30 289 -30 c 0
 152 -30 121 30 58 30 c 0
 27 30 8 19 -7 -0 c 0
 -11 -5 -16 -20 -25 -20 c 2
 -49 -20 l 2
 -64 -20 -69 -16 -69 -9 c 0
 -69 -3 -66 5 -63 14 c 0
 -30 132 109 202 123 261 c 0
 126 276 131 293 131 306 c 0
 131 320 125 330 106 330 c 2
 -17 330 l 2
 -35 330 -39 332 -39 337 c 0
 -39 341 -36 348 -36 357 c 0
 -36 359 -37 362 -37 365 c 0
 -37 367 -37 369 -37 371 c 0
 -37 384 -29 385 -13 385 c 0
 18 385 49 385 80 385 c 0
 108 385 117 385 117 396 c 0
 117 401 115 409 112 420 c 0
 107 443 102 467 102 493 c 0
 102 511 104 530 109 550 c 0
 141 690 262 760 423 760 c 0
 556 760 617 704 617 635 c 0
 617 625 616 616 614 606 c 0
 603 558 563 540 534 540 c 0
 511 540 489 555 489 583 c 0
 489 588 490 593 491 598 c 0
 499 635 538 639 538 666 c 0
 538 692 483 718 413 718 c 0
 294 718 239 634 222 560 c 0
 217 538 215 517 215 497 c 0
 215 464 220 434 224 406 c 0
 227 386 228 385 244 385 c 2
 398 385 l 2
 411 385 415 385 415 379 c 0
 415 376 414 372 413 366 c 2
 408 345 l 2
 405 332 399 330 388 330 c 0
 345 330 302 330 259 330 c 0
 252 330 246 331 240 331 c 0
 231 331 225 329 223 320 c 0
 196 204 126 173 63 116 c 0
 45 99 30 89 30 86 c 0
 30 85 30 85 32 85 c 0
 36 85 46 88 63 92 c 0
 76 95 91 97 108 97 c 0
 208 97 240 63 316 63 c 0
 368 63 419 85 443 127 c 0
 453 144 447 157 475 157 c 0
 494 157 500 154 500 148 c 0
 500 144 497 137 494 128 c 0
EndSplineSet
EndChar

StartChar: yen
Encoding: 165 165 100
Width: 780
Flags: HMW
LayerCount: 2
Fore
SplineSet
92 750 m 2
 330 750 l 2
 341 750 351 751 358 751 c 0
 374 751 380 747 380 720 c 0
 380 698 375 694 362 694 c 0
 356 694 349 695 340 695 c 2
 306 695 l 2
 288 695 280 695 280 688 c 0
 280 686 281 682 283 678 c 2
 400 420 l 2
 408 402 414 394 419 394 c 0
 426 394 434 409 449 426 c 2
 662 678 l 2
 666 682 668 686 668 688 c 0
 668 694 657 695 643 695 c 0
 625 695 608 695 590 695 c 0
 582 695 576 694 571 694 c 0
 560 694 555 697 555 716 c 0
 555 723 554 730 554 735 c 0
 554 745 557 750 574 750 c 2
 840 750 l 2
 853 750 855 748 855 728 c 0
 855 721 856 715 856 710 c 0
 856 700 853 695 838 695 c 2
 784 695 l 2
 756 695 751 692 739 678 c 2
 465 358 l 2
 463 355 460 353 458 350 c 1
 498 350 538 350 578 350 c 0
 605 350 605 350 605 323 c 2
 605 318 l 2
 605 296 604 295 579 295 c 0
 530 295 481 295 432 295 c 1
 432 294 432 293 432 292 c 2
 411 200 l 1
 455 200 499 200 543 200 c 0
 570 200 570 200 570 173 c 2
 570 168 l 2
 570 146 569 145 544 145 c 0
 495 145 447 145 398 145 c 1
 388 102 l 2
 385 88 379 76 379 68 c 0
 379 60 385 55 406 55 c 2
 470 55 l 2
 499 55 499 55 499 26 c 2
 499 12 l 2
 499 3 497 0 482 0 c 2
 168 -0 l 2
 157 0 154 2 154 20 c 0
 154 28 153 34 153 39 c 0
 153 51 156 55 176 55 c 2
 248 55 l 2
 281 55 279 60 285 86 c 2
 298 145 l 1
 251 145 203 145 156 145 c 0
 132 145 130 148 130 165 c 2
 130 177 l 2
 130 198 135 201 147 201 c 0
 152 201 159 200 167 200 c 2
 240 200 l 1
 246 201 255 200 267 200 c 2
 311 200 l 1
 329 282 l 2
 330 287 331 291 332 295 c 1
 285 295 238 295 191 295 c 0
 167 295 165 298 165 315 c 2
 165 327 l 2
 165 348 170 351 182 351 c 0
 187 351 194 350 202 350 c 2
 275 350 l 1
 281 351 290 350 302 350 c 2
 323 350 l 1
 322 353 320 356 318 360 c 2
 174 668 l 2
 162 693 160 695 122 695 c 2
 92 695 l 2
 72 695 70 697 70 710 c 2
 70 734 l 2
 70 748 72 750 92 750 c 2
EndSplineSet
EndChar

StartChar: section
Encoding: 167 167 101
Width: 534
VWidth: 1155
Flags: HMW
LayerCount: 2
Fore
SplineSet
156 459 m 0
 145 442 130 419 130 391 c 0
 130 331 222 315 301 284 c 0
 314 279 322 276 329 276 c 0
 352 276 377 332 377 358 c 0
 377 420 279 437 199 469 c 0
 187 474 180 478 175 478 c 0
 169 478 165 473 156 459 c 0
167 41 m 0
 232 41 323 69 323 128 c 0
 323 225 26 219 26 352 c 0
 26 359 27 367 29 375 c 0
 42 432 70 461 112 488 c 0
 125 496 130 499 130 503 c 0
 130 507 125 512 116 523 c 0
 104 538 97 556 97 578 c 0
 97 587 99 597 101 608 c 0
 125 712 226 760 321 760 c 0
 418 760 505 726 505 643 c 0
 505 633 504 623 501 612 c 0
 490 564 448 536 419 536 c 0
 396 536 374 551 374 579 c 0
 374 624 417 633 422 658 c 0
 423 660 423 662 423 664 c 0
 423 693 369 709 320 709 c 0
 257 709 196 681 185 634 c 0
 184 630 184 626 184 622 c 0
 184 525 471 531 471 399 c 0
 471 391 470 383 468 375 c 0
 459 335 436 297 397 266 c 0
 383 255 378 251 378 247 c 0
 378 243 383 238 393 224 c 0
 403 209 410 192 410 171 c 0
 410 162 408 153 406 142 c 0
 382 38 261 -10 156 -10 c 0
 60 -10 -35 23 -35 113 c 0
 -35 124 -34 136 -31 148 c 0
 -20 196 21 224 50 224 c 0
 73 224 96 208 96 180 c 0
 96 136 52 126 47 102 c 0
 47 100 46 99 46 97 c 0
 46 66 118 41 167 41 c 0
EndSplineSet
EndChar

StartChar: brokenbar
Encoding: 166 166 102
Width: 300
VWidth: 1155
Flags: HMW
LayerCount: 2
Fore
SplineSet
210 780 m 2
 254 780 l 2
 272 780 278 774 278 765 c 0
 278 754 270 738 267 723 c 2
 202 447 l 2
 194 415 197 409 156 409 c 2
 128 409 l 2
 110 409 105 414 105 423 c 0
 105 434 113 449 116 463 c 2
 185 759 l 2
 190 778 195 780 210 780 c 2
84 166 m 2
 112 166 l 2
 130 166 135 162 135 155 c 0
 135 148 131 138 128 126 c 2
 47 -218 l 2
 42 -238 47 -250 20 -250 c 2
 -24 -250 l 2
 -43 -250 -48 -245 -48 -237 c 0
 -48 -228 -42 -216 -39 -202 c 2
 38 128 l 2
 46 160 43 166 84 166 c 2
EndSplineSet
EndChar

StartChar: dieresis
Encoding: 168 168 103
Width: 400
Flags: HMW
LayerCount: 2
Fore
SplineSet
330 740 m 0
 330 773 357 800 390 800 c 0
 423 800 450 773 450 740 c 0
 450 707 423 680 390 680 c 0
 357 680 330 707 330 740 c 0
130 740 m 0
 130 773 157 800 190 800 c 0
 223 800 250 773 250 740 c 0
 250 707 223 680 190 680 c 0
 157 680 130 707 130 740 c 0
EndSplineSet
EndChar

StartChar: asciitilde
Encoding: 126 126 104
Width: 688
VWidth: 1155
Flags: HMW
LayerCount: 2
Fore
SplineSet
243 437 m 0
 194 437 157 406 143 372 c 0
 133 347 142 343 107 343 c 0
 87 343 81 346 81 354 c 0
 81 359 84 368 87 378 c 0
 111 455 183 510 269 510 c 0
 369 510 369 416 445 416 c 0
 493 416 529 446 544 479 c 0
 556 505 545 510 582 510 c 0
 601 510 606 509 606 501 c 0
 606 497 605 492 603 484 c 0
 582 402 509 343 419 343 c 0
 302 343 306 437 243 437 c 0
EndSplineSet
EndChar

StartChar: copyright
Encoding: 169 169 105
Width: 870
Flags: HMW
LayerCount: 2
Fore
SplineSet
75 285 m 0
 75 140 200 39 335 39 c 0
 570 39 775 220 775 465 c 0
 775 610 660 711 515 711 c 0
 280 711 75 520 75 285 c 0
20 285 m 0
 20 538 248 760 515 760 c 0
 692 760 830 638 830 465 c 0
 830 202 602 -10 335 -10 c 0
 158 -10 20 112 20 285 c 0
605 285 m 0
 572 214 501 144 389 144 c 0
 285 144 209 207 209 333 c 0
 209 460 318 606 473 606 c 0
 522 606 558 594 584 576 c 0
 601 564 607 554 613 554 c 0
 617 554 621 560 631 576 c 0
 636 585 640 600 654 600 c 2
 666 600 l 2
 675 600 678 597 678 593 c 0
 678 589 675 583 673 576 c 2
 651 470 l 2
 648 454 651 447 630 447 c 0
 611 447 614 448 614 464 c 0
 614 526 557 569 478 569 c 0
 351 569 278 438 278 333 c 0
 278 236 320 182 400 182 c 0
 471 182 525 226 558 278 c 0
 570 296 573 315 591 315 c 2
 604 315 l 2
 613 315 616 312 616 308 c 0
 616 302 609 292 605 285 c 0
EndSplineSet
EndChar

StartChar: registered
Encoding: 174 174 106
Width: 870
Flags: HMW
LayerCount: 2
Fore
SplineSet
75 285 m 0
 75 140 200 39 335 39 c 0
 570 39 775 220 775 465 c 0
 775 610 660 711 515 711 c 0
 280 711 75 520 75 285 c 0
20 285 m 0
 20 538 248 760 515 760 c 0
 692 760 830 638 830 465 c 0
 830 202 602 -10 335 -10 c 0
 158 -10 20 112 20 285 c 0
383 391 m 2
 449 391 l 2
 495 391 563 431 563 496 c 0
 563 537 543 565 491 565 c 2
 410 565 l 2
 381 565 383 561 378 537 c 2
 355 427 l 2
 352 415 350 407 350 402 c 0
 350 393 357 391 383 391 c 2
626 183 m 0
 614 159 590 142 557 142 c 0
 507 142 494 167 494 200 c 0
 494 230 505 267 505 297 c 0
 505 330 493 355 443 355 c 2
 365 355 l 2
 342 355 339 354 334 332 c 2
 309 213 l 2
 307 203 303 195 303 190 c 0
 303 184 308 181 322 181 c 2
 356 181 l 2
 370 181 372 183 372 168 c 0
 372 152 375 148 358 148 c 2
 191 148 l 2
 176 148 174 149 174 170 c 0
 174 183 176 181 189 181 c 2
 221 181 l 2
 247 181 244 189 248 209 c 2
 320 546 l 2
 322 552 323 557 323 560 c 0
 323 565 319 565 306 565 c 2
 280 565 l 2
 267 565 264 566 264 584 c 0
 264 596 267 599 274 599 c 0
 278 599 282 598 288 598 c 2
 491 598 l 2
 594 598 623 550 623 496 c 0
 623 448 597 396 542 384 c 0
 526 380 519 378 519 375 c 0
 519 372 527 367 542 355 c 0
 558 342 567 323 567 302 c 0
 567 268 554 229 554 207 c 0
 554 194 563 183 577 183 c 0
 586 183 597 185 606 195 c 0
 614 204 612 210 624 203 c 0
 634 197 631 194 626 183 c 0
EndSplineSet
EndChar

StartChar: logicalnot
Encoding: 172 172 107
Width: 480
Flags: HMW
LayerCount: 2
Fore
SplineSet
119 615 m 2
 444 615 l 2
 476 615 475 615 475 588 c 0
 475 578 475 571 474 567 c 1
 474 427 l 2
 474 413 472 412 456 412 c 2
 443 412 l 2
 422 412 419 415 419 422 c 0
 419 425 420 429 420 434 c 2
 420 560 l 1
 106 560 l 2
 77 560 75 563 75 581 c 2
 75 592 l 2
 75 613 81 616 96 616 c 0
 102 616 110 615 119 615 c 2
EndSplineSet
EndChar

StartChar: guillemotleft
Encoding: 171 171 108
Width: 695
Flags: HMW
LayerCount: 2
Fore
SplineSet
388 626 m 0
 395 626 407 595 407 590 c 0
 407 585 403 580 393 573 c 2
 152 402 l 2
 142 395 135 392 135 387 c 0
 135 384 138 380 144 374 c 2
 296 214 l 2
 308 202 313 195 313 189 c 0
 313 182 289 151 276 151 c 0
 267 151 259 161 244 174 c 2
 16 363 l 2
 7 370 2 372 5 386 c 0
 9 403 16 405 29 413 c 2
 370 617 l 2
 379 623 384 626 388 626 c 0
594 189 m 0
 594 183 568 151 558 151 c 0
 552 151 545 157 533 167 c 2
 314 349 l 2
 301 360 284 365 284 382 c 0
 284 403 301 409 314 416 c 2
 631 606 l 2
 643 613 655 625 665 625 c 0
 670 625 674 623 677 616 c 0
 682 603 686 596 686 590 c 0
 686 582 680 577 665 567 c 2
 440 408 l 2
 424 397 418 391 418 385 c 0
 418 378 426 371 440 357 c 2
 580 210 l 2
 590 200 594 194 594 189 c 0
EndSplineSet
EndChar

StartChar: guillemotright
Encoding: 187 187 109
Width: 695
Flags: HMW
LayerCount: 2
Fore
SplineSet
307 148 m 0
 300 148 288 180 288 185 c 0
 288 190 292 195 302 202 c 2
 543 373 l 2
 553 380 560 383 560 388 c 0
 560 391 557 395 551 401 c 2
 399 561 l 2
 387 573 382 580 382 586 c 0
 382 593 406 624 419 624 c 0
 428 624 436 614 451 601 c 2
 679 412 l 2
 688 405 693 403 690 389 c 0
 686 372 679 370 666 362 c 2
 325 158 l 2
 316 152 311 148 307 148 c 0
101 586 m 0
 101 592 127 624 137 624 c 0
 143 624 150 618 162 608 c 2
 381 426 l 2
 394 415 411 410 411 393 c 0
 411 372 394 366 381 359 c 2
 64 169 l 2
 52 162 40 150 30 150 c 0
 25 150 21 152 18 159 c 0
 13 172 9 179 9 185 c 0
 9 193 15 198 30 208 c 2
 255 367 l 2
 271 378 277 384 277 390 c 0
 277 397 269 404 255 418 c 2
 115 565 l 2
 105 575 101 581 101 586 c 0
EndSplineSet
EndChar

StartChar: uni00AD
Encoding: 173 173 110
Width: 460
Flags: HMW
LayerCount: 2
Fore
SplineSet
107 415 m 2
 383 415 l 2
 410 415 410 415 410 388 c 2
 410 383 l 2
 410 361 409 360 384 360 c 2
 96 360 l 2
 72 360 70 363 70 380 c 2
 70 392 l 2
 70 413 75 416 87 416 c 0
 92 416 99 415 107 415 c 2
EndSplineSet
EndChar

StartChar: mu
Encoding: 181 181 111
Width: 685
VWidth: 1155
Flags: HMW
LayerCount: 2
Fore
SplineSet
626 171 m 0
 641 171 651 160 651 152 c 0
 651 140 638 124 630 109 c 0
 591 38 534 -10 477 -10 c 0
 430 -10 406 13 406 63 c 0
 406 68 407 79 408 85 c 2
 417 124 l 2
 421 142 423 152 423 155 c 2
 423 157 l 1
 421 157 415 144 404 127 c 0
 351 43 285 -9 217 -9 c 0
 190 -9 167 -5 148 5 c 0
 134 13 127 22 123 22 c 0
 119 22 118 16 113 -2 c 2
 82 -119 l 2
 80 -125 80 -130 80 -135 c 0
 80 -158 98 -162 109 -162 c 0
 129 -162 128 -143 163 -143 c 0
 196 -143 219 -167 219 -201 c 0
 219 -236 176 -260 138 -260 c 0
 76 -260 28 -224 28 -158 c 0
 28 -147 29 -135 32 -122 c 2
 107 164 l 1
 111 185 118 204 123 224 c 0
 132 256 140 289 149 321 c 2
 177 424 l 2
 180 433 181 444 181 449 c 0
 181 460 176 468 163 468 c 0
 134 468 94 426 69 372 c 0
 61 356 61 348 52 348 c 0
 45 348 22 356 22 361 c 0
 22 364 24 367 27 374 c 0
 66 465 131 530 198 530 c 0
 245 530 269 507 269 457 c 0
 269 452 267 436 265 428 c 2
 214 238 l 2
 207 213 200 188 194 164 c 0
 187 137 182 113 182 94 c 0
 182 63 195 44 230 44 c 0
 308 44 407 182 454 306 c 0
 464 332 470 357 477 386 c 2
 500 488 l 2
 506 516 504 520 540 520 c 2
 586 520 l 2
 595 520 598 515 598 509 c 0
 598 500 591 487 589 478 c 2
 496 89 l 2
 495 83 494 76 494 71 c 0
 494 60 499 52 512 52 c 0
 537 52 569 82 593 124 c 0
 604 143 607 171 626 171 c 0
EndSplineSet
EndChar

StartChar: plusminus
Encoding: 177 177 112
Width: 530
Flags: HMW
LayerCount: 2
Fore
SplineSet
37 83 m 2
 369 83 l 2
 401 83 402 83 402 56 c 2
 402 48 l 2
 402 29 400 28 371 28 c 2
 23 28 l 2
 -5 28 -8 31 -8 47 c 2
 -8 60 l 2
 -8 81 -2 84 13 84 c 0
 19 84 27 83 37 83 c 2
334 383 m 2
 453 383 l 2
 459 383 464 384 468 384 c 0
 476 384 480 381 480 367 c 2
 480 351 l 2
 480 331 477 328 448 328 c 2
 319 328 l 2
 294 328 296 322 291 303 c 2
 258 168 l 2
 253 151 252 150 235 150 c 0
 233 150 231 150 229 150 c 0
 205 150 198 154 198 163 c 0
 198 171 203 182 207 197 c 2
 234 307 l 2
 236 314 237 319 237 322 c 0
 237 328 232 328 214 328 c 2
 93 328 l 2
 72 328 70 331 70 345 c 2
 70 357 l 2
 70 382 71 383 93 383 c 0
 139 383 186 383 232 383 c 0
 259 383 255 392 260 412 c 2
 291 541 l 2
 294 552 292 560 307 560 c 2
 324 560 l 2
 342 560 351 560 351 550 c 0
 351 548 351 546 350 543 c 2
 319 417 l 2
 317 406 313 398 313 392 c 0
 313 386 317 383 334 383 c 2
EndSplineSet
EndChar

StartChar: asciicircum
Encoding: 94 94 113
Width: 545
Flags: HMW
LayerCount: 2
Fore
SplineSet
551 583 m 0
 551 578 530 564 521 564 c 0
 514 564 510 570 500 580 c 2
 379 703 l 2
 371 711 363 711 354 705 c 2
 166 575 l 2
 156 568 151 564 144 564 c 0
 137 564 114 576 114 581 c 0
 114 585 121 589 131 597 c 2
 326 758 l 2
 337 767 341 770 362 770 c 2
 387 770 l 2
 407 770 408 766 416 756 c 2
 538 602 l 2
 546 592 551 587 551 583 c 0
EndSplineSet
EndChar

StartChar: periodcentered
Encoding: 183 183 114
Width: 198
Flags: HMW
LayerCount: 2
Fore
SplineSet
50 400 m 0
 50 433 77 460 110 460 c 0
 143 460 170 433 170 400 c 0
 170 367 143 340 110 340 c 0
 77 340 50 367 50 400 c 0
EndSplineSet
EndChar

StartChar: degree
Encoding: 176 176 115
Width: 320
Flags: HMW
LayerCount: 2
Fore
SplineSet
175 680 m 0
 175 643 203 615 240 615 c 0
 277 615 305 643 305 680 c 0
 305 717 277 745 240 745 c 0
 203 745 175 717 175 680 c 0
120 680 m 0
 120 746 174 800 240 800 c 0
 306 800 360 746 360 680 c 0
 360 614 306 560 240 560 c 0
 174 560 120 614 120 680 c 0
EndSplineSet
EndChar

StartChar: ordfeminine
Encoding: 170 170 116
Width: 353
VWidth: 1155
Flags: HMW
LayerCount: 2
Fore
SplineSet
350 556 m 0
 326 508 290 476 253 476 c 0
 225 476 211 490 211 520 c 2
 211 528 l 1
 213 542 199 519 194 514 c 0
 171 491 143 476 112 476 c 0
 59 476 8 506 8 590 c 0
 8 710 113 799 178 799 c 0
 210 799 230 788 243 767 c 0
 249 757 252 735 256 735 c 0
 257 735 259 739 261 748 c 2
 268 780 l 2
 271 794 272 794 290 794 c 2
 308 794 l 2
 321 794 325 793 325 789 c 0
 325 786 324 782 322 776 c 2
 265 535 l 2
 264 532 263 528 263 525 c 0
 263 518 266 513 274 513 c 0
 292 513 316 539 331 572 c 0
 338 586 336 587 352 582 c 0
 365 578 355 566 350 556 c 0
241 674 m 0
 241 724 231 769 182 769 c 0
 132 769 68 676 68 590 c 0
 68 540 90 507 128 507 c 0
 183 507 241 606 241 674 c 0
EndSplineSet
EndChar

StartChar: uni00B2
Encoding: 178 178 117
Width: 470
VWidth: 1155
Flags: HMW
LayerCount: 2
Fore
SplineSet
354 542 m 0
 335 468 301 439 244 439 c 0
 180 439 165 475 127 475 c 0
 110 475 97 469 89 459 c 0
 84 453 86 445 74 445 c 2
 56 445 l 2
 50 445 48 447 48 451 c 0
 48 456 52 465 54 470 c 0
 80 548 151 591 215 618 c 0
 277 644 317 683 317 721 c 0
 317 759 293 771 258 771 c 0
 214 771 176 753 176 737 c 0
 176 723 192 724 192 702 c 0
 192 680 174 667 158 667 c 0
 141 667 120 678 120 707 c 0
 120 756 196 799 263 799 c 0
 330 799 384 775 384 715 c 0
 384 649 322 610 224 580 c 0
 185 568 140 543 110 511 c 0
 103 503 99 499 99 497 c 0
 99 496 99 496 100 496 c 0
 102 496 110 500 120 504 c 0
 134 510 147 516 165 516 c 0
 213 516 220 495 260 495 c 0
 290 495 308 511 318 533 c 0
 323 545 320 551 338 551 c 2
 351 551 l 2
 359 551 355 547 354 542 c 0
EndSplineSet
EndChar

StartChar: uni00B3
Encoding: 179 179 118
Width: 450
VWidth: 1155
Flags: HMW
LayerCount: 2
Fore
SplineSet
35 444 m 0
 35 473 58 496 81 496 c 0
 101 496 114 485 114 467 c 0
 114 430 85 438 85 420 c 0
 85 404 103 389 147 389 c 0
 224 389 265 449 265 511 c 0
 265 555 241 577 192 582 c 0
 172 584 168 580 168 603 c 0
 168 617 180 613 192 614 c 0
 274 622 301 670 301 716 c 0
 301 754 284 771 243 771 c 0
 205 771 160 753 160 737 c 0
 160 723 180 721 180 699 c 0
 180 677 161 665 145 665 c 0
 128 665 107 675 107 704 c 0
 107 753 170 799 255 799 c 0
 310 799 362 776 362 716 c 0
 362 665 339 626 273 607 c 0
 259 603 250 602 250 599 c 0
 250 597 254 595 266 591 c 0
 308 577 326 553 326 511 c 0
 326 427 256 361 147 361 c 0
 68 361 35 401 35 444 c 0
EndSplineSet
EndChar

StartChar: onequarter
Encoding: 188 188 119
Width: 1000
Flags: HMW
LayerCount: 2
Fore
SplineSet
701 750 m 1
 765 750 l 1
 304 0 l 1
 235 0 l 1
 701 750 l 1
778 -47 m 0
 778 -62 771 -58 758 -58 c 2
 637 -58 l 2
 626 -58 619 -61 619 -49 c 0
 619 -43 618 -39 618 -35 c 0
 618 -28 620 -25 632 -25 c 2
 662 -25 l 2
 673 -25 677 -24 680 -11 c 2
 695 54 l 2
 698 66 702 71 686 71 c 2
 550 71 l 2
 536 71 529 67 529 82 c 0
 529 93 530 98 534 105 c 0
 577 188 737 278 753 356 c 0
 756 369 756 368 771 368 c 2
 785 368 l 2
 798 368 802 370 800 357 c 0
 788 265 632 189 578 120 c 0
 573 114 571 110 571 108 c 0
 571 105 576 104 590 104 c 2
 689 104 l 2
 706 104 706 104 709 118 c 2
 721 175 l 2
 723 186 726 188 734 193 c 0
 749 202 765 215 776 236 c 0
 779 242 779 253 789 253 c 0
 801 253 797 248 795 240 c 2
 767 117 l 2
 765 106 762 104 776 104 c 2
 801 104 l 2
 814 104 814 104 814 91 c 0
 814 73 815 71 797 71 c 2
 769 71 l 2
 757 71 756 71 754 61 c 2
 739 -7 l 2
 736 -19 730 -25 747 -25 c 2
 768 -25 l 2
 782 -25 778 -35 778 -47 c 0
339 456 m 2
 125 456 l 2
 111 456 110 457 110 474 c 0
 110 490 111 489 127 489 c 2
 188 489 l 2
 218 489 215 494 221 517 c 2
 260 680 l 2
 262 687 264 692 264 696 c 0
 264 701 260 702 248 702 c 2
 185 702 l 2
 176 702 174 704 174 718 c 0
 174 734 173 735 189 735 c 2
 198 735 l 2
 236 735 269 736 314 800 c 0
 318 806 318 810 330 810 c 0
 350 810 347 808 343 793 c 2
 280 526 l 2
 277 515 272 506 272 499 c 0
 272 493 277 489 292 489 c 2
 351 489 l 2
 364 489 365 486 365 478 c 2
 365 467 l 2
 365 457 361 455 354 455 c 0
 350 455 344 456 339 456 c 2
EndSplineSet
EndChar

StartChar: onehalf
Encoding: 189 189 120
Width: 1000
Flags: HMW
LayerCount: 2
Fore
SplineSet
701 750 m 1
 765 750 l 1
 304 0 l 1
 235 0 l 1
 701 750 l 1
854 102 m 0
 835 28 801 -1 744 -1 c 0
 680 -1 665 35 627 35 c 0
 610 35 597 29 589 19 c 0
 584 13 586 5 574 5 c 2
 556 5 l 2
 550 5 548 7 548 11 c 0
 548 16 552 25 554 30 c 0
 580 108 651 151 715 178 c 0
 777 204 817 243 817 281 c 0
 817 319 793 331 758 331 c 0
 714 331 676 313 676 297 c 0
 676 283 692 284 692 262 c 0
 692 240 674 227 658 227 c 0
 641 227 620 238 620 267 c 0
 620 316 696 359 763 359 c 0
 830 359 884 335 884 275 c 0
 884 209 822 170 724 140 c 0
 685 128 640 103 610 71 c 0
 603 63 599 59 599 57 c 0
 599 56 599 56 600 56 c 0
 602 56 610 60 620 64 c 0
 634 70 647 76 665 76 c 0
 713 76 720 55 760 55 c 0
 790 55 808 71 818 93 c 0
 823 105 820 111 838 111 c 2
 851 111 l 2
 859 111 855 107 854 102 c 0
339 456 m 2
 125 456 l 2
 111 456 110 457 110 474 c 0
 110 490 111 489 127 489 c 2
 188 489 l 2
 218 489 215 494 221 517 c 2
 260 680 l 2
 262 687 264 692 264 696 c 0
 264 701 260 702 248 702 c 2
 185 702 l 2
 176 702 174 704 174 718 c 0
 174 734 173 735 189 735 c 2
 198 735 l 2
 236 735 269 736 314 800 c 0
 318 806 318 810 330 810 c 0
 350 810 347 808 343 793 c 2
 280 526 l 2
 277 515 272 506 272 499 c 0
 272 493 277 489 292 489 c 2
 351 489 l 2
 364 489 365 486 365 478 c 2
 365 467 l 2
 365 457 361 455 354 455 c 0
 350 455 344 456 339 456 c 2
EndSplineSet
EndChar

StartChar: threequarters
Encoding: 190 190 121
Width: 1000
Flags: HMW
LayerCount: 2
Fore
SplineSet
701 750 m 1
 765 750 l 1
 304 0 l 1
 235 0 l 1
 701 750 l 1
778 -47 m 0
 778 -62 771 -58 758 -58 c 2
 637 -58 l 2
 626 -58 619 -61 619 -49 c 0
 619 -43 618 -39 618 -35 c 0
 618 -28 620 -25 632 -25 c 2
 662 -25 l 2
 673 -25 677 -24 680 -11 c 2
 695 54 l 2
 698 66 702 71 686 71 c 2
 550 71 l 2
 536 71 529 67 529 82 c 0
 529 93 530 98 534 105 c 0
 577 188 737 278 753 356 c 0
 756 369 756 368 771 368 c 2
 785 368 l 2
 798 368 802 370 800 357 c 0
 788 265 632 189 578 120 c 0
 573 114 571 110 571 108 c 0
 571 105 576 104 590 104 c 2
 689 104 l 2
 706 104 706 104 709 118 c 2
 721 175 l 2
 723 186 726 188 734 193 c 0
 749 202 765 215 776 236 c 0
 779 242 779 253 789 253 c 0
 801 253 797 248 795 240 c 2
 767 117 l 2
 765 106 762 104 776 104 c 2
 801 104 l 2
 814 104 814 104 814 91 c 0
 814 73 815 71 797 71 c 2
 769 71 l 2
 757 71 756 71 754 61 c 2
 739 -7 l 2
 736 -19 730 -25 747 -25 c 2
 768 -25 l 2
 782 -25 778 -35 778 -47 c 0
35 444 m 0
 35 473 58 496 81 496 c 0
 101 496 114 485 114 467 c 0
 114 430 85 438 85 420 c 0
 85 404 103 389 147 389 c 0
 224 389 265 449 265 511 c 0
 265 555 241 577 192 582 c 0
 172 584 168 580 168 603 c 0
 168 617 180 613 192 614 c 0
 274 622 301 670 301 716 c 0
 301 754 284 771 243 771 c 0
 205 771 160 753 160 737 c 0
 160 723 180 721 180 699 c 0
 180 677 161 665 145 665 c 0
 128 665 107 675 107 704 c 0
 107 753 170 799 255 799 c 0
 310 799 362 776 362 716 c 0
 362 665 339 626 273 607 c 0
 259 603 250 602 250 599 c 0
 250 597 254 595 266 591 c 0
 308 577 326 553 326 511 c 0
 326 427 256 361 147 361 c 0
 68 361 35 401 35 444 c 0
EndSplineSet
EndChar

StartChar: uni00B9
Encoding: 185 185 122
Width: 530
VWidth: 1155
Flags: HMW
LayerCount: 2
Fore
SplineSet
339 456 m 2
 125 456 l 2
 111 456 110 457 110 474 c 0
 110 490 111 489 127 489 c 2
 188 489 l 2
 218 489 215 494 221 517 c 2
 260 680 l 2
 262 687 264 692 264 696 c 0
 264 701 260 702 248 702 c 2
 185 702 l 2
 176 702 174 704 174 718 c 0
 174 734 173 735 189 735 c 2
 198 735 l 2
 236 735 269 736 314 800 c 0
 318 806 318 810 330 810 c 0
 350 810 347 808 343 793 c 2
 280 526 l 2
 277 515 272 506 272 499 c 0
 272 493 277 489 292 489 c 2
 351 489 l 2
 364 489 365 486 365 478 c 2
 365 467 l 2
 365 457 361 455 354 455 c 0
 350 455 344 456 339 456 c 2
EndSplineSet
EndChar

StartChar: grave
Encoding: 96 96 123
Width: 395
Flags: HMW
LayerCount: 2
Fore
SplineSet
498 725 m 0
 498 708 491 711 476 711 c 2
 250 720 l 2
 231 721 215 736 215 755 c 0
 215 771 227 789 249 789 c 0
 252 789 256 789 260 788 c 2
 478 735 l 2
 491 732 498 734 498 725 c 0
EndSplineSet
EndChar

StartChar: acute
Encoding: 180 180 124
Width: 395
Flags: HMW
LayerCount: 2
Fore
SplineSet
295 720 m 2
 68 711 l 2
 56 711 51 708 48 718 c 0
 45 731 46 730 59 733 c 2
 285 788 l 2
 289 789 293 789 296 789 c 0
 318 789 330 771 330 755 c 0
 330 736 314 721 295 720 c 2
EndSplineSet
EndChar

StartChar: ordmasculine
Encoding: 186 186 125
Width: 568
VWidth: 1155
Flags: HMW
LayerCount: 2
Fore
SplineSet
189 589 m 0
 189 545 204 502 245 502 c 0
 310 502 361 593 361 685 c 0
 361 729 346 772 305 772 c 0
 240 772 189 681 189 589 c 0
126 589 m 0
 126 703 208 799 305 799 c 0
 378 799 424 751 424 685 c 0
 424 571 342 475 245 475 c 0
 172 475 126 523 126 589 c 0
EndSplineSet
EndChar

StartChar: questiondown
Encoding: 191 191 126
Width: 550
Flags: HMW
LayerCount: 2
Fore
SplineSet
275 243 m 0
 266 243 263 273 263 282 c 0
 263 296 269 304 287 312 c 0
 309 322 330 324 344 324 c 0
 404 324 440 287 440 235 c 0
 440 107 116 87 116 -80 c 0
 116 -154 165 -193 244 -193 c 0
 308 -193 366 -164 366 -142 c 0
 366 -112 335 -111 335 -60 c 0
 335 -18 368 0 403 0 c 0
 438 0 470 -23 470 -71 c 0
 470 -163 376 -240 224 -240 c 0
 93 -240 25 -180 25 -70 c 0
 25 157 370 155 370 236 c 0
 370 252 359 267 335 267 c 0
 328 267 316 266 303 261 c 0
 291 256 282 243 275 243 c 0
426 470 m 0
 426 437 399 410 366 410 c 0
 333 410 306 437 306 470 c 0
 306 503 333 530 366 530 c 0
 399 530 426 503 426 470 c 0
EndSplineSet
EndChar

StartChar: multiply
Encoding: 215 215 127
Width: 530
Flags: HMW
LayerCount: 2
Fore
SplineSet
293 354 m 1
 440 480 l 1
 479 441 l 1
 328 312 l 1
 429 189 l 1
 391 151 l 1
 287 277 l 1
 139 151 l 1
 100 190 l 1
 252 319 l 1
 151 441 l 1
 189 479 l 1
 293 354 l 1
EndSplineSet
EndChar

StartChar: cedilla
Encoding: 184 184 128
Width: 550
Flags: HMW
LayerCount: 2
Fore
SplineSet
101 -198 m 1
 114 -199 126 -200 138 -200 c 0
 221 -200 259 -171 259 -150 c 0
 259 -117 212 -99 87 -99 c 1
 197 41 l 1
 267 41 l 1
 186 -62 l 1
 269 -70 320 -98 320 -140 c 0
 320 -186 279 -241 137 -241 c 0
 126 -241 114 -241 101 -240 c 1
 101 -198 l 1
EndSplineSet
EndChar

StartChar: Agrave
Encoding: 192 192 129
Width: 900
VWidth: 0
Flags: HMW
LayerCount: 2
Fore
SplineSet
638 835 m 0
 638 818 631 821 616 821 c 2
 390 830 l 2
 371 831 356 846 356 865 c 0
 356 881 368 899 389 899 c 0
 392 899 396 899 400 898 c 2
 618 845 l 2
 631 842 638 844 638 835 c 0
587 704 m 2
 703 92 l 2
 709 61 705 55 744 55 c 2
 778 55 l 2
 785 55 791 56 796 56 c 0
 805 56 810 53 810 40 c 2
 810 30 l 2
 810 2 808 0 774 0 c 2
 544 0 l 2
 532 0 522 -2 513 -2 c 0
 499 -2 490 3 490 24 c 0
 490 27 490 30 490 33 c 0
 490 53 492 55 518 55 c 2
 566 55 l 2
 592 55 600 56 600 69 c 0
 600 74 599 81 597 90 c 2
 581 188 l 2
 575 219 572 220 540 220 c 2
 288 220 l 2
 245 220 236 220 220 194 c 2
 162 100 l 2
 154 88 139 73 139 64 c 0
 139 59 144 55 160 55 c 2
 212 55 l 2
 228 55 230 53 230 30 c 2
 230 18 l 2
 230 3 228 0 206 0 c 2
 -23 -0 l 2
 -49 0 -50 1 -50 30 c 2
 -50 43 l 2
 -50 52 -48 55 -32 55 c 2
 20 55 l 2
 72 55 71 74 90 104 c 2
 477 720 l 2
 501 759 499 765 527 765 c 2
 549 765 l 2
 582 765 582 730 587 704 c 2
484 618 m 2
 286 300 l 2
 280 290 276 285 276 281 c 0
 276 276 284 275 300 275 c 0
 380 275 460 275 540 275 c 0
 560 275 565 282 565 292 c 0
 565 303 560 317 557 332 c 2
 510 616 l 2
 507 636 505 644 502 644 c 0
 498 644 493 633 484 618 c 2
EndSplineSet
EndChar

StartChar: Aacute
Encoding: 193 193 130
Width: 900
VWidth: 0
Flags: HMW
LayerCount: 2
Fore
SplineSet
710 830 m 2
 484 821 l 2
 472 821 467 818 464 828 c 0
 461 841 461 840 474 843 c 2
 700 898 l 2
 704 899 708 899 711 899 c 0
 733 899 746 881 746 865 c 0
 746 846 729 831 710 830 c 2
587 704 m 2
 703 92 l 2
 709 61 705 55 744 55 c 2
 778 55 l 2
 785 55 791 56 796 56 c 0
 805 56 810 53 810 40 c 2
 810 30 l 2
 810 2 808 0 774 0 c 2
 544 0 l 2
 532 0 522 -2 513 -2 c 0
 499 -2 490 3 490 24 c 0
 490 27 490 30 490 33 c 0
 490 53 492 55 518 55 c 2
 566 55 l 2
 592 55 600 56 600 69 c 0
 600 74 599 81 597 90 c 2
 581 188 l 2
 575 219 572 220 540 220 c 2
 288 220 l 2
 245 220 236 220 220 194 c 2
 162 100 l 2
 154 88 139 73 139 64 c 0
 139 59 144 55 160 55 c 2
 212 55 l 2
 228 55 230 53 230 30 c 2
 230 18 l 2
 230 3 228 0 206 0 c 2
 -23 -0 l 2
 -49 0 -50 1 -50 30 c 2
 -50 43 l 2
 -50 52 -48 55 -32 55 c 2
 20 55 l 2
 72 55 71 74 90 104 c 2
 477 720 l 2
 501 759 499 765 527 765 c 2
 549 765 l 2
 582 765 582 730 587 704 c 2
484 618 m 2
 286 300 l 2
 280 290 276 285 276 281 c 0
 276 276 284 275 300 275 c 0
 380 275 460 275 540 275 c 0
 560 275 565 282 565 292 c 0
 565 303 560 317 557 332 c 2
 510 616 l 2
 507 636 505 644 502 644 c 0
 498 644 493 633 484 618 c 2
EndSplineSet
EndChar

StartChar: divide
Encoding: 247 247 131
Width: 560
Flags: HMW
LayerCount: 2
Fore
SplineSet
270 565 m 0
 270 598 297 625 330 625 c 0
 363 625 390 598 390 565 c 0
 390 532 363 505 330 505 c 0
 297 505 270 532 270 565 c 0
200 210 m 0
 200 243 227 270 260 270 c 0
 293 270 320 243 320 210 c 0
 320 177 293 150 260 150 c 0
 227 150 200 177 200 210 c 0
114 415 m 2
 487 415 l 2
 523 415 524 415 524 388 c 0
 524 361 525 360 488 360 c 2
 99 360 l 2
 67 360 64 363 64 380 c 2
 64 392 l 2
 64 413 70 416 87 416 c 0
 94 416 103 415 114 415 c 2
EndSplineSet
EndChar

StartChar: Acircumflex
Encoding: 194 194 132
Width: 900
VWidth: 0
Flags: HMW
LayerCount: 2
Fore
SplineSet
744 853 m 0
 744 848 723 834 714 834 c 0
 707 834 703 840 693 850 c 2
 572 973 l 2
 561 984 560 984 547 975 c 2
 359 845 l 2
 349 838 344 834 337 834 c 0
 330 834 307 846 307 851 c 0
 307 855 314 859 324 867 c 2
 519 1028 l 2
 530 1037 534 1040 555 1040 c 2
 580 1040 l 2
 600 1040 601 1036 609 1026 c 2
 731 872 l 2
 739 862 744 857 744 853 c 0
587 704 m 2
 703 92 l 2
 709 61 705 55 744 55 c 2
 778 55 l 2
 785 55 791 56 796 56 c 0
 805 56 810 53 810 40 c 2
 810 30 l 2
 810 2 808 0 774 0 c 2
 544 0 l 2
 532 0 522 -2 513 -2 c 0
 499 -2 490 3 490 24 c 0
 490 27 490 30 490 33 c 0
 490 53 492 55 518 55 c 2
 566 55 l 2
 592 55 600 56 600 69 c 0
 600 74 599 81 597 90 c 2
 581 188 l 2
 575 219 572 220 540 220 c 2
 288 220 l 2
 245 220 236 220 220 194 c 2
 162 100 l 2
 154 88 139 73 139 64 c 0
 139 59 144 55 160 55 c 2
 212 55 l 2
 228 55 230 53 230 30 c 2
 230 18 l 2
 230 3 228 0 206 0 c 2
 -23 -0 l 2
 -49 0 -50 1 -50 30 c 2
 -50 43 l 2
 -50 52 -48 55 -32 55 c 2
 20 55 l 2
 72 55 71 74 90 104 c 2
 477 720 l 2
 501 759 499 765 527 765 c 2
 549 765 l 2
 582 765 582 730 587 704 c 2
484 618 m 2
 286 300 l 2
 280 290 276 285 276 281 c 0
 276 276 284 275 300 275 c 0
 380 275 460 275 540 275 c 0
 560 275 565 282 565 292 c 0
 565 303 560 317 557 332 c 2
 510 616 l 2
 507 636 505 644 502 644 c 0
 498 644 493 633 484 618 c 2
EndSplineSet
EndChar

StartChar: Atilde
Encoding: 195 195 133
Width: 900
VWidth: 0
Flags: HMW
LayerCount: 2
Fore
SplineSet
474 934 m 0
 425 934 388 903 374 869 c 0
 364 844 373 840 338 840 c 0
 319 840 313 843 313 851 c 0
 313 857 316 864 319 875 c 0
 343 952 414 1007 500 1007 c 0
 600 1007 600 913 676 913 c 0
 724 913 761 943 776 976 c 0
 788 1002 777 1007 814 1007 c 0
 833 1007 838 1006 838 998 c 0
 838 994 837 989 835 981 c 0
 814 899 740 840 650 840 c 0
 533 840 537 934 474 934 c 0
587 704 m 2
 703 92 l 2
 709 61 705 55 744 55 c 2
 778 55 l 2
 785 55 791 56 796 56 c 0
 805 56 810 53 810 40 c 2
 810 30 l 2
 810 2 808 0 774 0 c 2
 544 0 l 2
 532 0 522 -2 513 -2 c 0
 499 -2 490 3 490 24 c 0
 490 27 490 30 490 33 c 0
 490 53 492 55 518 55 c 2
 566 55 l 2
 592 55 600 56 600 69 c 0
 600 74 599 81 597 90 c 2
 581 188 l 2
 575 219 572 220 540 220 c 2
 288 220 l 2
 245 220 236 220 220 194 c 2
 162 100 l 2
 154 88 139 73 139 64 c 0
 139 59 144 55 160 55 c 2
 212 55 l 2
 228 55 230 53 230 30 c 2
 230 18 l 2
 230 3 228 0 206 0 c 2
 -23 -0 l 2
 -49 0 -50 1 -50 30 c 2
 -50 43 l 2
 -50 52 -48 55 -32 55 c 2
 20 55 l 2
 72 55 71 74 90 104 c 2
 477 720 l 2
 501 759 499 765 527 765 c 2
 549 765 l 2
 582 765 582 730 587 704 c 2
484 618 m 2
 286 300 l 2
 280 290 276 285 276 281 c 0
 276 276 284 275 300 275 c 0
 380 275 460 275 540 275 c 0
 560 275 565 282 565 292 c 0
 565 303 560 317 557 332 c 2
 510 616 l 2
 507 636 505 644 502 644 c 0
 498 644 493 633 484 618 c 2
EndSplineSet
EndChar

StartChar: Adieresis
Encoding: 196 196 134
Width: 900
VWidth: 0
Flags: HMW
LayerCount: 2
Fore
SplineSet
596 880 m 0
 596 913 623 940 656 940 c 0
 689 940 716 913 716 880 c 0
 716 847 689 820 656 820 c 0
 623 820 596 847 596 880 c 0
396 880 m 0
 396 913 423 940 456 940 c 0
 489 940 516 913 516 880 c 0
 516 847 489 820 456 820 c 0
 423 820 396 847 396 880 c 0
587 704 m 2
 703 92 l 2
 709 61 705 55 744 55 c 2
 778 55 l 2
 785 55 791 56 796 56 c 0
 805 56 810 53 810 40 c 2
 810 30 l 2
 810 2 808 0 774 0 c 2
 544 0 l 2
 532 0 522 -2 513 -2 c 0
 499 -2 490 3 490 24 c 0
 490 27 490 30 490 33 c 0
 490 53 492 55 518 55 c 2
 566 55 l 2
 592 55 600 56 600 69 c 0
 600 74 599 81 597 90 c 2
 581 188 l 2
 575 219 572 220 540 220 c 2
 288 220 l 2
 245 220 236 220 220 194 c 2
 162 100 l 2
 154 88 139 73 139 64 c 0
 139 59 144 55 160 55 c 2
 212 55 l 2
 228 55 230 53 230 30 c 2
 230 18 l 2
 230 3 228 0 206 0 c 2
 -23 -0 l 2
 -49 0 -50 1 -50 30 c 2
 -50 43 l 2
 -50 52 -48 55 -32 55 c 2
 20 55 l 2
 72 55 71 74 90 104 c 2
 477 720 l 2
 501 759 499 765 527 765 c 2
 549 765 l 2
 582 765 582 730 587 704 c 2
484 618 m 2
 286 300 l 2
 280 290 276 285 276 281 c 0
 276 276 284 275 300 275 c 0
 380 275 460 275 540 275 c 0
 560 275 565 282 565 292 c 0
 565 303 560 317 557 332 c 2
 510 616 l 2
 507 636 505 644 502 644 c 0
 498 644 493 633 484 618 c 2
EndSplineSet
EndChar

StartChar: Aring
Encoding: 197 197 135
Width: 900
VWidth: 0
Flags: HMW
LayerCount: 2
Fore
SplineSet
480 872 m 0
 480 835 509 807 546 807 c 0
 583 807 610 835 610 872 c 0
 610 909 583 937 546 937 c 0
 509 937 480 909 480 872 c 0
426 872 m 0
 426 938 480 992 546 992 c 0
 612 992 666 938 666 872 c 0
 666 815 625 767 572 755 c 1
 582 743 584 721 587 704 c 2
 703 92 l 2
 709 61 705 55 744 55 c 2
 778 55 l 2
 785 55 791 56 796 56 c 0
 805 56 810 53 810 40 c 2
 810 30 l 2
 810 2 808 0 774 0 c 2
 544 0 l 2
 532 0 522 -2 513 -2 c 0
 499 -2 490 3 490 24 c 0
 490 27 490 30 490 33 c 0
 490 53 492 55 518 55 c 2
 566 55 l 2
 592 55 600 56 600 69 c 0
 600 74 599 81 597 90 c 2
 581 188 l 2
 575 219 572 220 540 220 c 2
 288 220 l 2
 245 220 236 220 220 194 c 2
 162 100 l 2
 154 88 139 73 139 64 c 0
 139 59 144 55 160 55 c 2
 212 55 l 2
 228 55 230 53 230 30 c 2
 230 18 l 2
 230 3 228 0 206 0 c 2
 -23 -0 l 2
 -49 0 -50 1 -50 30 c 2
 -50 43 l 2
 -50 52 -48 55 -32 55 c 2
 20 55 l 2
 72 55 71 74 90 104 c 2
 477 720 l 2
 491 742 496 754 503 760 c 1
 458 777 426 821 426 872 c 0
484 618 m 2
 286 300 l 2
 280 290 276 285 276 281 c 0
 276 276 284 275 300 275 c 0
 380 275 460 275 540 275 c 0
 560 275 565 282 565 292 c 0
 565 303 560 317 557 332 c 2
 510 616 l 2
 507 636 505 644 502 644 c 0
 498 644 493 633 484 618 c 2
EndSplineSet
EndChar

StartChar: Ccedilla
Encoding: 199 199 136
Width: 797
VWidth: 0
Flags: HMW
LayerCount: 2
Fore
SplineSet
209 -240 m 1
 222 -241 234 -242 246 -242 c 0
 329 -242 367 -213 367 -192 c 0
 367 -159 320 -141 195 -141 c 1
 300 -7 l 1
 151 10 45 114 45 305 c 0
 45 516 227 760 485 760 c 0
 567 760 627 741 670 711 c 0
 699 691 708 673 718 673 c 0
 726 673 734 683 749 710 c 0
 758 725 762 750 786 750 c 2
 806 750 l 2
 822 750 826 745 826 738 c 0
 826 731 821 721 819 710 c 2
 781 534 l 2
 775 507 781 495 746 495 c 0
 724 495 720 496 720 506 c 0
 720 510 721 516 721 524 c 0
 721 627 624 699 493 699 c 0
 282 699 160 480 160 305 c 0
 160 143 229 53 363 53 c 0
 482 53 572 127 627 214 c 0
 646 244 652 275 682 275 c 2
 703 275 l 2
 718 275 723 270 723 263 c 0
 723 252 711 237 705 224 c 0
 652 111 541 0 368 -9 c 1
 294 -104 l 1
 377 -112 428 -140 428 -182 c 0
 428 -228 387 -283 245 -283 c 0
 234 -283 222 -283 209 -282 c 1
 209 -240 l 1
EndSplineSet
EndChar

StartChar: Egrave
Encoding: 200 200 137
Width: 729
VWidth: 0
Flags: HMW
LayerCount: 2
Fore
SplineSet
538 835 m 0
 538 818 531 821 516 821 c 2
 290 830 l 2
 271 831 256 846 256 865 c 0
 256 881 268 899 289 899 c 0
 292 899 296 899 300 898 c 2
 518 845 l 2
 531 842 538 844 538 835 c 0
243 329 m 2
 190 95 l 2
 187 82 184 73 184 67 c 0
 184 56 194 55 225 55 c 2
 398 55 l 2
 524 55 579 91 618 219 c 0
 625 240 620 255 651 255 c 0
 670 255 676 250 676 242 c 0
 676 233 669 221 666 206 c 2
 631 56 l 2
 619 3 618 0 552 0 c 2
 42 0 l 2
 29 0 11 -3 -4 -3 c 0
 -24 -3 -40 2 -40 20 c 2
 -40 25 l 2
 -40 54 -39 55 -6 55 c 2
 51 55 l 2
 91 55 85 74 92 104 c 2
 219 668 l 2
 221 676 222 682 222 686 c 0
 222 694 217 695 204 695 c 2
 127 695 l 2
 105 695 104 696 104 722 c 0
 104 747 109 750 124 750 c 2
 712 750 l 2
 751 750 762 750 762 732 c 0
 762 724 760 712 756 695 c 2
 732 590 l 2
 724 555 731 515 684 515 c 0
 671 515 667 523 667 533 c 0
 667 547 675 567 676 578 c 0
 677 587 677 596 677 604 c 0
 677 672 642 695 555 695 c 2
 360 695 l 2
 317 695 322 683 315 650 c 2
 274 467 l 2
 270 448 263 434 263 424 c 0
 263 413 271 408 300 408 c 2
 333 408 l 2
 389 408 429 429 456 461 c 0
 473 481 475 523 510 523 c 0
 526 523 531 517 531 508 c 0
 531 497 523 481 520 467 c 2
 477 287 l 2
 472 267 477 248 450 248 c 0
 430 248 425 252 425 260 c 0
 425 267 428 276 428 288 c 0
 428 336 402 368 333 368 c 2
 291 368 l 2
 248 368 251 363 243 329 c 2
EndSplineSet
EndChar

StartChar: Eacute
Encoding: 201 201 138
Width: 729
VWidth: 0
Flags: HMW
LayerCount: 2
Fore
SplineSet
610 830 m 2
 384 821 l 2
 372 821 367 818 364 828 c 0
 361 841 361 840 374 843 c 2
 600 898 l 2
 604 899 608 899 611 899 c 0
 633 899 646 881 646 865 c 0
 646 846 629 831 610 830 c 2
243 329 m 2
 190 95 l 2
 187 82 184 73 184 67 c 0
 184 56 194 55 225 55 c 2
 398 55 l 2
 524 55 579 91 618 219 c 0
 625 240 620 255 651 255 c 0
 670 255 676 250 676 242 c 0
 676 233 669 221 666 206 c 2
 631 56 l 2
 619 3 618 0 552 0 c 2
 42 0 l 2
 29 0 11 -3 -4 -3 c 0
 -24 -3 -40 2 -40 20 c 2
 -40 25 l 2
 -40 54 -39 55 -6 55 c 2
 51 55 l 2
 91 55 85 74 92 104 c 2
 219 668 l 2
 221 676 222 682 222 686 c 0
 222 694 217 695 204 695 c 2
 127 695 l 2
 105 695 104 696 104 722 c 0
 104 747 109 750 124 750 c 2
 712 750 l 2
 751 750 762 750 762 732 c 0
 762 724 760 712 756 695 c 2
 732 590 l 2
 724 555 731 515 684 515 c 0
 671 515 667 523 667 533 c 0
 667 547 675 567 676 578 c 0
 677 587 677 596 677 604 c 0
 677 672 642 695 555 695 c 2
 360 695 l 2
 317 695 322 683 315 650 c 2
 274 467 l 2
 270 448 263 434 263 424 c 0
 263 413 271 408 300 408 c 2
 333 408 l 2
 389 408 429 429 456 461 c 0
 473 481 475 523 510 523 c 0
 526 523 531 517 531 508 c 0
 531 497 523 481 520 467 c 2
 477 287 l 2
 472 267 477 248 450 248 c 0
 430 248 425 252 425 260 c 0
 425 267 428 276 428 288 c 0
 428 336 402 368 333 368 c 2
 291 368 l 2
 248 368 251 363 243 329 c 2
EndSplineSet
EndChar

StartChar: Ecircumflex
Encoding: 202 202 139
Width: 729
VWidth: 0
Flags: HMW
LayerCount: 2
Fore
SplineSet
644 853 m 0
 644 848 623 834 614 834 c 0
 607 834 603 840 593 850 c 2
 472 973 l 2
 461 984 460 984 447 975 c 2
 259 845 l 2
 249 838 244 834 237 834 c 0
 230 834 207 846 207 851 c 0
 207 855 214 859 224 867 c 2
 419 1028 l 2
 430 1037 434 1040 455 1040 c 2
 480 1040 l 2
 500 1040 501 1036 509 1026 c 2
 631 872 l 2
 639 862 644 857 644 853 c 0
243 329 m 2
 190 95 l 2
 187 82 184 73 184 67 c 0
 184 56 194 55 225 55 c 2
 398 55 l 2
 524 55 579 91 618 219 c 0
 625 240 620 255 651 255 c 0
 670 255 676 250 676 242 c 0
 676 233 669 221 666 206 c 2
 631 56 l 2
 619 3 618 0 552 0 c 2
 42 0 l 2
 29 0 11 -3 -4 -3 c 0
 -24 -3 -40 2 -40 20 c 2
 -40 25 l 2
 -40 54 -39 55 -6 55 c 2
 51 55 l 2
 91 55 85 74 92 104 c 2
 219 668 l 2
 221 676 222 682 222 686 c 0
 222 694 217 695 204 695 c 2
 127 695 l 2
 105 695 104 696 104 722 c 0
 104 747 109 750 124 750 c 2
 712 750 l 2
 751 750 762 750 762 732 c 0
 762 724 760 712 756 695 c 2
 732 590 l 2
 724 555 731 515 684 515 c 0
 671 515 667 523 667 533 c 0
 667 547 675 567 676 578 c 0
 677 587 677 596 677 604 c 0
 677 672 642 695 555 695 c 2
 360 695 l 2
 317 695 322 683 315 650 c 2
 274 467 l 2
 270 448 263 434 263 424 c 0
 263 413 271 408 300 408 c 2
 333 408 l 2
 389 408 429 429 456 461 c 0
 473 481 475 523 510 523 c 0
 526 523 531 517 531 508 c 0
 531 497 523 481 520 467 c 2
 477 287 l 2
 472 267 477 248 450 248 c 0
 430 248 425 252 425 260 c 0
 425 267 428 276 428 288 c 0
 428 336 402 368 333 368 c 2
 291 368 l 2
 248 368 251 363 243 329 c 2
EndSplineSet
EndChar

StartChar: Edieresis
Encoding: 203 203 140
Width: 729
VWidth: 0
Flags: HMW
LayerCount: 2
Fore
SplineSet
496 880 m 0
 496 913 523 940 556 940 c 0
 589 940 616 913 616 880 c 0
 616 847 589 820 556 820 c 0
 523 820 496 847 496 880 c 0
296 880 m 0
 296 913 323 940 356 940 c 0
 389 940 416 913 416 880 c 0
 416 847 389 820 356 820 c 0
 323 820 296 847 296 880 c 0
243 329 m 2
 190 95 l 2
 187 82 184 73 184 67 c 0
 184 56 194 55 225 55 c 2
 398 55 l 2
 524 55 579 91 618 219 c 0
 625 240 620 255 651 255 c 0
 670 255 676 250 676 242 c 0
 676 233 669 221 666 206 c 2
 631 56 l 2
 619 3 618 0 552 0 c 2
 42 0 l 2
 29 0 11 -3 -4 -3 c 0
 -24 -3 -40 2 -40 20 c 2
 -40 25 l 2
 -40 54 -39 55 -6 55 c 2
 51 55 l 2
 91 55 85 74 92 104 c 2
 219 668 l 2
 221 676 222 682 222 686 c 0
 222 694 217 695 204 695 c 2
 127 695 l 2
 105 695 104 696 104 722 c 0
 104 747 109 750 124 750 c 2
 712 750 l 2
 751 750 762 750 762 732 c 0
 762 724 760 712 756 695 c 2
 732 590 l 2
 724 555 731 515 684 515 c 0
 671 515 667 523 667 533 c 0
 667 547 675 567 676 578 c 0
 677 587 677 596 677 604 c 0
 677 672 642 695 555 695 c 2
 360 695 l 2
 317 695 322 683 315 650 c 2
 274 467 l 2
 270 448 263 434 263 424 c 0
 263 413 271 408 300 408 c 2
 333 408 l 2
 389 408 429 429 456 461 c 0
 473 481 475 523 510 523 c 0
 526 523 531 517 531 508 c 0
 531 497 523 481 520 467 c 2
 477 287 l 2
 472 267 477 248 450 248 c 0
 430 248 425 252 425 260 c 0
 425 267 428 276 428 288 c 0
 428 336 402 368 333 368 c 2
 291 368 l 2
 248 368 251 363 243 329 c 2
EndSplineSet
EndChar

StartChar: Igrave
Encoding: 204 204 141
Width: 398
VWidth: 0
Flags: HMW
LayerCount: 2
Fore
SplineSet
379 835 m 0
 379 818 373 821 358 821 c 2
 132 830 l 2
 113 831 96 846 96 865 c 0
 96 881 109 899 131 899 c 0
 134 899 138 899 142 898 c 2
 360 845 l 2
 373 842 379 843 379 835 c 0
268 0 m 2
 -10 0 l 2
 -39 0 -40 1 -40 27 c 2
 -40 32 l 2
 -40 54 -39 55 -23 55 c 2
 48 55 l 2
 83 55 84 56 90 84 c 2
 218 666 l 2
 220 676 222 683 222 687 c 0
 222 694 217 695 196 695 c 2
 125 695 l 2
 112 695 108 697 108 718 c 0
 108 750 108 750 140 750 c 2
 412 750 l 2
 438 750 438 750 438 724 c 2
 438 719 l 2
 438 696 437 695 410 695 c 2
 358 695 l 2
 324 695 325 693 319 666 c 2
 198 116 l 2
 195 101 186 83 186 71 c 0
 186 61 192 55 210 55 c 2
 276 55 l 2
 297 55 300 51 300 38 c 2
 300 18 l 2
 300 2 295 -1 286 -1 c 0
 281 -1 275 0 268 0 c 2
EndSplineSet
EndChar

StartChar: Iacute
Encoding: 205 205 142
Width: 398
VWidth: 0
Flags: HMW
LayerCount: 2
Fore
SplineSet
452 830 m 2
 224 821 l 2
 212 821 207 818 204 828 c 0
 201 841 203 840 216 843 c 2
 442 898 l 2
 446 899 450 899 453 899 c 0
 474 899 486 881 486 865 c 0
 486 846 471 831 452 830 c 2
268 0 m 2
 -10 0 l 2
 -39 0 -40 1 -40 27 c 2
 -40 32 l 2
 -40 54 -39 55 -23 55 c 2
 48 55 l 2
 83 55 84 56 90 84 c 2
 218 666 l 2
 220 676 222 683 222 687 c 0
 222 694 217 695 196 695 c 2
 125 695 l 2
 112 695 108 697 108 718 c 0
 108 750 108 750 140 750 c 2
 412 750 l 2
 438 750 438 750 438 724 c 2
 438 719 l 2
 438 696 437 695 410 695 c 2
 358 695 l 2
 324 695 325 693 319 666 c 2
 198 116 l 2
 195 101 186 83 186 71 c 0
 186 61 192 55 210 55 c 2
 276 55 l 2
 297 55 300 51 300 38 c 2
 300 18 l 2
 300 2 295 -1 286 -1 c 0
 281 -1 275 0 268 0 c 2
EndSplineSet
EndChar

StartChar: Icircumflex
Encoding: 206 206 143
Width: 398
VWidth: 0
Flags: HMW
LayerCount: 2
Fore
SplineSet
485 853 m 0
 485 848 464 834 455 834 c 0
 448 834 444 840 434 850 c 2
 313 973 l 2
 302 984 301 984 288 975 c 2
 100 845 l 2
 90 838 85 834 78 834 c 0
 71 834 48 846 48 851 c 0
 48 855 55 859 65 867 c 2
 260 1028 l 2
 271 1037 275 1040 296 1040 c 2
 321 1040 l 2
 341 1040 342 1036 350 1026 c 2
 472 872 l 2
 480 862 485 857 485 853 c 0
268 0 m 2
 -10 0 l 2
 -39 0 -40 1 -40 27 c 2
 -40 32 l 2
 -40 54 -39 55 -23 55 c 2
 48 55 l 2
 83 55 84 56 90 84 c 2
 218 666 l 2
 220 676 222 683 222 687 c 0
 222 694 217 695 196 695 c 2
 125 695 l 2
 112 695 108 697 108 718 c 0
 108 750 108 750 140 750 c 2
 412 750 l 2
 438 750 438 750 438 724 c 2
 438 719 l 2
 438 696 437 695 410 695 c 2
 358 695 l 2
 324 695 325 693 319 666 c 2
 198 116 l 2
 195 101 186 83 186 71 c 0
 186 61 192 55 210 55 c 2
 276 55 l 2
 297 55 300 51 300 38 c 2
 300 18 l 2
 300 2 295 -1 286 -1 c 0
 281 -1 275 0 268 0 c 2
EndSplineSet
EndChar

StartChar: Idieresis
Encoding: 207 207 144
Width: 398
VWidth: 0
Flags: HMW
LayerCount: 2
Fore
SplineSet
336 880 m 0
 336 913 363 940 396 940 c 0
 429 940 456 913 456 880 c 0
 456 847 429 820 396 820 c 0
 363 820 336 847 336 880 c 0
136 880 m 0
 136 913 163 940 196 940 c 0
 229 940 256 913 256 880 c 0
 256 847 229 820 196 820 c 0
 163 820 136 847 136 880 c 0
268 0 m 2
 -10 0 l 2
 -39 0 -40 1 -40 27 c 2
 -40 32 l 2
 -40 54 -39 55 -23 55 c 2
 48 55 l 2
 83 55 84 56 90 84 c 2
 218 666 l 2
 220 676 222 683 222 687 c 0
 222 694 217 695 196 695 c 2
 125 695 l 2
 112 695 108 697 108 718 c 0
 108 750 108 750 140 750 c 2
 412 750 l 2
 438 750 438 750 438 724 c 2
 438 719 l 2
 438 696 437 695 410 695 c 2
 358 695 l 2
 324 695 325 693 319 666 c 2
 198 116 l 2
 195 101 186 83 186 71 c 0
 186 61 192 55 210 55 c 2
 276 55 l 2
 297 55 300 51 300 38 c 2
 300 18 l 2
 300 2 295 -1 286 -1 c 0
 281 -1 275 0 268 0 c 2
EndSplineSet
EndChar

StartChar: Ntilde
Encoding: 209 209 145
Width: 898
VWidth: 0
Flags: HMW
LayerCount: 2
Fore
SplineSet
456 934 m 0
 407 934 370 903 356 869 c 0
 346 844 355 840 320 840 c 0
 301 840 295 843 295 851 c 0
 295 857 298 864 301 875 c 0
 325 952 396 1007 482 1007 c 0
 582 1007 582 913 658 913 c 0
 706 913 743 943 758 976 c 0
 770 1002 759 1007 796 1007 c 0
 815 1007 820 1006 820 998 c 0
 820 994 819 989 817 981 c 0
 796 899 722 840 632 840 c 0
 515 840 519 934 456 934 c 0
643 711 m 2
 643 725 l 2
 643 749 644 750 671 750 c 2
 922 750 l 2
 936 750 938 748 938 728 c 2
 938 713 l 2
 938 698 936 695 912 695 c 2
 853 695 l 2
 818 695 818 693 812 664 c 2
 674 8 l 2
 671 -7 673 -10 654 -10 c 0
 637 -10 638 -6 632 4 c 2
 310 573 l 2
 290 608 280 633 272 633 c 0
 265 633 260 615 250 570 c 2
 154 124 l 2
 150 105 142 88 142 75 c 0
 142 63 149 55 175 55 c 2
 238 55 l 2
 256 55 260 53 260 25 c 0
 260 3 257 0 243 -0 c 0
 156 0 70 0 -17 0 c 0
 -40 0 -40 0 -40 23 c 2
 -40 46 l 2
 -40 59 -30 55 -18 55 c 2
 37 55 l 2
 76 55 77 56 84 88 c 2
 200 633 l 2
 204 650 211 667 211 678 c 0
 211 689 204 695 181 695 c 2
 140 695 l 2
 122 695 120 696 120 720 c 0
 120 747 126 751 142 751 c 0
 149 751 157 750 167 750 c 2
 299 750 l 2
 340 750 338 739 352 714 c 2
 611 234 l 2
 627 204 635 189 641 189 c 0
 647 189 651 208 660 250 c 2
 749 674 l 2
 750 680 751 685 751 688 c 0
 751 695 747 695 735 695 c 0
 712 695 688 695 665 695 c 0
 644 695 643 696 643 711 c 2
EndSplineSet
EndChar

StartChar: Ograve
Encoding: 210 210 146
Width: 830
VWidth: 0
Flags: HM
LayerCount: 2
Fore
SplineSet
588 835 m 0
 588 818 581 821 566 821 c 2
 340 830 l 2
 321 831 305 846 305 865 c 0
 305 881 317 899 339 899 c 0
 342 899 346 899 350 898 c 2
 568 845 l 2
 581 842 588 844 588 835 c 0
345 -10 m 0
 152 -10 45 107 45 300 c 0
 45 533 242 760 485 760 c 0
 678 760 785 643 785 450 c 0
 785 217 588 -10 345 -10 c 0
485 710 m 0
 291 710 160 477 160 305 c 0
 160 153 201 40 345 40 c 0
 539 40 670 273 670 445 c 0
 670 597 629 710 485 710 c 0
EndSplineSet
EndChar

StartChar: Oacute
Encoding: 211 211 147
Width: 830
VWidth: 0
Flags: HM
LayerCount: 2
Fore
SplineSet
660 830 m 2
 433 821 l 2
 421 821 416 818 413 828 c 0
 410 841 411 840 424 843 c 2
 650 898 l 2
 654 899 658 899 661 899 c 0
 683 899 695 881 695 865 c 0
 695 846 679 831 660 830 c 2
345 -10 m 0
 152 -10 45 107 45 300 c 0
 45 533 242 760 485 760 c 0
 678 760 785 643 785 450 c 0
 785 217 588 -10 345 -10 c 0
485 710 m 0
 291 710 160 477 160 305 c 0
 160 153 201 40 345 40 c 0
 539 40 670 273 670 445 c 0
 670 597 629 710 485 710 c 0
EndSplineSet
EndChar

StartChar: Ocircumflex
Encoding: 212 212 148
Width: 830
VWidth: 0
Flags: HM
LayerCount: 2
Fore
SplineSet
694 853 m 0
 694 848 673 834 664 834 c 0
 657 834 653 840 643 850 c 2
 522 973 l 2
 511 984 509 984 496 975 c 2
 308 845 l 2
 298 838 293 834 287 834 c 0
 280 834 257 846 257 851 c 0
 257 855 264 859 274 867 c 2
 468 1028 l 2
 479 1037 483 1040 504 1040 c 2
 530 1040 l 2
 550 1040 551 1036 559 1026 c 2
 680 872 l 2
 688 862 694 857 694 853 c 0
345 -10 m 0
 152 -10 45 107 45 300 c 0
 45 533 242 760 485 760 c 0
 678 760 785 643 785 450 c 0
 785 217 588 -10 345 -10 c 0
485 710 m 0
 291 710 160 477 160 305 c 0
 160 153 201 40 345 40 c 0
 539 40 670 273 670 445 c 0
 670 597 629 710 485 710 c 0
EndSplineSet
EndChar

StartChar: Otilde
Encoding: 213 213 149
Width: 830
VWidth: 0
Flags: HM
LayerCount: 2
Fore
SplineSet
414 934 m 0
 365 934 328 903 314 869 c 0
 304 844 313 840 278 840 c 0
 258 840 252 843 252 851 c 0
 252 856 255 865 258 875 c 0
 282 952 354 1007 440 1007 c 0
 540 1007 540 913 616 913 c 0
 664 913 700 943 715 976 c 0
 727 1002 716 1007 753 1007 c 0
 772 1007 777 1006 777 998 c 0
 777 994 776 989 774 981 c 0
 753 899 680 840 590 840 c 0
 473 840 477 934 414 934 c 0
345 -10 m 0
 152 -10 45 107 45 300 c 0
 45 533 242 760 485 760 c 0
 678 760 785 643 785 450 c 0
 785 217 588 -10 345 -10 c 0
485 710 m 0
 291 710 160 477 160 305 c 0
 160 153 201 40 345 40 c 0
 539 40 670 273 670 445 c 0
 670 597 629 710 485 710 c 0
EndSplineSet
EndChar

StartChar: Odieresis
Encoding: 214 214 150
Width: 830
VWidth: 0
Flags: HM
LayerCount: 2
Fore
SplineSet
545 880 m 0
 545 913 572 940 605 940 c 0
 638 940 665 913 665 880 c 0
 665 847 638 820 605 820 c 0
 572 820 545 847 545 880 c 0
345 880 m 0
 345 913 372 940 405 940 c 0
 438 940 465 913 465 880 c 0
 465 847 438 820 405 820 c 0
 372 820 345 847 345 880 c 0
345 -10 m 0
 152 -10 45 107 45 300 c 0
 45 533 242 760 485 760 c 0
 678 760 785 643 785 450 c 0
 785 217 588 -10 345 -10 c 0
485 710 m 0
 291 710 160 477 160 305 c 0
 160 153 201 40 345 40 c 0
 539 40 670 273 670 445 c 0
 670 597 629 710 485 710 c 0
EndSplineSet
EndChar

StartChar: Ugrave
Encoding: 217 217 151
Width: 832
VWidth: 0
Flags: HMW
LayerCount: 2
Fore
SplineSet
584 835 m 0
 584 818 577 821 562 821 c 2
 336 830 l 2
 317 831 301 846 301 865 c 0
 301 881 313 899 335 899 c 0
 338 899 342 899 346 898 c 2
 564 845 l 2
 577 842 584 844 584 835 c 0
295 666 m 2
 206 310 l 2
 195 267 188 226 188 190 c 0
 188 105 226 45 341 45 c 0
 495 45 574 128 616 300 c 2
 706 670 l 2
 708 677 709 682 709 686 c 0
 709 694 704 695 690 695 c 2
 618 695 l 2
 598 695 597 696 597 720 c 0
 597 749 598 750 624 750 c 0
 702 750 781 750 859 750 c 0
 880 750 883 745 883 733 c 0
 883 728 882 722 882 714 c 0
 882 697 877 694 867 694 c 0
 862 694 856 695 849 695 c 2
 797 695 l 2
 769 695 771 690 766 668 c 2
 676 300 l 2
 626 97 524 -15 326 -15 c 0
 149 -15 90 67 90 182 c 0
 90 219 96 258 106 300 c 2
 192 652 l 2
 195 665 201 675 201 683 c 0
 201 690 195 695 177 695 c 2
 118 695 l 2
 101 695 97 697 97 724 c 0
 97 749 98 750 120 750 c 2
 393 750 l 2
 412 750 417 747 417 716 c 0
 417 697 413 694 402 694 c 0
 397 694 391 695 383 695 c 2
 333 695 l 2
 306 695 302 693 295 666 c 2
EndSplineSet
EndChar

StartChar: Uacute
Encoding: 218 218 152
Width: 832
VWidth: 0
Flags: HMW
LayerCount: 2
Fore
SplineSet
656 830 m 2
 429 821 l 2
 417 821 412 818 409 828 c 0
 406 841 407 840 420 843 c 2
 646 898 l 2
 650 899 654 899 657 899 c 0
 679 899 691 881 691 865 c 0
 691 846 675 831 656 830 c 2
295 666 m 2
 206 310 l 2
 195 267 188 226 188 190 c 0
 188 105 226 45 341 45 c 0
 495 45 574 128 616 300 c 2
 706 670 l 2
 708 677 709 682 709 686 c 0
 709 694 704 695 690 695 c 2
 618 695 l 2
 598 695 597 696 597 720 c 0
 597 749 598 750 624 750 c 0
 702 750 781 750 859 750 c 0
 880 750 883 745 883 733 c 0
 883 728 882 722 882 714 c 0
 882 697 877 694 867 694 c 0
 862 694 856 695 849 695 c 2
 797 695 l 2
 769 695 771 690 766 668 c 2
 676 300 l 2
 626 97 524 -15 326 -15 c 0
 149 -15 90 67 90 182 c 0
 90 219 96 258 106 300 c 2
 192 652 l 2
 195 665 201 675 201 683 c 0
 201 690 195 695 177 695 c 2
 118 695 l 2
 101 695 97 697 97 724 c 0
 97 749 98 750 120 750 c 2
 393 750 l 2
 412 750 417 747 417 716 c 0
 417 697 413 694 402 694 c 0
 397 694 391 695 383 695 c 2
 333 695 l 2
 306 695 302 693 295 666 c 2
EndSplineSet
EndChar

StartChar: Ucircumflex
Encoding: 219 219 153
Width: 832
VWidth: 0
Flags: HMW
LayerCount: 2
Fore
SplineSet
690 853 m 0
 690 848 669 834 660 834 c 0
 653 834 649 840 639 850 c 2
 518 973 l 2
 507 984 506 984 493 975 c 2
 305 845 l 2
 295 838 290 834 283 834 c 0
 276 834 253 846 253 851 c 0
 253 855 260 859 270 867 c 2
 465 1028 l 2
 476 1037 480 1040 501 1040 c 2
 526 1040 l 2
 546 1040 547 1036 555 1026 c 2
 676 872 l 2
 684 862 690 857 690 853 c 0
295 666 m 2
 206 310 l 2
 195 267 188 226 188 190 c 0
 188 105 226 45 341 45 c 0
 495 45 574 128 616 300 c 2
 706 670 l 2
 708 677 709 682 709 686 c 0
 709 694 704 695 690 695 c 2
 618 695 l 2
 598 695 597 696 597 720 c 0
 597 749 598 750 624 750 c 0
 702 750 781 750 859 750 c 0
 880 750 883 745 883 733 c 0
 883 728 882 722 882 714 c 0
 882 697 877 694 867 694 c 0
 862 694 856 695 849 695 c 2
 797 695 l 2
 769 695 771 690 766 668 c 2
 676 300 l 2
 626 97 524 -15 326 -15 c 0
 149 -15 90 67 90 182 c 0
 90 219 96 258 106 300 c 2
 192 652 l 2
 195 665 201 675 201 683 c 0
 201 690 195 695 177 695 c 2
 118 695 l 2
 101 695 97 697 97 724 c 0
 97 749 98 750 120 750 c 2
 393 750 l 2
 412 750 417 747 417 716 c 0
 417 697 413 694 402 694 c 0
 397 694 391 695 383 695 c 2
 333 695 l 2
 306 695 302 693 295 666 c 2
EndSplineSet
EndChar

StartChar: Udieresis
Encoding: 220 220 154
Width: 832
VWidth: 0
Flags: HMW
LayerCount: 2
Fore
SplineSet
541 880 m 0
 541 913 568 940 601 940 c 0
 634 940 661 913 661 880 c 0
 661 847 634 820 601 820 c 0
 568 820 541 847 541 880 c 0
341 880 m 0
 341 913 368 940 401 940 c 0
 434 940 461 913 461 880 c 0
 461 847 434 820 401 820 c 0
 368 820 341 847 341 880 c 0
295 666 m 2
 206 310 l 2
 195 267 188 226 188 190 c 0
 188 105 226 45 341 45 c 0
 495 45 574 128 616 300 c 2
 706 670 l 2
 708 677 709 682 709 686 c 0
 709 694 704 695 690 695 c 2
 618 695 l 2
 598 695 597 696 597 720 c 0
 597 749 598 750 624 750 c 0
 702 750 781 750 859 750 c 0
 880 750 883 745 883 733 c 0
 883 728 882 722 882 714 c 0
 882 697 877 694 867 694 c 0
 862 694 856 695 849 695 c 2
 797 695 l 2
 769 695 771 690 766 668 c 2
 676 300 l 2
 626 97 524 -15 326 -15 c 0
 149 -15 90 67 90 182 c 0
 90 219 96 258 106 300 c 2
 192 652 l 2
 195 665 201 675 201 683 c 0
 201 690 195 695 177 695 c 2
 118 695 l 2
 101 695 97 697 97 724 c 0
 97 749 98 750 120 750 c 2
 393 750 l 2
 412 750 417 747 417 716 c 0
 417 697 413 694 402 694 c 0
 397 694 391 695 383 695 c 2
 333 695 l 2
 306 695 302 693 295 666 c 2
EndSplineSet
EndChar

StartChar: Yacute
Encoding: 221 221 155
Width: 780
VWidth: 0
Flags: HMW
LayerCount: 2
Fore
SplineSet
628 830 m 2
 400 821 l 2
 388 821 383 818 380 828 c 0
 377 841 379 840 392 843 c 2
 618 898 l 2
 622 899 626 899 629 899 c 0
 650 899 662 881 662 865 c 0
 662 846 647 831 628 830 c 2
92 750 m 2
 330 750 l 2
 341 750 351 751 358 751 c 0
 374 751 380 747 380 720 c 0
 380 698 375 694 362 694 c 0
 356 694 349 695 340 695 c 2
 306 695 l 2
 288 695 280 695 280 688 c 0
 280 686 281 682 283 678 c 2
 400 420 l 2
 408 402 414 394 419 394 c 0
 426 394 434 409 449 426 c 2
 662 678 l 2
 666 682 668 686 668 688 c 0
 668 694 657 695 643 695 c 0
 625 695 608 695 590 695 c 0
 582 695 576 694 571 694 c 0
 560 694 555 697 555 716 c 0
 555 723 554 730 554 735 c 0
 554 745 557 750 574 750 c 2
 840 750 l 2
 853 750 855 748 855 728 c 0
 855 721 856 715 856 710 c 0
 856 700 853 695 838 695 c 2
 784 695 l 2
 756 695 751 692 739 678 c 2
 465 358 l 2
 448 338 439 325 432 292 c 2
 388 102 l 2
 385 88 379 76 379 68 c 0
 379 60 385 55 406 55 c 2
 470 55 l 2
 499 55 499 55 499 26 c 2
 499 12 l 2
 499 3 497 0 482 0 c 2
 168 -0 l 2
 157 0 154 2 154 20 c 0
 154 28 153 34 153 39 c 0
 153 51 156 55 176 55 c 2
 248 55 l 2
 281 55 279 60 285 86 c 2
 329 282 l 2
 332 294 333 303 333 311 c 0
 333 328 327 340 318 360 c 2
 174 668 l 2
 162 693 160 695 122 695 c 2
 92 695 l 2
 72 695 70 697 70 710 c 2
 70 734 l 2
 70 748 72 750 92 750 c 2
EndSplineSet
EndChar

StartChar: agrave
Encoding: 224 224 156
Width: 636
VWidth: 0
Flags: HMW
LayerCount: 2
Fore
SplineSet
471 605 m 0
 471 588 464 591 449 591 c 2
 223 600 l 2
 204 601 188 616 188 635 c 0
 188 651 200 669 222 669 c 0
 225 669 229 669 233 668 c 2
 451 615 l 2
 464 612 471 614 471 605 c 0
589 124 m 0
 549 45 489 -10 428 -10 c 0
 381 -10 357 13 357 63 c 0
 357 68 358 75 358 81 c 0
 358 84 357 85 356 85 c 0
 351 85 336 61 329 54 c 0
 290 15 243 -10 192 -10 c 0
 103 -10 20 40 20 180 c 0
 20 380 193 529 302 529 c 0
 355 529 390 509 411 475 c 0
 422 458 426 423 432 423 c 0
 434 423 438 429 441 444 c 2
 453 496 l 2
 458 520 459 520 489 520 c 2
 519 520 l 2
 541 520 547 519 547 511 c 0
 547 507 545 500 543 490 c 2
 447 89 l 2
 446 83 445 76 445 71 c 0
 445 60 450 52 463 52 c 0
 492 52 532 95 557 150 c 0
 564 166 566 172 574 172 c 0
 578 172 584 170 593 167 c 0
 600 165 603 160 603 155 c 0
 603 146 594 134 589 124 c 0
408 320 m 0
 408 404 391 478 310 478 c 0
 226 478 120 324 120 180 c 0
 120 96 156 42 220 42 c 0
 311 42 408 206 408 320 c 0
EndSplineSet
EndChar

StartChar: aacute
Encoding: 225 225 157
Width: 636
VWidth: 0
Flags: HMW
LayerCount: 2
Fore
SplineSet
543 600 m 2
 316 591 l 2
 304 591 299 588 296 598 c 0
 293 611 294 610 307 613 c 2
 533 668 l 2
 537 669 541 669 544 669 c 0
 566 669 578 651 578 635 c 0
 578 616 562 601 543 600 c 2
589 124 m 0
 549 45 489 -10 428 -10 c 0
 381 -10 357 13 357 63 c 0
 357 68 358 75 358 81 c 0
 358 84 357 85 356 85 c 0
 351 85 336 61 329 54 c 0
 290 15 243 -10 192 -10 c 0
 103 -10 20 40 20 180 c 0
 20 380 193 529 302 529 c 0
 355 529 390 509 411 475 c 0
 422 458 426 423 432 423 c 0
 434 423 438 429 441 444 c 2
 453 496 l 2
 458 520 459 520 489 520 c 2
 519 520 l 2
 541 520 547 519 547 511 c 0
 547 507 545 500 543 490 c 2
 447 89 l 2
 446 83 445 76 445 71 c 0
 445 60 450 52 463 52 c 0
 492 52 532 95 557 150 c 0
 564 166 566 172 574 172 c 0
 578 172 584 170 593 167 c 0
 600 165 603 160 603 155 c 0
 603 146 594 134 589 124 c 0
408 320 m 0
 408 404 391 478 310 478 c 0
 226 478 120 324 120 180 c 0
 120 96 156 42 220 42 c 0
 311 42 408 206 408 320 c 0
EndSplineSet
EndChar

StartChar: acircumflex
Encoding: 226 226 158
Width: 636
VWidth: 0
Flags: HMW
LayerCount: 2
Fore
SplineSet
576 623 m 0
 576 618 555 604 547 604 c 0
 540 604 536 610 526 620 c 2
 405 743 l 2
 394 754 393 754 380 745 c 2
 192 615 l 2
 182 608 177 604 170 604 c 0
 163 604 139 615 139 621 c 0
 139 625 146 629 156 637 c 2
 352 798 l 2
 363 807 367 810 388 810 c 2
 412 810 l 2
 432 810 434 806 442 796 c 2
 563 642 l 2
 571 632 576 627 576 623 c 0
589 124 m 0
 549 45 489 -10 428 -10 c 0
 381 -10 357 13 357 63 c 0
 357 68 358 75 358 81 c 0
 358 84 357 85 356 85 c 0
 351 85 336 61 329 54 c 0
 290 15 243 -10 192 -10 c 0
 103 -10 20 40 20 180 c 0
 20 380 193 529 302 529 c 0
 355 529 390 509 411 475 c 0
 422 458 426 423 432 423 c 0
 434 423 438 429 441 444 c 2
 453 496 l 2
 458 520 459 520 489 520 c 2
 519 520 l 2
 541 520 547 519 547 511 c 0
 547 507 545 500 543 490 c 2
 447 89 l 2
 446 83 445 76 445 71 c 0
 445 60 450 52 463 52 c 0
 492 52 532 95 557 150 c 0
 564 166 566 172 574 172 c 0
 578 172 584 170 593 167 c 0
 600 165 603 160 603 155 c 0
 603 146 594 134 589 124 c 0
408 320 m 0
 408 404 391 478 310 478 c 0
 226 478 120 324 120 180 c 0
 120 96 156 42 220 42 c 0
 311 42 408 206 408 320 c 0
EndSplineSet
EndChar

StartChar: atilde
Encoding: 227 227 159
Width: 636
VWidth: 0
Flags: HMW
LayerCount: 2
Fore
SplineSet
287 704 m 0
 238 704 201 673 187 639 c 0
 177 614 186 610 151 610 c 0
 131 610 125 613 125 621 c 0
 125 626 128 635 131 645 c 0
 155 722 227 777 313 777 c 0
 413 777 413 683 489 683 c 0
 537 683 573 713 588 746 c 0
 600 772 589 777 626 777 c 0
 645 777 650 776 650 768 c 0
 650 764 649 759 647 751 c 0
 626 669 553 610 463 610 c 0
 346 610 350 704 287 704 c 0
589 124 m 0
 549 45 489 -10 428 -10 c 0
 381 -10 357 13 357 63 c 0
 357 68 358 75 358 81 c 0
 358 84 357 85 356 85 c 0
 351 85 336 61 329 54 c 0
 290 15 243 -10 192 -10 c 0
 103 -10 20 40 20 180 c 0
 20 380 193 529 302 529 c 0
 355 529 390 509 411 475 c 0
 422 458 426 423 432 423 c 0
 434 423 438 429 441 444 c 2
 453 496 l 2
 458 520 459 520 489 520 c 2
 519 520 l 2
 541 520 547 519 547 511 c 0
 547 507 545 500 543 490 c 2
 447 89 l 2
 446 83 445 76 445 71 c 0
 445 60 450 52 463 52 c 0
 492 52 532 95 557 150 c 0
 564 166 566 172 574 172 c 0
 578 172 584 170 593 167 c 0
 600 165 603 160 603 155 c 0
 603 146 594 134 589 124 c 0
408 320 m 0
 408 404 391 478 310 478 c 0
 226 478 120 324 120 180 c 0
 120 96 156 42 220 42 c 0
 311 42 408 206 408 320 c 0
EndSplineSet
EndChar

StartChar: adieresis
Encoding: 228 228 160
Width: 636
VWidth: 0
Flags: HMW
LayerCount: 2
Fore
SplineSet
428 650 m 0
 428 683 455 710 488 710 c 0
 521 710 548 683 548 650 c 0
 548 617 521 590 488 590 c 0
 455 590 428 617 428 650 c 0
228 650 m 0
 228 683 255 710 288 710 c 0
 321 710 348 683 348 650 c 0
 348 617 321 590 288 590 c 0
 255 590 228 617 228 650 c 0
589 124 m 0
 549 45 489 -10 428 -10 c 0
 381 -10 357 13 357 63 c 0
 357 68 358 75 358 81 c 0
 358 84 357 85 356 85 c 0
 351 85 336 61 329 54 c 0
 290 15 243 -10 192 -10 c 0
 103 -10 20 40 20 180 c 0
 20 380 193 529 302 529 c 0
 355 529 390 509 411 475 c 0
 422 458 426 423 432 423 c 0
 434 423 438 429 441 444 c 2
 453 496 l 2
 458 520 459 520 489 520 c 2
 519 520 l 2
 541 520 547 519 547 511 c 0
 547 507 545 500 543 490 c 2
 447 89 l 2
 446 83 445 76 445 71 c 0
 445 60 450 52 463 52 c 0
 492 52 532 95 557 150 c 0
 564 166 566 172 574 172 c 0
 578 172 584 170 593 167 c 0
 600 165 603 160 603 155 c 0
 603 146 594 134 589 124 c 0
408 320 m 0
 408 404 391 478 310 478 c 0
 226 478 120 324 120 180 c 0
 120 96 156 42 220 42 c 0
 311 42 408 206 408 320 c 0
EndSplineSet
EndChar

StartChar: aring
Encoding: 229 229 161
Width: 636
VWidth: 0
Flags: HMW
LayerCount: 2
Fore
SplineSet
313 710 m 0
 313 673 341 645 378 645 c 0
 415 645 443 673 443 710 c 0
 443 747 415 775 378 775 c 0
 341 775 313 747 313 710 c 0
258 710 m 0
 258 776 312 830 378 830 c 0
 444 830 498 776 498 710 c 0
 498 644 444 590 378 590 c 0
 312 590 258 644 258 710 c 0
589 124 m 0
 549 45 489 -10 428 -10 c 0
 381 -10 357 13 357 63 c 0
 357 68 358 75 358 81 c 0
 358 84 357 85 356 85 c 0
 351 85 336 61 329 54 c 0
 290 15 243 -10 192 -10 c 0
 103 -10 20 40 20 180 c 0
 20 380 193 529 302 529 c 0
 355 529 390 509 411 475 c 0
 422 458 426 423 432 423 c 0
 434 423 438 429 441 444 c 2
 453 496 l 2
 458 520 459 520 489 520 c 2
 519 520 l 2
 541 520 547 519 547 511 c 0
 547 507 545 500 543 490 c 2
 447 89 l 2
 446 83 445 76 445 71 c 0
 445 60 450 52 463 52 c 0
 492 52 532 95 557 150 c 0
 564 166 566 172 574 172 c 0
 578 172 584 170 593 167 c 0
 600 165 603 160 603 155 c 0
 603 146 594 134 589 124 c 0
408 320 m 0
 408 404 391 478 310 478 c 0
 226 478 120 324 120 180 c 0
 120 96 156 42 220 42 c 0
 311 42 408 206 408 320 c 0
EndSplineSet
EndChar

StartChar: ccedilla
Encoding: 231 231 162
Width: 540
VWidth: 0
Flags: HMW
LayerCount: 2
Fore
SplineSet
16 -240 m 1
 29 -241 41 -242 53 -242 c 0
 136 -242 174 -213 174 -192 c 0
 174 -159 127 -141 2 -141 c 1
 112 -1 l 1
 122 -1 l 1
 56 19 20 72 20 170 c 0
 20 370 176 530 337 530 c 0
 449 530 490 474 490 392 c 0
 490 334 451 315 417 315 c 0
 389 315 362 331 362 368 c 0
 362 404 394 414 394 437 c 0
 394 464 381 483 337 483 c 0
 218 483 122 334 122 170 c 0
 122 96 138 39 207 39 c 0
 274 39 334 88 373 138 c 0
 385 153 393 173 418 173 c 2
 434 173 l 2
 442 173 444 170 444 165 c 0
 444 157 437 146 433 140 c 0
 386 63 301 -10 195 -10 c 0
 188 -10 181 -9 175 -9 c 1
 101 -104 l 1
 184 -112 235 -140 235 -182 c 0
 235 -228 194 -283 52 -283 c 0
 41 -283 29 -283 16 -282 c 1
 16 -240 l 1
EndSplineSet
EndChar

StartChar: egrave
Encoding: 232 232 163
Width: 530
VWidth: 0
Flags: HMW
LayerCount: 2
Fore
SplineSet
367 605 m 0
 367 588 360 591 345 591 c 2
 119 600 l 2
 100 601 84 616 84 635 c 0
 84 651 96 669 118 669 c 0
 121 669 125 669 129 668 c 2
 347 615 l 2
 360 612 367 614 367 605 c 0
404 412 m 0
 404 469 381 483 337 483 c 0
 255 483 175 398 140 286 c 0
 137 276 135 270 135 266 c 0
 135 260 138 258 146 258 c 0
 151 258 158 259 168 260 c 0
 269 270 404 306 404 412 c 0
122 170 m 0
 122 96 148 39 217 39 c 0
 289 39 346 95 382 149 c 0
 393 165 391 173 418 173 c 0
 440 173 447 171 447 166 c 0
 447 161 441 153 434 141 c 0
 389 64 311 -10 205 -10 c 0
 94 -10 20 40 20 170 c 0
 20 370 186 530 337 530 c 0
 449 530 500 494 500 412 c 0
 500 255 282 220 152 213 c 0
 130 212 124 216 123 194 c 0
 123 186 122 178 122 170 c 0
EndSplineSet
EndChar

StartChar: eacute
Encoding: 233 233 164
Width: 530
VWidth: 0
Flags: HMW
LayerCount: 2
Fore
SplineSet
439 600 m 2
 212 591 l 2
 200 591 195 588 192 598 c 0
 189 611 190 610 203 613 c 2
 429 668 l 2
 433 669 437 669 440 669 c 0
 462 669 474 651 474 635 c 0
 474 616 458 601 439 600 c 2
404 412 m 0
 404 469 381 483 337 483 c 0
 255 483 175 398 140 286 c 0
 137 276 135 270 135 266 c 0
 135 260 138 258 146 258 c 0
 151 258 158 259 168 260 c 0
 269 270 404 306 404 412 c 0
122 170 m 0
 122 96 148 39 217 39 c 0
 289 39 346 95 382 149 c 0
 393 165 391 173 418 173 c 0
 440 173 447 171 447 166 c 0
 447 161 441 153 434 141 c 0
 389 64 311 -10 205 -10 c 0
 94 -10 20 40 20 170 c 0
 20 370 186 530 337 530 c 0
 449 530 500 494 500 412 c 0
 500 255 282 220 152 213 c 0
 130 212 124 216 123 194 c 0
 123 186 122 178 122 170 c 0
EndSplineSet
EndChar

StartChar: ecircumflex
Encoding: 234 234 165
Width: 530
VWidth: 0
Flags: HMW
LayerCount: 2
Fore
SplineSet
473 623 m 0
 473 618 452 604 443 604 c 0
 436 604 432 610 422 620 c 2
 301 743 l 2
 290 754 289 754 276 745 c 2
 88 615 l 2
 78 608 73 604 66 604 c 0
 59 604 36 616 36 621 c 0
 36 625 43 629 53 637 c 2
 248 798 l 2
 259 807 263 810 284 810 c 2
 309 810 l 2
 329 810 330 806 338 796 c 2
 459 642 l 2
 467 632 473 627 473 623 c 0
404 412 m 0
 404 469 381 483 337 483 c 0
 255 483 175 398 140 286 c 0
 137 276 135 270 135 266 c 0
 135 260 138 258 146 258 c 0
 151 258 158 259 168 260 c 0
 269 270 404 306 404 412 c 0
122 170 m 0
 122 96 148 39 217 39 c 0
 289 39 346 95 382 149 c 0
 393 165 391 173 418 173 c 0
 440 173 447 171 447 166 c 0
 447 161 441 153 434 141 c 0
 389 64 311 -10 205 -10 c 0
 94 -10 20 40 20 170 c 0
 20 370 186 530 337 530 c 0
 449 530 500 494 500 412 c 0
 500 255 282 220 152 213 c 0
 130 212 124 216 123 194 c 0
 123 186 122 178 122 170 c 0
EndSplineSet
EndChar

StartChar: edieresis
Encoding: 235 235 166
Width: 530
VWidth: 0
Flags: HMW
LayerCount: 2
Fore
SplineSet
324 650 m 0
 324 683 351 710 384 710 c 0
 417 710 444 683 444 650 c 0
 444 617 417 590 384 590 c 0
 351 590 324 617 324 650 c 0
124 650 m 0
 124 683 151 710 184 710 c 0
 217 710 244 683 244 650 c 0
 244 617 217 590 184 590 c 0
 151 590 124 617 124 650 c 0
404 412 m 0
 404 469 381 483 337 483 c 0
 255 483 175 398 140 286 c 0
 137 276 135 270 135 266 c 0
 135 260 138 258 146 258 c 0
 151 258 158 259 168 260 c 0
 269 270 404 306 404 412 c 0
122 170 m 0
 122 96 148 39 217 39 c 0
 289 39 346 95 382 149 c 0
 393 165 391 173 418 173 c 0
 440 173 447 171 447 166 c 0
 447 161 441 153 434 141 c 0
 389 64 311 -10 205 -10 c 0
 94 -10 20 40 20 170 c 0
 20 370 186 530 337 530 c 0
 449 530 500 494 500 412 c 0
 500 255 282 220 152 213 c 0
 130 212 124 216 123 194 c 0
 123 186 122 178 122 170 c 0
EndSplineSet
EndChar

StartChar: igrave
Encoding: 236 236 167
Width: 309
VWidth: 0
Flags: HMW
LayerCount: 2
Fore
SplineSet
311 835 m 0
 311 818 304 821 289 821 c 2
 63 830 l 2
 44 831 28 846 28 865 c 0
 28 881 40 899 62 899 c 0
 65 899 69 899 73 898 c 2
 291 845 l 2
 304 842 311 844 311 835 c 0
267 135 m 0
 227 50 165 -10 101 -10 c 0
 54 -10 30 13 30 63 c 0
 30 68 31 79 32 85 c 2
 113 441 l 2
 115 448 116 453 116 457 c 0
 116 465 110 465 93 465 c 2
 59 465 l 2
 35 465 33 468 33 485 c 2
 33 497 l 2
 33 518 37 520 50 520 c 0
 98 520 147 520 195 520 c 0
 215 520 221 518 221 511 c 0
 221 506 218 498 215 487 c 2
 120 89 l 2
 119 83 118 76 118 71 c 0
 118 60 123 52 136 52 c 0
 165 52 205 95 230 149 c 0
 237 164 237 173 246 173 c 0
 249 173 253 172 259 170 c 0
 272 166 276 162 276 157 c 0
 276 152 272 145 267 135 c 0
146 700 m 0
 146 733 173 760 206 760 c 0
 239 760 266 733 266 700 c 0
 266 667 239 640 206 640 c 0
 173 640 146 667 146 700 c 0
EndSplineSet
EndChar

StartChar: iacute
Encoding: 237 237 168
Width: 309
VWidth: 0
Flags: HMW
LayerCount: 2
Fore
SplineSet
383 830 m 2
 156 821 l 2
 144 821 139 818 136 828 c 0
 133 841 134 840 147 843 c 2
 373 898 l 2
 377 899 381 899 384 899 c 0
 406 899 418 881 418 865 c 0
 418 846 402 831 383 830 c 2
267 135 m 0
 227 50 165 -10 101 -10 c 0
 54 -10 30 13 30 63 c 0
 30 68 31 79 32 85 c 2
 113 441 l 2
 115 448 116 453 116 457 c 0
 116 465 110 465 93 465 c 2
 59 465 l 2
 35 465 33 468 33 485 c 2
 33 497 l 2
 33 518 37 520 50 520 c 0
 98 520 147 520 195 520 c 0
 215 520 221 518 221 511 c 0
 221 506 218 498 215 487 c 2
 120 89 l 2
 119 83 118 76 118 71 c 0
 118 60 123 52 136 52 c 0
 165 52 205 95 230 149 c 0
 237 164 237 173 246 173 c 0
 249 173 253 172 259 170 c 0
 272 166 276 162 276 157 c 0
 276 152 272 145 267 135 c 0
146 700 m 0
 146 733 173 760 206 760 c 0
 239 760 266 733 266 700 c 0
 266 667 239 640 206 640 c 0
 173 640 146 667 146 700 c 0
EndSplineSet
EndChar

StartChar: icircumflex
Encoding: 238 238 169
Width: 309
VWidth: 0
Flags: HMW
LayerCount: 2
Fore
SplineSet
416 853 m 0
 416 848 395 834 387 834 c 0
 380 834 376 840 366 850 c 2
 245 973 l 2
 234 984 233 984 220 975 c 2
 32 845 l 2
 22 838 17 834 10 834 c 0
 3 834 -21 845 -21 851 c 0
 -21 855 -14 859 -4 867 c 2
 192 1028 l 2
 203 1037 207 1040 228 1040 c 2
 252 1040 l 2
 272 1040 274 1036 282 1026 c 2
 403 872 l 2
 411 862 416 857 416 853 c 0
267 135 m 0
 227 50 165 -10 101 -10 c 0
 54 -10 30 13 30 63 c 0
 30 68 31 79 32 85 c 2
 113 441 l 2
 115 448 116 453 116 457 c 0
 116 465 110 465 93 465 c 2
 59 465 l 2
 35 465 33 468 33 485 c 2
 33 497 l 2
 33 518 37 520 50 520 c 0
 98 520 147 520 195 520 c 0
 215 520 221 518 221 511 c 0
 221 506 218 498 215 487 c 2
 120 89 l 2
 119 83 118 76 118 71 c 0
 118 60 123 52 136 52 c 0
 165 52 205 95 230 149 c 0
 237 164 237 173 246 173 c 0
 249 173 253 172 259 170 c 0
 272 166 276 162 276 157 c 0
 276 152 272 145 267 135 c 0
146 700 m 0
 146 733 173 760 206 760 c 0
 239 760 266 733 266 700 c 0
 266 667 239 640 206 640 c 0
 173 640 146 667 146 700 c 0
EndSplineSet
EndChar

StartChar: idieresis
Encoding: 239 239 170
Width: 309
VWidth: 0
Flags: HMW
LayerCount: 2
Fore
SplineSet
268 880 m 0
 268 913 295 940 328 940 c 0
 361 940 388 913 388 880 c 0
 388 847 361 820 328 820 c 0
 295 820 268 847 268 880 c 0
68 880 m 0
 68 913 95 940 128 940 c 0
 161 940 188 913 188 880 c 0
 188 847 161 820 128 820 c 0
 95 820 68 847 68 880 c 0
267 135 m 0
 227 50 165 -10 101 -10 c 0
 54 -10 30 13 30 63 c 0
 30 68 31 79 32 85 c 2
 113 441 l 2
 115 448 116 453 116 457 c 0
 116 465 110 465 93 465 c 2
 59 465 l 2
 35 465 33 468 33 485 c 2
 33 497 l 2
 33 518 37 520 50 520 c 0
 98 520 147 520 195 520 c 0
 215 520 221 518 221 511 c 0
 221 506 218 498 215 487 c 2
 120 89 l 2
 119 83 118 76 118 71 c 0
 118 60 123 52 136 52 c 0
 165 52 205 95 230 149 c 0
 237 164 237 173 246 173 c 0
 249 173 253 172 259 170 c 0
 272 166 276 162 276 157 c 0
 276 152 272 145 267 135 c 0
146 700 m 0
 146 733 173 760 206 760 c 0
 239 760 266 733 266 700 c 0
 266 667 239 640 206 640 c 0
 173 640 146 667 146 700 c 0
EndSplineSet
EndChar

StartChar: ntilde
Encoding: 241 241 171
Width: 633
VWidth: 0
Flags: HMW
LayerCount: 2
Fore
SplineSet
282 704 m 0
 233 704 196 673 182 639 c 0
 172 614 181 610 146 610 c 0
 126 610 120 613 120 621 c 0
 120 626 123 635 126 645 c 0
 150 722 222 777 308 777 c 0
 408 777 408 683 484 683 c 0
 532 683 567 713 582 746 c 0
 594 772 583 777 620 777 c 0
 639 777 645 775 645 767 c 0
 645 763 644 758 642 751 c 0
 621 669 548 610 458 610 c 0
 341 610 345 704 282 704 c 0
572 173 m 0
 588 173 600 162 600 157 c 0
 600 152 597 146 592 136 c 0
 553 50 489 -10 425 -10 c 0
 378 -10 354 13 354 63 c 0
 354 68 356 84 358 92 c 2
 416 306 l 2
 425 342 441 386 441 425 c 0
 441 457 428 476 393 476 c 0
 315 476 216 338 169 214 c 0
 159 188 153 164 146 136 c 2
 122 30 l 2
 116 6 119 0 88 0 c 2
 44 0 l 2
 30 0 26 4 26 11 c 0
 26 19 31 29 34 40 c 2
 125 434 l 2
 127 444 131 451 131 456 c 0
 131 462 126 465 110 465 c 2
 78 465 l 2
 52 465 50 467 50 485 c 2
 50 498 l 2
 50 518 52 520 65 520 c 0
 113 520 161 520 209 520 c 0
 227 520 232 516 232 508 c 0
 232 503 230 496 228 488 c 2
 210 410 l 2
 204 385 202 372 202 368 c 2
 202 366 l 1
 205 366 215 387 231 410 c 0
 282 484 342 529 406 529 c 0
 476 529 523 500 523 419 c 0
 523 383 513 345 505 314 c 2
 446 96 l 2
 443 87 442 76 442 71 c 0
 442 60 447 52 460 52 c 0
 487 52 524 89 549 138 c 0
 557 152 558 173 572 173 c 0
EndSplineSet
EndChar

StartChar: ograve
Encoding: 242 242 172
Width: 568
VWidth: 0
Flags: HMW
LayerCount: 2
Fore
SplineSet
457 605 m 0
 457 588 450 591 435 591 c 2
 209 600 l 2
 190 601 174 616 174 635 c 0
 174 651 186 669 208 669 c 0
 211 669 215 669 219 668 c 2
 437 615 l 2
 450 612 457 614 457 605 c 0
125 180 m 0
 125 106 150 35 219 35 c 0
 328 35 413 186 413 340 c 0
 413 414 388 485 319 485 c 0
 210 485 125 334 125 180 c 0
20 180 m 0
 20 370 158 530 319 530 c 0
 440 530 518 450 518 340 c 0
 518 150 380 -10 219 -10 c 0
 98 -10 20 70 20 180 c 0
EndSplineSet
EndChar

StartChar: oacute
Encoding: 243 243 173
Width: 568
VWidth: 0
Flags: HMW
LayerCount: 2
Fore
SplineSet
529 600 m 2
 302 591 l 2
 290 591 285 588 282 598 c 0
 279 611 280 610 293 613 c 2
 519 668 l 2
 523 669 527 669 530 669 c 0
 552 669 564 651 564 635 c 0
 564 616 548 601 529 600 c 2
125 180 m 0
 125 106 150 35 219 35 c 0
 328 35 413 186 413 340 c 0
 413 414 388 485 319 485 c 0
 210 485 125 334 125 180 c 0
20 180 m 0
 20 370 158 530 319 530 c 0
 440 530 518 450 518 340 c 0
 518 150 380 -10 219 -10 c 0
 98 -10 20 70 20 180 c 0
EndSplineSet
EndChar

StartChar: ocircumflex
Encoding: 244 244 174
Width: 568
VWidth: 0
Flags: HMW
LayerCount: 2
Fore
SplineSet
562 623 m 0
 562 618 541 604 533 604 c 0
 526 604 522 610 512 620 c 2
 391 743 l 2
 380 754 379 754 366 745 c 2
 178 615 l 2
 168 608 163 604 156 604 c 0
 149 604 125 615 125 621 c 0
 125 625 132 629 142 637 c 2
 338 798 l 2
 349 807 353 810 374 810 c 2
 398 810 l 2
 418 810 420 806 428 796 c 2
 549 642 l 2
 557 632 562 627 562 623 c 0
125 180 m 0
 125 106 150 35 219 35 c 0
 328 35 413 186 413 340 c 0
 413 414 388 485 319 485 c 0
 210 485 125 334 125 180 c 0
20 180 m 0
 20 370 158 530 319 530 c 0
 440 530 518 450 518 340 c 0
 518 150 380 -10 219 -10 c 0
 98 -10 20 70 20 180 c 0
EndSplineSet
EndChar

StartChar: otilde
Encoding: 245 245 175
Width: 568
VWidth: 0
Flags: HMW
LayerCount: 2
Fore
SplineSet
183 704 m 0
 134 704 97 673 83 639 c 0
 73 614 82 610 47 610 c 0
 27 610 21 613 21 621 c 0
 21 626 24 635 27 645 c 0
 51 722 123 777 209 777 c 0
 309 777 309 683 385 683 c 0
 433 683 469 713 484 746 c 0
 496 772 485 777 522 777 c 0
 541 777 546 776 546 768 c 0
 546 764 545 759 543 751 c 0
 522 669 449 610 359 610 c 0
 242 610 246 704 183 704 c 0
125 180 m 0
 125 106 150 35 219 35 c 0
 328 35 413 186 413 340 c 0
 413 414 388 485 319 485 c 0
 210 485 125 334 125 180 c 0
20 180 m 0
 20 370 158 530 319 530 c 0
 440 530 518 450 518 340 c 0
 518 150 380 -10 219 -10 c 0
 98 -10 20 70 20 180 c 0
EndSplineSet
EndChar

StartChar: odieresis
Encoding: 246 246 176
Width: 568
VWidth: 0
Flags: HMW
LayerCount: 2
Fore
SplineSet
414 650 m 0
 414 683 441 710 474 710 c 0
 507 710 534 683 534 650 c 0
 534 617 507 590 474 590 c 0
 441 590 414 617 414 650 c 0
214 650 m 0
 214 683 241 710 274 710 c 0
 307 710 334 683 334 650 c 0
 334 617 307 590 274 590 c 0
 241 590 214 617 214 650 c 0
125 180 m 0
 125 106 150 35 219 35 c 0
 328 35 413 186 413 340 c 0
 413 414 388 485 319 485 c 0
 210 485 125 334 125 180 c 0
20 180 m 0
 20 370 158 530 319 530 c 0
 440 530 518 450 518 340 c 0
 518 150 380 -10 219 -10 c 0
 98 -10 20 70 20 180 c 0
EndSplineSet
EndChar

StartChar: ugrave
Encoding: 249 249 177
Width: 685
VWidth: 0
Flags: HMW
LayerCount: 2
Fore
SplineSet
477 605 m 0
 477 588 471 591 456 591 c 2
 230 600 l 2
 211 601 194 616 194 635 c 0
 194 651 207 669 229 669 c 0
 232 669 236 669 240 668 c 2
 458 615 l 2
 471 612 477 613 477 605 c 0
626 171 m 0
 641 171 651 160 651 152 c 0
 651 140 638 124 630 109 c 0
 591 38 534 -10 477 -10 c 0
 430 -10 406 13 406 63 c 0
 406 68 407 79 408 85 c 2
 417 124 l 2
 421 142 423 152 423 155 c 2
 423 157 l 1
 421 157 415 144 404 127 c 0
 351 43 285 -9 217 -9 c 0
 147 -9 100 21 100 101 c 0
 100 143 113 188 123 224 c 2
 177 424 l 2
 180 433 181 444 181 449 c 0
 181 460 176 468 163 468 c 0
 134 468 94 426 69 372 c 0
 61 356 61 348 52 348 c 0
 45 348 22 356 22 361 c 0
 22 364 24 367 27 374 c 0
 66 465 131 530 198 530 c 0
 245 530 269 507 269 457 c 0
 269 452 267 436 265 428 c 2
 214 238 l 2
 207 213 200 188 194 164 c 0
 187 137 182 113 182 94 c 0
 182 63 195 44 230 44 c 0
 308 44 407 182 454 306 c 0
 464 332 470 357 477 386 c 2
 500 488 l 2
 506 516 504 520 540 520 c 2
 586 520 l 2
 595 520 598 515 598 509 c 0
 598 500 591 487 589 478 c 2
 496 89 l 2
 495 83 494 76 494 71 c 0
 494 60 499 52 512 52 c 0
 537 52 569 82 593 124 c 0
 604 143 607 171 626 171 c 0
EndSplineSet
EndChar

StartChar: uacute
Encoding: 250 250 178
Width: 685
VWidth: 0
Flags: HMW
LayerCount: 2
Fore
SplineSet
550 600 m 2
 322 591 l 2
 310 591 305 588 302 598 c 0
 299 611 301 610 314 613 c 2
 540 668 l 2
 544 669 548 669 551 669 c 0
 572 669 584 651 584 635 c 0
 584 616 569 601 550 600 c 2
626 171 m 0
 641 171 651 160 651 152 c 0
 651 140 638 124 630 109 c 0
 591 38 534 -10 477 -10 c 0
 430 -10 406 13 406 63 c 0
 406 68 407 79 408 85 c 2
 417 124 l 2
 421 142 423 152 423 155 c 2
 423 157 l 1
 421 157 415 144 404 127 c 0
 351 43 285 -9 217 -9 c 0
 147 -9 100 21 100 101 c 0
 100 143 113 188 123 224 c 2
 177 424 l 2
 180 433 181 444 181 449 c 0
 181 460 176 468 163 468 c 0
 134 468 94 426 69 372 c 0
 61 356 61 348 52 348 c 0
 45 348 22 356 22 361 c 0
 22 364 24 367 27 374 c 0
 66 465 131 530 198 530 c 0
 245 530 269 507 269 457 c 0
 269 452 267 436 265 428 c 2
 214 238 l 2
 207 213 200 188 194 164 c 0
 187 137 182 113 182 94 c 0
 182 63 195 44 230 44 c 0
 308 44 407 182 454 306 c 0
 464 332 470 357 477 386 c 2
 500 488 l 2
 506 516 504 520 540 520 c 2
 586 520 l 2
 595 520 598 515 598 509 c 0
 598 500 591 487 589 478 c 2
 496 89 l 2
 495 83 494 76 494 71 c 0
 494 60 499 52 512 52 c 0
 537 52 569 82 593 124 c 0
 604 143 607 171 626 171 c 0
EndSplineSet
EndChar

StartChar: ucircumflex
Encoding: 251 251 179
Width: 685
VWidth: 0
Flags: HMW
LayerCount: 2
Fore
SplineSet
583 623 m 0
 583 618 562 604 553 604 c 0
 546 604 542 610 532 620 c 2
 411 743 l 2
 400 754 399 754 386 745 c 2
 198 615 l 2
 188 608 183 604 176 604 c 0
 169 604 146 616 146 621 c 0
 146 625 153 629 163 637 c 2
 358 798 l 2
 369 807 373 810 394 810 c 2
 419 810 l 2
 439 810 440 806 448 796 c 2
 570 642 l 2
 578 632 583 627 583 623 c 0
626 171 m 0
 641 171 651 160 651 152 c 0
 651 140 638 124 630 109 c 0
 591 38 534 -10 477 -10 c 0
 430 -10 406 13 406 63 c 0
 406 68 407 79 408 85 c 2
 417 124 l 2
 421 142 423 152 423 155 c 2
 423 157 l 1
 421 157 415 144 404 127 c 0
 351 43 285 -9 217 -9 c 0
 147 -9 100 21 100 101 c 0
 100 143 113 188 123 224 c 2
 177 424 l 2
 180 433 181 444 181 449 c 0
 181 460 176 468 163 468 c 0
 134 468 94 426 69 372 c 0
 61 356 61 348 52 348 c 0
 45 348 22 356 22 361 c 0
 22 364 24 367 27 374 c 0
 66 465 131 530 198 530 c 0
 245 530 269 507 269 457 c 0
 269 452 267 436 265 428 c 2
 214 238 l 2
 207 213 200 188 194 164 c 0
 187 137 182 113 182 94 c 0
 182 63 195 44 230 44 c 0
 308 44 407 182 454 306 c 0
 464 332 470 357 477 386 c 2
 500 488 l 2
 506 516 504 520 540 520 c 2
 586 520 l 2
 595 520 598 515 598 509 c 0
 598 500 591 487 589 478 c 2
 496 89 l 2
 495 83 494 76 494 71 c 0
 494 60 499 52 512 52 c 0
 537 52 569 82 593 124 c 0
 604 143 607 171 626 171 c 0
EndSplineSet
EndChar

StartChar: udieresis
Encoding: 252 252 180
Width: 685
VWidth: 0
Flags: HMW
LayerCount: 2
Fore
SplineSet
434 650 m 0
 434 683 461 710 494 710 c 0
 527 710 554 683 554 650 c 0
 554 617 527 590 494 590 c 0
 461 590 434 617 434 650 c 0
234 650 m 0
 234 683 261 710 294 710 c 0
 327 710 354 683 354 650 c 0
 354 617 327 590 294 590 c 0
 261 590 234 617 234 650 c 0
626 171 m 0
 641 171 651 160 651 152 c 0
 651 140 638 124 630 109 c 0
 591 38 534 -10 477 -10 c 0
 430 -10 406 13 406 63 c 0
 406 68 407 79 408 85 c 2
 417 124 l 2
 421 142 423 152 423 155 c 2
 423 157 l 1
 421 157 415 144 404 127 c 0
 351 43 285 -9 217 -9 c 0
 147 -9 100 21 100 101 c 0
 100 143 113 188 123 224 c 2
 177 424 l 2
 180 433 181 444 181 449 c 0
 181 460 176 468 163 468 c 0
 134 468 94 426 69 372 c 0
 61 356 61 348 52 348 c 0
 45 348 22 356 22 361 c 0
 22 364 24 367 27 374 c 0
 66 465 131 530 198 530 c 0
 245 530 269 507 269 457 c 0
 269 452 267 436 265 428 c 2
 214 238 l 2
 207 213 200 188 194 164 c 0
 187 137 182 113 182 94 c 0
 182 63 195 44 230 44 c 0
 308 44 407 182 454 306 c 0
 464 332 470 357 477 386 c 2
 500 488 l 2
 506 516 504 520 540 520 c 2
 586 520 l 2
 595 520 598 515 598 509 c 0
 598 500 591 487 589 478 c 2
 496 89 l 2
 495 83 494 76 494 71 c 0
 494 60 499 52 512 52 c 0
 537 52 569 82 593 124 c 0
 604 143 607 171 626 171 c 0
EndSplineSet
EndChar

StartChar: yacute
Encoding: 253 253 181
Width: 675
VWidth: 0
Flags: HMW
LayerCount: 2
Fore
SplineSet
553 600 m 2
 326 591 l 2
 314 591 309 588 306 598 c 0
 303 611 304 610 317 613 c 2
 543 668 l 2
 547 669 551 669 554 669 c 0
 576 669 588 651 588 635 c 0
 588 616 572 601 553 600 c 2
61 399 m 0
 50 399 34 408 34 414 c 0
 34 418 37 424 41 433 c 0
 72 505 110 532 166 532 c 0
 223 532 250 506 264 458 c 0
 285 388 298 188 333 56 c 0
 341 25 348 13 355 13 c 0
 364 13 375 32 393 56 c 0
 503 197 586 354 586 409 c 0
 586 425 584 430 576 430 c 0
 564 430 567 414 533 414 c 0
 498 414 479 433 479 471 c 0
 479 501 500 539 554 539 c 0
 622 539 645 496 645 435 c 0
 645 265 295 -260 50 -260 c 0
 -37 -260 -80 -208 -80 -141 c 0
 -80 -95 -51 -58 -12 -58 c 0
 18 -58 38 -76 38 -107 c 0
 38 -145 -4 -140 -4 -166 c 0
 -4 -189 7 -205 50 -205 c 0
 109 -205 176 -166 242 -108 c 0
 262 -90 269 -80 269 -67 c 0
 269 -55 264 -41 257 -16 c 0
 217 133 182 392 160 449 c 0
 156 460 152 472 135 472 c 0
 124 472 103 459 85 428 c 0
 76 411 73 399 61 399 c 0
EndSplineSet
EndChar

StartChar: ydieresis
Encoding: 255 255 182
Width: 675
VWidth: 0
Flags: HMW
LayerCount: 2
Fore
SplineSet
438 650 m 0
 438 683 465 710 498 710 c 0
 531 710 558 683 558 650 c 0
 558 617 531 590 498 590 c 0
 465 590 438 617 438 650 c 0
238 650 m 0
 238 683 265 710 298 710 c 0
 331 710 358 683 358 650 c 0
 358 617 331 590 298 590 c 0
 265 590 238 617 238 650 c 0
61 399 m 0
 50 399 34 408 34 414 c 0
 34 418 37 424 41 433 c 0
 72 505 110 532 166 532 c 0
 223 532 250 506 264 458 c 0
 285 388 298 188 333 56 c 0
 341 25 348 13 355 13 c 0
 364 13 375 32 393 56 c 0
 503 197 586 354 586 409 c 0
 586 425 584 430 576 430 c 0
 564 430 567 414 533 414 c 0
 498 414 479 433 479 471 c 0
 479 501 500 539 554 539 c 0
 622 539 645 496 645 435 c 0
 645 265 295 -260 50 -260 c 0
 -37 -260 -80 -208 -80 -141 c 0
 -80 -95 -51 -58 -12 -58 c 0
 18 -58 38 -76 38 -107 c 0
 38 -145 -4 -140 -4 -166 c 0
 -4 -189 7 -205 50 -205 c 0
 109 -205 176 -166 242 -108 c 0
 262 -90 269 -80 269 -67 c 0
 269 -55 264 -41 257 -16 c 0
 217 133 182 392 160 449 c 0
 156 460 152 472 135 472 c 0
 124 472 103 459 85 428 c 0
 76 411 73 399 61 399 c 0
EndSplineSet
EndChar

StartChar: Amacron
Encoding: 256 256 183
Width: 900
VWidth: 0
Flags: HMW
LayerCount: 2
Fore
SplineSet
391 875 m 2
 716 875 l 2
 748 875 747 875 747 848 c 2
 747 840 l 2
 747 821 745 820 717 820 c 2
 378 820 l 2
 349 820 347 823 347 841 c 2
 347 852 l 2
 347 873 353 876 368 876 c 0
 374 876 382 875 391 875 c 2
587 704 m 2
 703 92 l 2
 709 61 705 55 744 55 c 2
 778 55 l 2
 785 55 791 56 796 56 c 0
 805 56 810 53 810 40 c 2
 810 30 l 2
 810 2 808 0 774 0 c 2
 544 0 l 2
 532 0 522 -2 513 -2 c 0
 499 -2 490 3 490 24 c 0
 490 27 490 30 490 33 c 0
 490 53 492 55 518 55 c 2
 566 55 l 2
 592 55 600 56 600 69 c 0
 600 74 599 81 597 90 c 2
 581 188 l 2
 575 219 572 220 540 220 c 2
 288 220 l 2
 245 220 236 220 220 194 c 2
 162 100 l 2
 154 88 139 73 139 64 c 0
 139 59 144 55 160 55 c 2
 212 55 l 2
 228 55 230 53 230 30 c 2
 230 18 l 2
 230 3 228 0 206 0 c 2
 -23 -0 l 2
 -49 0 -50 1 -50 30 c 2
 -50 43 l 2
 -50 52 -48 55 -32 55 c 2
 20 55 l 2
 72 55 71 74 90 104 c 2
 477 720 l 2
 501 759 499 765 527 765 c 2
 549 765 l 2
 582 765 582 730 587 704 c 2
484 618 m 2
 286 300 l 2
 280 290 276 285 276 281 c 0
 276 276 284 275 300 275 c 0
 380 275 460 275 540 275 c 0
 560 275 565 282 565 292 c 0
 565 303 560 317 557 332 c 2
 510 616 l 2
 507 636 505 644 502 644 c 0
 498 644 493 633 484 618 c 2
EndSplineSet
EndChar

StartChar: amacron
Encoding: 257 257 184
Width: 636
VWidth: 0
Flags: HMW
LayerCount: 2
Fore
SplineSet
223 645 m 2
 548 645 l 2
 580 645 580 645 580 618 c 0
 580 591 581 590 549 590 c 2
 210 590 l 2
 182 590 180 592 180 608 c 2
 180 622 l 2
 180 643 185 646 200 646 c 0
 206 646 214 645 223 645 c 2
589 124 m 0
 549 45 489 -10 428 -10 c 0
 381 -10 357 13 357 63 c 0
 357 68 358 75 358 81 c 0
 358 84 357 85 356 85 c 0
 351 85 336 61 329 54 c 0
 290 15 243 -10 192 -10 c 0
 103 -10 20 40 20 180 c 0
 20 380 193 529 302 529 c 0
 355 529 390 509 411 475 c 0
 422 458 426 423 432 423 c 0
 434 423 438 429 441 444 c 2
 453 496 l 2
 458 520 459 520 489 520 c 2
 519 520 l 2
 541 520 547 519 547 511 c 0
 547 507 545 500 543 490 c 2
 447 89 l 2
 446 83 445 76 445 71 c 0
 445 60 450 52 463 52 c 0
 492 52 532 95 557 150 c 0
 564 166 566 172 574 172 c 0
 578 172 584 170 593 167 c 0
 600 165 603 160 603 155 c 0
 603 146 594 134 589 124 c 0
408 320 m 0
 408 404 391 478 310 478 c 0
 226 478 120 324 120 180 c 0
 120 96 156 42 220 42 c 0
 311 42 408 206 408 320 c 0
EndSplineSet
EndChar

StartChar: Cacute
Encoding: 262 262 185
Width: 797
VWidth: 0
Flags: HMW
LayerCount: 2
Fore
SplineSet
680 830 m 2
 453 821 l 2
 441 821 436 818 433 828 c 0
 430 841 431 840 444 843 c 2
 670 898 l 2
 674 899 678 899 681 899 c 0
 703 899 715 881 715 865 c 0
 715 846 699 831 680 830 c 2
705 224 m 0
 650 106 531 -10 345 -10 c 0
 172 -10 45 95 45 305 c 0
 45 516 227 760 485 760 c 0
 567 760 627 741 670 711 c 0
 699 691 708 673 718 673 c 0
 726 673 734 683 749 710 c 0
 758 725 762 750 786 750 c 2
 806 750 l 2
 822 750 826 745 826 738 c 0
 826 731 821 721 819 710 c 2
 781 534 l 2
 775 507 781 495 746 495 c 0
 724 495 720 496 720 506 c 0
 720 510 721 516 721 524 c 0
 721 627 624 699 493 699 c 0
 282 699 160 480 160 305 c 0
 160 143 229 53 363 53 c 0
 482 53 572 127 627 214 c 0
 646 244 652 275 682 275 c 2
 703 275 l 2
 718 275 723 270 723 263 c 0
 723 252 711 237 705 224 c 0
EndSplineSet
EndChar

StartChar: cacute
Encoding: 263 263 186
Width: 540
VWidth: 0
Flags: HMW
LayerCount: 2
Fore
SplineSet
474 600 m 2
 247 591 l 2
 235 591 230 588 227 598 c 0
 224 611 225 610 238 613 c 2
 464 668 l 2
 468 669 472 669 475 669 c 0
 497 669 509 651 509 635 c 0
 509 616 493 601 474 600 c 2
490 392 m 0
 490 334 451 315 417 315 c 0
 389 315 362 331 362 368 c 0
 362 404 394 414 394 437 c 0
 394 464 381 483 337 483 c 0
 218 483 122 334 122 170 c 0
 122 96 138 39 207 39 c 0
 274 39 334 88 373 138 c 0
 385 153 393 173 418 173 c 2
 434 173 l 2
 442 173 444 170 444 165 c 0
 444 157 437 146 433 140 c 0
 386 63 301 -10 195 -10 c 0
 84 -10 20 40 20 170 c 0
 20 370 176 530 337 530 c 0
 449 530 490 474 490 392 c 0
EndSplineSet
EndChar

StartChar: Ccircumflex
Encoding: 264 264 187
Width: 797
VWidth: 0
Flags: HMW
LayerCount: 2
Fore
SplineSet
714 853 m 0
 714 848 693 834 684 834 c 0
 677 834 673 840 663 850 c 2
 542 973 l 2
 531 984 529 984 516 975 c 2
 328 845 l 2
 318 838 313 834 307 834 c 0
 300 834 277 846 277 851 c 0
 277 855 284 859 294 867 c 2
 488 1028 l 2
 499 1037 503 1040 524 1040 c 2
 550 1040 l 2
 570 1040 571 1036 579 1026 c 2
 700 872 l 2
 708 862 714 857 714 853 c 0
705 224 m 0
 650 106 531 -10 345 -10 c 0
 172 -10 45 95 45 305 c 0
 45 516 227 760 485 760 c 0
 567 760 627 741 670 711 c 0
 699 691 708 673 718 673 c 0
 726 673 734 683 749 710 c 0
 758 725 762 750 786 750 c 2
 806 750 l 2
 822 750 826 745 826 738 c 0
 826 731 821 721 819 710 c 2
 781 534 l 2
 775 507 781 495 746 495 c 0
 724 495 720 496 720 506 c 0
 720 510 721 516 721 524 c 0
 721 627 624 699 493 699 c 0
 282 699 160 480 160 305 c 0
 160 143 229 53 363 53 c 0
 482 53 572 127 627 214 c 0
 646 244 652 275 682 275 c 2
 703 275 l 2
 718 275 723 270 723 263 c 0
 723 252 711 237 705 224 c 0
EndSplineSet
EndChar

StartChar: ccircumflex
Encoding: 265 265 188
Width: 540
VWidth: 0
Flags: HMW
LayerCount: 2
Fore
SplineSet
508 623 m 0
 508 618 487 604 478 604 c 0
 471 604 467 610 457 620 c 2
 336 743 l 2
 325 754 324 754 311 745 c 2
 123 615 l 2
 113 608 108 604 101 604 c 0
 94 604 71 616 71 621 c 0
 71 625 78 629 88 637 c 2
 283 798 l 2
 294 807 298 810 319 810 c 2
 344 810 l 2
 364 810 365 806 373 796 c 2
 494 642 l 2
 502 632 508 627 508 623 c 0
490 392 m 0
 490 334 451 315 417 315 c 0
 389 315 362 331 362 368 c 0
 362 404 394 414 394 437 c 0
 394 464 381 483 337 483 c 0
 218 483 122 334 122 170 c 0
 122 96 138 39 207 39 c 0
 274 39 334 88 373 138 c 0
 385 153 393 173 418 173 c 2
 434 173 l 2
 442 173 444 170 444 165 c 0
 444 157 437 146 433 140 c 0
 386 63 301 -10 195 -10 c 0
 84 -10 20 40 20 170 c 0
 20 370 176 530 337 530 c 0
 449 530 490 474 490 392 c 0
EndSplineSet
EndChar

StartChar: Cdotaccent
Encoding: 266 266 189
Width: 797
VWidth: 0
Flags: HMW
LayerCount: 2
Fore
SplineSet
305 880 m 0
 305 913 332 940 365 940 c 0
 398 940 425 913 425 880 c 0
 425 847 398 820 365 820 c 0
 332 820 305 847 305 880 c 0
705 224 m 0
 650 106 531 -10 345 -10 c 0
 172 -10 45 95 45 305 c 0
 45 516 227 760 485 760 c 0
 567 760 627 741 670 711 c 0
 699 691 708 673 718 673 c 0
 726 673 734 683 749 710 c 0
 758 725 762 750 786 750 c 2
 806 750 l 2
 822 750 826 745 826 738 c 0
 826 731 821 721 819 710 c 2
 781 534 l 2
 775 507 781 495 746 495 c 0
 724 495 720 496 720 506 c 0
 720 510 721 516 721 524 c 0
 721 627 624 699 493 699 c 0
 282 699 160 480 160 305 c 0
 160 143 229 53 363 53 c 0
 482 53 572 127 627 214 c 0
 646 244 652 275 682 275 c 2
 703 275 l 2
 718 275 723 270 723 263 c 0
 723 252 711 237 705 224 c 0
EndSplineSet
EndChar

StartChar: cdotaccent
Encoding: 267 267 190
Width: 540
VWidth: 0
Flags: HMW
LayerCount: 2
Fore
SplineSet
99 650 m 0
 99 683 126 710 159 710 c 0
 192 710 219 683 219 650 c 0
 219 617 192 590 159 590 c 0
 126 590 99 617 99 650 c 0
490 392 m 0
 490 334 451 315 417 315 c 0
 389 315 362 331 362 368 c 0
 362 404 394 414 394 437 c 0
 394 464 381 483 337 483 c 0
 218 483 122 334 122 170 c 0
 122 96 138 39 207 39 c 0
 274 39 334 88 373 138 c 0
 385 153 393 173 418 173 c 2
 434 173 l 2
 442 173 444 170 444 165 c 0
 444 157 437 146 433 140 c 0
 386 63 301 -10 195 -10 c 0
 84 -10 20 40 20 170 c 0
 20 370 176 530 337 530 c 0
 449 530 490 474 490 392 c 0
EndSplineSet
EndChar

StartChar: Ccaron
Encoding: 268 268 191
Width: 797
VWidth: 0
Flags: HMW
LayerCount: 2
Fore
SplineSet
277 1009 m 0
 277 1014 300 1026 307 1026 c 0
 313 1026 318 1022 328 1015 c 2
 516 885 l 2
 529 876 531 876 542 887 c 2
 663 1010 l 2
 673 1020 677 1026 684 1026 c 0
 693 1026 714 1012 714 1007 c 0
 714 1003 708 998 700 988 c 2
 579 834 l 2
 571 824 570 820 550 820 c 2
 524 820 l 2
 503 820 499 823 488 832 c 2
 294 993 l 2
 284 1001 277 1005 277 1009 c 0
705 224 m 0
 650 106 531 -10 345 -10 c 0
 172 -10 45 95 45 305 c 0
 45 516 227 760 485 760 c 0
 567 760 627 741 670 711 c 0
 699 691 708 673 718 673 c 0
 726 673 734 683 749 710 c 0
 758 725 762 750 786 750 c 2
 806 750 l 2
 822 750 826 745 826 738 c 0
 826 731 821 721 819 710 c 2
 781 534 l 2
 775 507 781 495 746 495 c 0
 724 495 720 496 720 506 c 0
 720 510 721 516 721 524 c 0
 721 627 624 699 493 699 c 0
 282 699 160 480 160 305 c 0
 160 143 229 53 363 53 c 0
 482 53 572 127 627 214 c 0
 646 244 652 275 682 275 c 2
 703 275 l 2
 718 275 723 270 723 263 c 0
 723 252 711 237 705 224 c 0
EndSplineSet
EndChar

StartChar: ccaron
Encoding: 269 269 192
Width: 540
VWidth: 0
Flags: HMW
LayerCount: 2
Fore
SplineSet
71 779 m 0
 71 784 94 796 101 796 c 0
 108 796 113 792 123 785 c 2
 311 655 l 2
 324 646 325 646 336 657 c 2
 457 780 l 2
 467 790 471 796 478 796 c 0
 487 796 508 782 508 777 c 0
 508 773 502 768 494 758 c 2
 373 604 l 2
 365 594 364 590 344 590 c 2
 319 590 l 2
 298 590 294 593 283 602 c 2
 88 763 l 2
 78 771 71 775 71 779 c 0
490 392 m 0
 490 334 451 315 417 315 c 0
 389 315 362 331 362 368 c 0
 362 404 394 414 394 437 c 0
 394 464 381 483 337 483 c 0
 218 483 122 334 122 170 c 0
 122 96 138 39 207 39 c 0
 274 39 334 88 373 138 c 0
 385 153 393 173 418 173 c 2
 434 173 l 2
 442 173 444 170 444 165 c 0
 444 157 437 146 433 140 c 0
 386 63 301 -10 195 -10 c 0
 84 -10 20 40 20 170 c 0
 20 370 176 530 337 530 c 0
 449 530 490 474 490 392 c 0
EndSplineSet
EndChar

StartChar: Dcaron
Encoding: 270 270 193
Width: 818
VWidth: 0
Flags: HMW
LayerCount: 2
Fore
SplineSet
239 1009 m 0
 239 1015 263 1026 270 1026 c 0
 277 1026 282 1022 292 1015 c 2
 480 885 l 2
 493 876 494 876 505 887 c 2
 626 1010 l 2
 636 1020 640 1026 647 1026 c 0
 655 1026 676 1012 676 1007 c 0
 676 1003 671 998 663 988 c 2
 542 834 l 2
 534 824 532 820 512 820 c 2
 488 820 l 2
 467 820 463 823 452 832 c 2
 256 993 l 2
 246 1001 239 1005 239 1009 c 0
246 55 m 2
 323 55 l 2
 507 55 658 243 658 485 c 0
 658 597 637 695 473 695 c 2
 381 695 l 2
 366 695 354 696 343 696 c 0
 323 696 311 692 306 668 c 2
 190 125 l 2
 185 102 181 86 181 76 c 0
 181 57 195 55 246 55 c 2
323 0 m 2
 3 0 l 2
 -6 0 -14 -1 -20 -1 c 0
 -35 -1 -40 3 -40 29 c 0
 -40 54 -41 55 -15 55 c 2
 39 55 l 2
 86 55 78 74 86 110 c 2
 205 665 l 2
 207 674 208 681 208 685 c 0
 208 694 202 695 177 695 c 2
 117 695 l 2
 99 695 97 699 97 709 c 2
 97 725 l 2
 97 747 106 751 120 751 c 0
 128 751 138 750 150 750 c 2
 473 750 l 2
 706 750 773 598 773 465 c 0
 773 192 546 0 323 0 c 2
EndSplineSet
EndChar

StartChar: dcaron
Encoding: 271 271 194
Width: 648
VWidth: 0
Flags: HMW
LayerCount: 2
Fore
SplineSet
669 721 m 0
 669 754 698 780 736 780 c 0
 775 780 805 749 805 696 c 0
 805 621 737 546 662 523 c 0
 654 521 640 516 630 516 c 0
 623 516 617 518 617 526 c 2
 617 544 l 2
 617 560 622 555 635 558 c 0
 681 568 738 611 753 656 c 0
 755 663 756 667 756 669 c 0
 756 671 755 671 754 671 c 0
 751 671 746 666 740 664 c 0
 735 662 729 662 722 662 c 0
 689 662 669 688 669 721 c 0
367 63 m 0
 367 72 372 98 372 103 c 2
 372 105 l 1
 370 105 366 97 358 88 c 0
 310 30 247 -10 182 -10 c 0
 93 -10 20 40 20 180 c 0
 20 380 203 529 312 529 c 0
 372 529 407 508 427 471 c 0
 440 447 444 432 447 432 c 0
 450 432 451 445 458 477 c 2
 504 683 l 2
 506 694 512 706 512 714 c 0
 512 721 508 725 495 725 c 2
 443 725 l 2
 432 725 428 727 428 745 c 0
 428 776 435 781 454 781 c 0
 461 781 470 780 481 780 c 2
 585 780 l 2
 609 780 615 777 615 769 c 0
 615 763 612 755 609 743 c 2
 457 89 l 2
 456 83 455 76 455 71 c 0
 455 60 460 52 473 52 c 0
 502 52 541 94 566 147 c 0
 574 163 574 173 584 173 c 0
 587 173 591 172 597 170 c 0
 609 166 613 162 613 157 c 0
 613 151 608 143 603 132 c 0
 563 48 502 -10 438 -10 c 0
 391 -10 367 13 367 63 c 0
418 320 m 0
 418 404 411 478 320 478 c 0
 236 478 120 324 120 180 c 0
 120 96 146 42 210 42 c 0
 301 42 418 206 418 320 c 0
EndSplineSet
EndChar

StartChar: Emacron
Encoding: 274 274 195
Width: 729
VWidth: 0
Flags: HMW
LayerCount: 2
Fore
SplineSet
291 875 m 2
 616 875 l 2
 648 875 647 875 647 848 c 2
 647 840 l 2
 647 821 645 820 617 820 c 2
 278 820 l 2
 249 820 247 823 247 841 c 2
 247 852 l 2
 247 873 253 876 268 876 c 0
 274 876 282 875 291 875 c 2
243 329 m 2
 190 95 l 2
 187 82 184 73 184 67 c 0
 184 56 194 55 225 55 c 2
 398 55 l 2
 524 55 579 91 618 219 c 0
 625 240 620 255 651 255 c 0
 670 255 676 250 676 242 c 0
 676 233 669 221 666 206 c 2
 631 56 l 2
 619 3 618 0 552 0 c 2
 42 0 l 2
 29 0 11 -3 -4 -3 c 0
 -24 -3 -40 2 -40 20 c 2
 -40 25 l 2
 -40 54 -39 55 -6 55 c 2
 51 55 l 2
 91 55 85 74 92 104 c 2
 219 668 l 2
 221 676 222 682 222 686 c 0
 222 694 217 695 204 695 c 2
 127 695 l 2
 105 695 104 696 104 722 c 0
 104 747 109 750 124 750 c 2
 712 750 l 2
 751 750 762 750 762 732 c 0
 762 724 760 712 756 695 c 2
 732 590 l 2
 724 555 731 515 684 515 c 0
 671 515 667 523 667 533 c 0
 667 547 675 567 676 578 c 0
 677 587 677 596 677 604 c 0
 677 672 642 695 555 695 c 2
 360 695 l 2
 317 695 322 683 315 650 c 2
 274 467 l 2
 270 448 263 434 263 424 c 0
 263 413 271 408 300 408 c 2
 333 408 l 2
 389 408 429 429 456 461 c 0
 473 481 475 523 510 523 c 0
 526 523 531 517 531 508 c 0
 531 497 523 481 520 467 c 2
 477 287 l 2
 472 267 477 248 450 248 c 0
 430 248 425 252 425 260 c 0
 425 267 428 276 428 288 c 0
 428 336 402 368 333 368 c 2
 291 368 l 2
 248 368 251 363 243 329 c 2
EndSplineSet
EndChar

StartChar: emacron
Encoding: 275 275 196
Width: 530
VWidth: 0
Flags: HMW
LayerCount: 2
Fore
SplineSet
119 645 m 2
 444 645 l 2
 476 645 476 645 476 618 c 0
 476 591 477 590 445 590 c 2
 106 590 l 2
 78 590 76 592 76 608 c 2
 76 622 l 2
 76 643 81 646 96 646 c 0
 102 646 110 645 119 645 c 2
404 412 m 0
 404 469 381 483 337 483 c 0
 255 483 175 398 140 286 c 0
 137 276 135 270 135 266 c 0
 135 260 138 258 146 258 c 0
 151 258 158 259 168 260 c 0
 269 270 404 306 404 412 c 0
122 170 m 0
 122 96 148 39 217 39 c 0
 289 39 346 95 382 149 c 0
 393 165 391 173 418 173 c 0
 440 173 447 171 447 166 c 0
 447 161 441 153 434 141 c 0
 389 64 311 -10 205 -10 c 0
 94 -10 20 40 20 170 c 0
 20 370 186 530 337 530 c 0
 449 530 500 494 500 412 c 0
 500 255 282 220 152 213 c 0
 130 212 124 216 123 194 c 0
 123 186 122 178 122 170 c 0
EndSplineSet
EndChar

StartChar: Edotaccent
Encoding: 278 278 197
Width: 729
VWidth: 0
Flags: HMW
LayerCount: 2
Fore
SplineSet
236 880 m 0
 236 913 263 940 296 940 c 0
 329 940 356 913 356 880 c 0
 356 847 329 820 296 820 c 0
 263 820 236 847 236 880 c 0
243 329 m 2
 190 95 l 2
 187 82 184 73 184 67 c 0
 184 56 194 55 225 55 c 2
 398 55 l 2
 524 55 579 91 618 219 c 0
 625 240 620 255 651 255 c 0
 670 255 676 250 676 242 c 0
 676 233 669 221 666 206 c 2
 631 56 l 2
 619 3 618 0 552 0 c 2
 42 0 l 2
 29 0 11 -3 -4 -3 c 0
 -24 -3 -40 2 -40 20 c 2
 -40 25 l 2
 -40 54 -39 55 -6 55 c 2
 51 55 l 2
 91 55 85 74 92 104 c 2
 219 668 l 2
 221 676 222 682 222 686 c 0
 222 694 217 695 204 695 c 2
 127 695 l 2
 105 695 104 696 104 722 c 0
 104 747 109 750 124 750 c 2
 712 750 l 2
 751 750 762 750 762 732 c 0
 762 724 760 712 756 695 c 2
 732 590 l 2
 724 555 731 515 684 515 c 0
 671 515 667 523 667 533 c 0
 667 547 675 567 676 578 c 0
 677 587 677 596 677 604 c 0
 677 672 642 695 555 695 c 2
 360 695 l 2
 317 695 322 683 315 650 c 2
 274 467 l 2
 270 448 263 434 263 424 c 0
 263 413 271 408 300 408 c 2
 333 408 l 2
 389 408 429 429 456 461 c 0
 473 481 475 523 510 523 c 0
 526 523 531 517 531 508 c 0
 531 497 523 481 520 467 c 2
 477 287 l 2
 472 267 477 248 450 248 c 0
 430 248 425 252 425 260 c 0
 425 267 428 276 428 288 c 0
 428 336 402 368 333 368 c 2
 291 368 l 2
 248 368 251 363 243 329 c 2
EndSplineSet
EndChar

StartChar: edotaccent
Encoding: 279 279 198
Width: 530
VWidth: 0
Flags: HMW
LayerCount: 2
Fore
SplineSet
64 650 m 0
 64 683 91 710 124 710 c 0
 157 710 184 683 184 650 c 0
 184 617 157 590 124 590 c 0
 91 590 64 617 64 650 c 0
404 412 m 0
 404 469 381 483 337 483 c 0
 255 483 175 398 140 286 c 0
 137 276 135 270 135 266 c 0
 135 260 138 258 146 258 c 0
 151 258 158 259 168 260 c 0
 269 270 404 306 404 412 c 0
122 170 m 0
 122 96 148 39 217 39 c 0
 289 39 346 95 382 149 c 0
 393 165 391 173 418 173 c 0
 440 173 447 171 447 166 c 0
 447 161 441 153 434 141 c 0
 389 64 311 -10 205 -10 c 0
 94 -10 20 40 20 170 c 0
 20 370 186 530 337 530 c 0
 449 530 500 494 500 412 c 0
 500 255 282 220 152 213 c 0
 130 212 124 216 123 194 c 0
 123 186 122 178 122 170 c 0
EndSplineSet
EndChar

StartChar: Ecaron
Encoding: 282 282 199
Width: 729
VWidth: 0
Flags: HMW
LayerCount: 2
Fore
SplineSet
207 1009 m 0
 207 1014 230 1026 237 1026 c 0
 244 1026 249 1022 259 1015 c 2
 447 885 l 2
 460 876 461 876 472 887 c 2
 593 1010 l 2
 603 1020 607 1026 614 1026 c 0
 623 1026 644 1012 644 1007 c 0
 644 1003 639 998 631 988 c 2
 509 834 l 2
 501 824 500 820 480 820 c 2
 455 820 l 2
 434 820 430 823 419 832 c 2
 224 993 l 2
 214 1001 207 1005 207 1009 c 0
243 329 m 2
 190 95 l 2
 187 82 184 73 184 67 c 0
 184 56 194 55 225 55 c 2
 398 55 l 2
 524 55 579 91 618 219 c 0
 625 240 620 255 651 255 c 0
 670 255 676 250 676 242 c 0
 676 233 669 221 666 206 c 2
 631 56 l 2
 619 3 618 0 552 0 c 2
 42 0 l 2
 29 0 11 -3 -4 -3 c 0
 -24 -3 -40 2 -40 20 c 2
 -40 25 l 2
 -40 54 -39 55 -6 55 c 2
 51 55 l 2
 91 55 85 74 92 104 c 2
 219 668 l 2
 221 676 222 682 222 686 c 0
 222 694 217 695 204 695 c 2
 127 695 l 2
 105 695 104 696 104 722 c 0
 104 747 109 750 124 750 c 2
 712 750 l 2
 751 750 762 750 762 732 c 0
 762 724 760 712 756 695 c 2
 732 590 l 2
 724 555 731 515 684 515 c 0
 671 515 667 523 667 533 c 0
 667 547 675 567 676 578 c 0
 677 587 677 596 677 604 c 0
 677 672 642 695 555 695 c 2
 360 695 l 2
 317 695 322 683 315 650 c 2
 274 467 l 2
 270 448 263 434 263 424 c 0
 263 413 271 408 300 408 c 2
 333 408 l 2
 389 408 429 429 456 461 c 0
 473 481 475 523 510 523 c 0
 526 523 531 517 531 508 c 0
 531 497 523 481 520 467 c 2
 477 287 l 2
 472 267 477 248 450 248 c 0
 430 248 425 252 425 260 c 0
 425 267 428 276 428 288 c 0
 428 336 402 368 333 368 c 2
 291 368 l 2
 248 368 251 363 243 329 c 2
EndSplineSet
EndChar

StartChar: ecaron
Encoding: 283 283 200
Width: 530
VWidth: 0
Flags: HMW
LayerCount: 2
Fore
SplineSet
36 779 m 0
 36 784 59 796 66 796 c 0
 73 796 78 792 88 785 c 2
 276 655 l 2
 289 646 290 646 301 657 c 2
 422 780 l 2
 432 790 436 796 443 796 c 0
 452 796 473 782 473 777 c 0
 473 773 467 768 459 758 c 2
 338 604 l 2
 330 594 329 590 309 590 c 2
 284 590 l 2
 263 590 259 593 248 602 c 2
 53 763 l 2
 43 771 36 775 36 779 c 0
404 412 m 0
 404 469 381 483 337 483 c 0
 255 483 175 398 140 286 c 0
 137 276 135 270 135 266 c 0
 135 260 138 258 146 258 c 0
 151 258 158 259 168 260 c 0
 269 270 404 306 404 412 c 0
122 170 m 0
 122 96 148 39 217 39 c 0
 289 39 346 95 382 149 c 0
 393 165 391 173 418 173 c 0
 440 173 447 171 447 166 c 0
 447 161 441 153 434 141 c 0
 389 64 311 -10 205 -10 c 0
 94 -10 20 40 20 170 c 0
 20 370 186 530 337 530 c 0
 449 530 500 494 500 412 c 0
 500 255 282 220 152 213 c 0
 130 212 124 216 123 194 c 0
 123 186 122 178 122 170 c 0
EndSplineSet
EndChar

StartChar: Gcircumflex
Encoding: 284 284 201
Width: 867
VWidth: 0
Flags: HMW
LayerCount: 2
Fore
SplineSet
714 853 m 0
 714 848 693 834 684 834 c 0
 677 834 673 840 663 850 c 2
 542 973 l 2
 531 984 529 984 516 975 c 2
 328 845 l 2
 318 838 313 834 307 834 c 0
 300 834 277 846 277 851 c 0
 277 855 284 859 294 867 c 2
 488 1028 l 2
 499 1037 503 1040 524 1040 c 2
 550 1040 l 2
 570 1040 571 1036 579 1026 c 2
 700 872 l 2
 708 862 714 857 714 853 c 0
538 370 m 2
 831 370 l 2
 844 370 847 368 847 347 c 0
 847 338 848 331 848 325 c 0
 848 311 844 305 820 305 c 2
 753 305 l 2
 739 305 734 303 729 287 c 2
 711 223 l 2
 699 181 690 159 664 128 c 0
 607 62 501 -10 354 -10 c 0
 176 -10 45 92 45 305 c 0
 45 516 227 760 485 760 c 0
 584 760 650 732 694 691 c 0
 708 677 715 670 720 670 c 0
 726 670 731 680 743 701 c 0
 757 726 759 750 800 750 c 0
 819 750 824 749 824 742 c 0
 824 738 823 732 821 723 c 2
 780 531 l 2
 774 504 779 495 744 495 c 0
 722 495 720 495 720 506 c 2
 720 524 l 2
 720 626 624 699 493 699 c 0
 282 699 160 480 160 305 c 0
 160 153 226 47 355 47 c 0
 440 47 498 71 550 114 c 0
 573 133 584 145 594 179 c 2
 621 275 l 2
 624 286 627 292 627 297 c 0
 627 304 621 305 600 305 c 2
 560 305 l 2
 551 305 543 304 536 304 c 0
 524 304 517 307 517 327 c 0
 517 336 516 344 516 351 c 0
 516 363 519 370 538 370 c 2
EndSplineSet
EndChar

StartChar: gcircumflex
Encoding: 285 285 202
Width: 539
VWidth: 0
Flags: HMW
LayerCount: 2
Fore
SplineSet
314 530 m 0
 335 530 358 526 375 526 c 0
 386 526 388 531 396 550 c 0
 420 602 450 642 500 642 c 0
 518 642 535 636 548 626 c 1
 433 743 l 2
 422 754 421 754 408 745 c 2
 220 615 l 2
 210 608 205 604 198 604 c 0
 191 604 167 615 167 621 c 0
 167 625 174 629 184 637 c 2
 380 798 l 2
 391 807 395 810 416 810 c 2
 440 810 l 2
 460 810 462 806 470 796 c 2
 591 642 l 2
 599 632 604 627 604 623 c 0
 604 618 583 604 574 604 c 0
 569 604 566 607 561 612 c 1
 569 601 574 587 574 571 c 0
 574 537 551 516 521 516 c 0
 493 516 473 535 473 560 c 0
 473 578 477 588 470 588 c 0
 456 588 441 569 427 539 c 0
 422 528 419 522 419 517 c 0
 419 511 424 507 434 499 c 0
 463 477 478 442 478 395 c 0
 478 275 365 160 234 160 c 0
 214 160 192 164 175 164 c 0
 163 164 154 161 141 153 c 0
 115 138 95 118 95 96 c 0
 95 69 137 69 192 69 c 0
 217 69 255 70 283 70 c 0
 378 70 440 44 440 -62 c 0
 440 -173 290 -260 120 -260 c 0
 17 -260 -65 -240 -65 -155 c 0
 -65 -106 -33 -62 3 -31 c 0
 26 -11 46 -9 46 -0 c 0
 46 4 42 9 34 17 c 0
 23 28 17 43 17 64 c 0
 17 103 41 137 81 161 c 0
 104 175 115 178 115 182 c 0
 115 186 106 191 91 207 c 0
 71 229 60 258 60 295 c 0
 60 415 183 530 314 530 c 0
73 -31 m 0
 43 -69 30 -116 30 -142 c 0
 30 -188 85 -205 131 -205 c 0
 245 -205 369 -152 369 -67 c 0
 369 -23 345 -9 280 -9 c 2
 176 -9 l 2
 160 -9 144 -8 129 -8 c 0
 126 -8 123 -8 120 -8 c 0
 93 -8 88 -13 73 -31 c 0
155 285 m 0
 155 241 165 200 234 200 c 0
 323 200 383 301 383 405 c 0
 383 439 383 490 314 490 c 0
 225 490 155 389 155 285 c 0
EndSplineSet
EndChar

StartChar: Gdotaccent
Encoding: 288 288 203
Width: 867
VWidth: 0
Flags: HMW
LayerCount: 2
Fore
SplineSet
305 880 m 0
 305 913 332 940 365 940 c 0
 398 940 425 913 425 880 c 0
 425 847 398 820 365 820 c 0
 332 820 305 847 305 880 c 0
538 370 m 2
 831 370 l 2
 844 370 847 368 847 347 c 0
 847 338 848 331 848 325 c 0
 848 311 844 305 820 305 c 2
 753 305 l 2
 739 305 734 303 729 287 c 2
 711 223 l 2
 699 181 690 159 664 128 c 0
 607 62 501 -10 354 -10 c 0
 176 -10 45 92 45 305 c 0
 45 516 227 760 485 760 c 0
 584 760 650 732 694 691 c 0
 708 677 715 670 720 670 c 0
 726 670 731 680 743 701 c 0
 757 726 759 750 800 750 c 0
 819 750 824 749 824 742 c 0
 824 738 823 732 821 723 c 2
 780 531 l 2
 774 504 779 495 744 495 c 0
 722 495 720 495 720 506 c 2
 720 524 l 2
 720 626 624 699 493 699 c 0
 282 699 160 480 160 305 c 0
 160 153 226 47 355 47 c 0
 440 47 498 71 550 114 c 0
 573 133 584 145 594 179 c 2
 621 275 l 2
 624 286 627 292 627 297 c 0
 627 304 621 305 600 305 c 2
 560 305 l 2
 551 305 543 304 536 304 c 0
 524 304 517 307 517 327 c 0
 517 336 516 344 516 351 c 0
 516 363 519 370 538 370 c 2
EndSplineSet
EndChar

StartChar: gdotaccent
Encoding: 289 289 204
Width: 539
VWidth: 0
Flags: HMW
LayerCount: 2
Fore
SplineSet
196 650 m 0
 196 683 223 710 256 710 c 0
 289 710 316 683 316 650 c 0
 316 617 289 590 256 590 c 0
 223 590 196 617 196 650 c 0
73 -31 m 0
 43 -69 30 -116 30 -142 c 0
 30 -188 85 -205 131 -205 c 0
 245 -205 369 -152 369 -67 c 0
 369 -23 345 -9 280 -9 c 2
 176 -9 l 2
 160 -9 144 -8 129 -8 c 0
 126 -8 123 -8 120 -8 c 0
 93 -8 88 -13 73 -31 c 0
155 285 m 0
 155 241 165 200 234 200 c 0
 323 200 383 301 383 405 c 0
 383 439 383 490 314 490 c 0
 225 490 155 389 155 285 c 0
234 160 m 0
 214 160 192 164 175 164 c 0
 163 164 154 161 141 153 c 0
 115 138 95 118 95 96 c 0
 95 69 137 69 192 69 c 0
 217 69 255 70 283 70 c 0
 378 70 440 44 440 -62 c 0
 440 -173 290 -260 120 -260 c 0
 17 -260 -65 -240 -65 -155 c 0
 -65 -106 -33 -62 3 -31 c 0
 26 -11 46 -9 46 -0 c 0
 46 4 42 9 34 17 c 0
 23 28 17 43 17 64 c 0
 17 103 41 137 81 161 c 0
 104 175 115 178 115 182 c 0
 115 186 106 191 91 207 c 0
 71 229 60 258 60 295 c 0
 60 415 183 530 314 530 c 0
 335 530 358 526 375 526 c 0
 386 526 388 531 396 550 c 0
 420 602 450 642 500 642 c 0
 541 642 574 613 574 571 c 0
 574 537 551 516 521 516 c 0
 493 516 473 535 473 560 c 0
 473 578 477 588 470 588 c 0
 456 588 441 569 427 539 c 0
 422 528 419 522 419 517 c 0
 419 511 424 507 434 499 c 0
 463 477 478 442 478 395 c 0
 478 275 365 160 234 160 c 0
EndSplineSet
EndChar

StartChar: uni0122
Encoding: 290 290 205
Width: 867
VWidth: 0
Flags: HMW
LayerCount: 2
Fore
SplineSet
312 -129 m 0
 312 -96 340 -70 378 -70 c 0
 417 -70 448 -101 448 -154 c 0
 448 -229 379 -304 304 -327 c 0
 296 -329 282 -334 272 -334 c 0
 265 -334 260 -332 260 -324 c 2
 260 -306 l 2
 260 -290 265 -295 278 -292 c 0
 324 -282 380 -239 395 -194 c 0
 397 -187 398 -183 398 -181 c 0
 398 -179 397 -179 396 -179 c 0
 393 -179 388 -184 382 -186 c 0
 377 -188 371 -188 364 -188 c 0
 331 -188 312 -162 312 -129 c 0
538 370 m 2
 831 370 l 2
 844 370 847 368 847 347 c 0
 847 338 848 331 848 325 c 0
 848 311 844 305 820 305 c 2
 753 305 l 2
 739 305 734 303 729 287 c 2
 711 223 l 2
 699 181 690 159 664 128 c 0
 607 62 501 -10 354 -10 c 0
 176 -10 45 92 45 305 c 0
 45 516 227 760 485 760 c 0
 584 760 650 732 694 691 c 0
 708 677 715 670 720 670 c 0
 726 670 731 680 743 701 c 0
 757 726 759 750 800 750 c 0
 819 750 824 749 824 742 c 0
 824 738 823 732 821 723 c 2
 780 531 l 2
 774 504 779 495 744 495 c 0
 722 495 720 495 720 506 c 2
 720 524 l 2
 720 626 624 699 493 699 c 0
 282 699 160 480 160 305 c 0
 160 153 226 47 355 47 c 0
 440 47 498 71 550 114 c 0
 573 133 584 145 594 179 c 2
 621 275 l 2
 624 286 627 292 627 297 c 0
 627 304 621 305 600 305 c 2
 560 305 l 2
 551 305 543 304 536 304 c 0
 524 304 517 307 517 327 c 0
 517 336 516 344 516 351 c 0
 516 363 519 370 538 370 c 2
EndSplineSet
EndChar

StartChar: Hcircumflex
Encoding: 292 292 206
Width: 897
VWidth: 0
Flags: HMW
LayerCount: 2
Fore
SplineSet
726 853 m 0
 726 848 705 834 697 834 c 0
 690 834 686 840 676 850 c 2
 555 973 l 2
 544 984 543 984 530 975 c 2
 342 845 l 2
 332 838 327 834 320 834 c 0
 313 834 289 845 289 851 c 0
 289 855 296 859 306 867 c 2
 502 1028 l 2
 513 1037 517 1040 538 1040 c 2
 562 1040 l 2
 582 1040 584 1036 592 1026 c 2
 713 872 l 2
 721 862 726 857 726 853 c 0
283 -0 m 2
 -24 0 l 2
 -41 0 -40 1 -40 18 c 2
 -40 36 l 2
 -40 53 -37 55 -25 55 c 0
 0 55 25 55 50 55 c 0
 90 55 84 65 91 96 c 2
 212 662 l 2
 214 672 215 679 215 684 c 0
 215 695 208 695 184 695 c 2
 119 695 l 2
 100 695 97 697 97 724 c 0
 97 750 98 750 124 750 c 2
 402 750 l 2
 410 750 416 751 421 751 c 0
 433 751 437 748 437 728 c 2
 437 715 l 2
 437 697 435 695 410 695 c 2
 346 695 l 2
 317 695 319 691 314 668 c 2
 268 456 l 2
 265 443 262 433 262 427 c 0
 262 418 268 415 292 415 c 2
 618 415 l 2
 654 415 655 416 661 446 c 2
 708 666 l 2
 710 676 712 682 712 686 c 0
 712 694 706 695 684 695 c 2
 632 695 l 2
 624 695 618 694 613 694 c 0
 601 694 597 697 597 718 c 0
 597 725 596 731 596 736 c 0
 596 746 599 750 616 750 c 2
 917 750 l 2
 935 750 937 748 937 722 c 0
 937 697 935 695 917 695 c 2
 836 695 l 2
 823 695 814 693 811 680 c 2
 686 94 l 2
 684 83 679 73 679 66 c 0
 679 59 684 55 700 55 c 2
 775 55 l 2
 796 55 800 52 800 20 c 0
 800 2 797 0 785 -0 c 0
 683 0 582 0 480 0 c 0
 461 0 460 3 460 16 c 2
 460 24 l 2
 460 55 461 55 492 55 c 2
 544 55 l 2
 583 55 579 63 586 94 c 2
 636 328 l 2
 638 336 639 342 639 347 c 0
 639 358 633 360 617 360 c 2
 268 360 l 2
 253 360 248 358 244 340 c 2
 188 78 l 2
 187 73 186 68 186 65 c 0
 186 56 191 54 201 54 c 0
 207 54 215 55 224 55 c 2
 274 55 l 2
 298 55 300 52 300 35 c 2
 300 22 l 2
 300 1 298 0 283 -0 c 2
EndSplineSet
EndChar

StartChar: hcircumflex
Encoding: 293 293 207
Width: 618
VWidth: 0
Flags: HMW
LayerCount: 2
Fore
SplineSet
586 873 m 0
 586 868 565 854 556 854 c 0
 549 854 545 860 535 870 c 2
 414 993 l 2
 403 1004 402 1004 389 995 c 2
 201 865 l 2
 191 858 186 854 179 854 c 0
 172 854 149 866 149 871 c 0
 149 875 156 879 166 887 c 2
 361 1048 l 2
 372 1057 376 1060 397 1060 c 2
 422 1060 l 2
 442 1060 443 1056 451 1046 c 2
 573 892 l 2
 581 882 586 877 586 873 c 0
557 171 m 0
 569 171 585 164 585 155 c 0
 585 147 577 137 572 126 c 0
 532 45 472 -10 410 -10 c 0
 363 -10 339 13 339 63 c 0
 339 68 341 84 343 92 c 2
 407 330 l 1
 418 367 426 400 426 425 c 0
 426 456 414 476 378 476 c 0
 295 476 167 333 140 215 c 2
 97 29 l 2
 91 2 85 0 60 -0 c 0
 48 0 36 0 24 0 c 0
 7 0 2 3 2 10 c 0
 2 16 6 24 8 35 c 2
 157 680 l 2
 160 694 165 705 165 712 c 0
 165 721 158 725 134 725 c 2
 102 725 l 2
 85 725 85 725 85 742 c 2
 85 758 l 2
 85 777 88 780 116 780 c 2
 234 780 l 2
 260 780 267 776 267 767 c 0
 267 760 263 750 260 736 c 2
 192 443 l 2
 186 418 179 396 179 390 c 0
 179 389 179 388 180 388 c 0
 182 388 188 395 200 412 c 0
 255 487 323 529 391 529 c 0
 461 529 508 500 508 419 c 0
 508 397 505 371 497 341 c 2
 431 96 l 2
 428 87 427 76 427 71 c 0
 427 60 432 52 445 52 c 0
 472 52 509 90 534 139 c 0
 543 158 543 171 557 171 c 0
EndSplineSet
EndChar

StartChar: Itilde
Encoding: 296 296 208
Width: 398
VWidth: 0
Flags: HMW
LayerCount: 2
Fore
SplineSet
206 934 m 0
 157 934 120 903 106 869 c 0
 96 844 105 840 70 840 c 0
 50 840 44 843 44 851 c 0
 44 856 47 865 50 875 c 0
 74 952 146 1007 232 1007 c 0
 332 1007 332 913 408 913 c 0
 456 913 491 943 506 976 c 0
 518 1002 507 1007 544 1007 c 0
 563 1007 569 1005 569 997 c 0
 569 993 568 988 566 981 c 0
 545 899 472 840 382 840 c 0
 265 840 269 934 206 934 c 0
268 0 m 2
 -10 0 l 2
 -39 0 -40 1 -40 27 c 2
 -40 32 l 2
 -40 54 -39 55 -23 55 c 2
 48 55 l 2
 83 55 84 56 90 84 c 2
 218 666 l 2
 220 676 222 683 222 687 c 0
 222 694 217 695 196 695 c 2
 125 695 l 2
 112 695 108 697 108 718 c 0
 108 750 108 750 140 750 c 2
 412 750 l 2
 438 750 438 750 438 724 c 2
 438 719 l 2
 438 696 437 695 410 695 c 2
 358 695 l 2
 324 695 325 693 319 666 c 2
 198 116 l 2
 195 101 186 83 186 71 c 0
 186 61 192 55 210 55 c 2
 276 55 l 2
 297 55 300 51 300 38 c 2
 300 18 l 2
 300 2 295 -1 286 -1 c 0
 281 -1 275 0 268 0 c 2
EndSplineSet
EndChar

StartChar: itilde
Encoding: 297 297 209
Width: 309
VWidth: 0
Flags: HMW
LayerCount: 2
Fore
SplineSet
137 934 m 0
 88 934 51 903 37 869 c 0
 27 844 36 840 1 840 c 0
 -19 840 -25 843 -25 851 c 0
 -25 856 -22 865 -19 875 c 0
 5 952 77 1007 163 1007 c 0
 263 1007 263 913 339 913 c 0
 387 913 423 943 438 976 c 0
 450 1002 439 1007 476 1007 c 0
 495 1007 500 1006 500 998 c 0
 500 994 499 989 497 981 c 0
 476 899 403 840 313 840 c 0
 196 840 200 934 137 934 c 0
267 135 m 0
 227 50 165 -10 101 -10 c 0
 54 -10 30 13 30 63 c 0
 30 68 31 79 32 85 c 2
 113 441 l 2
 115 448 116 453 116 457 c 0
 116 465 110 465 93 465 c 2
 59 465 l 2
 35 465 33 468 33 485 c 2
 33 497 l 2
 33 518 37 520 50 520 c 0
 98 520 147 520 195 520 c 0
 215 520 221 518 221 511 c 0
 221 506 218 498 215 487 c 2
 120 89 l 2
 119 83 118 76 118 71 c 0
 118 60 123 52 136 52 c 0
 165 52 205 95 230 149 c 0
 237 164 237 173 246 173 c 0
 249 173 253 172 259 170 c 0
 272 166 276 162 276 157 c 0
 276 152 272 145 267 135 c 0
146 700 m 0
 146 733 173 760 206 760 c 0
 239 760 266 733 266 700 c 0
 266 667 239 640 206 640 c 0
 173 640 146 667 146 700 c 0
EndSplineSet
EndChar

StartChar: Imacron
Encoding: 298 298 210
Width: 398
VWidth: 0
Flags: HMW
LayerCount: 2
Fore
SplineSet
132 875 m 2
 456 875 l 2
 488 875 488 875 488 848 c 2
 488 840 l 2
 488 821 486 820 458 820 c 2
 119 820 l 2
 90 820 88 823 88 841 c 2
 88 852 l 2
 88 873 94 876 109 876 c 0
 115 876 123 875 132 875 c 2
268 0 m 2
 -10 0 l 2
 -39 0 -40 1 -40 27 c 2
 -40 32 l 2
 -40 54 -39 55 -23 55 c 2
 48 55 l 2
 83 55 84 56 90 84 c 2
 218 666 l 2
 220 676 222 683 222 687 c 0
 222 694 217 695 196 695 c 2
 125 695 l 2
 112 695 108 697 108 718 c 0
 108 750 108 750 140 750 c 2
 412 750 l 2
 438 750 438 750 438 724 c 2
 438 719 l 2
 438 696 437 695 410 695 c 2
 358 695 l 2
 324 695 325 693 319 666 c 2
 198 116 l 2
 195 101 186 83 186 71 c 0
 186 61 192 55 210 55 c 2
 276 55 l 2
 297 55 300 51 300 38 c 2
 300 18 l 2
 300 2 295 -1 286 -1 c 0
 281 -1 275 0 268 0 c 2
EndSplineSet
EndChar

StartChar: imacron
Encoding: 299 299 211
Width: 309
VWidth: 0
Flags: HMW
LayerCount: 2
Fore
SplineSet
63 875 m 2
 388 875 l 2
 420 875 420 875 420 848 c 0
 420 821 421 820 389 820 c 2
 50 820 l 2
 22 820 20 822 20 838 c 2
 20 852 l 2
 20 873 25 876 40 876 c 0
 46 876 54 875 63 875 c 2
267 135 m 0
 227 50 165 -10 101 -10 c 0
 54 -10 30 13 30 63 c 0
 30 68 31 79 32 85 c 2
 113 441 l 2
 115 448 116 453 116 457 c 0
 116 465 110 465 93 465 c 2
 59 465 l 2
 35 465 33 468 33 485 c 2
 33 497 l 2
 33 518 37 520 50 520 c 0
 98 520 147 520 195 520 c 0
 215 520 221 518 221 511 c 0
 221 506 218 498 215 487 c 2
 120 89 l 2
 119 83 118 76 118 71 c 0
 118 60 123 52 136 52 c 0
 165 52 205 95 230 149 c 0
 237 164 237 173 246 173 c 0
 249 173 253 172 259 170 c 0
 272 166 276 162 276 157 c 0
 276 152 272 145 267 135 c 0
146 700 m 0
 146 733 173 760 206 760 c 0
 239 760 266 733 266 700 c 0
 266 667 239 640 206 640 c 0
 173 640 146 667 146 700 c 0
EndSplineSet
EndChar

StartChar: Idotaccent
Encoding: 304 304 212
Width: 398
VWidth: 0
Flags: HMW
LayerCount: 2
Fore
SplineSet
76 880 m 0
 76 913 103 940 136 940 c 0
 169 940 196 913 196 880 c 0
 196 847 169 820 136 820 c 0
 103 820 76 847 76 880 c 0
268 0 m 2
 -10 0 l 2
 -39 0 -40 1 -40 27 c 2
 -40 32 l 2
 -40 54 -39 55 -23 55 c 2
 48 55 l 2
 83 55 84 56 90 84 c 2
 218 666 l 2
 220 676 222 683 222 687 c 0
 222 694 217 695 196 695 c 2
 125 695 l 2
 112 695 108 697 108 718 c 0
 108 750 108 750 140 750 c 2
 412 750 l 2
 438 750 438 750 438 724 c 2
 438 719 l 2
 438 696 437 695 410 695 c 2
 358 695 l 2
 324 695 325 693 319 666 c 2
 198 116 l 2
 195 101 186 83 186 71 c 0
 186 61 192 55 210 55 c 2
 276 55 l 2
 297 55 300 51 300 38 c 2
 300 18 l 2
 300 2 295 -1 286 -1 c 0
 281 -1 275 0 268 0 c 2
EndSplineSet
EndChar

